<?xml version="1.0" encoding="UTF-8" standalone="no"?>
<!DOCTYPE svg PUBLIC "-//W3C//DTD SVG 1.1//EN"
 "http://www.w3.org/Graphics/SVG/1.1/DTD/svg11.dtd">
<!-- Generated by graphviz version 15.0.0 (20260523.1842)
 -->
<!-- Title: Apollo Pages: 1 -->
<svg width="908pt" height="70pt"
 viewBox="0.00 0.00 908.00 70.00" xmlns="http://www.w3.org/2000/svg" xmlns:xlink="http://www.w3.org/1999/xlink">
<g id="graph0" class="graph" transform="scale(1 1) rotate(0) translate(4 66.23)">
<title>Apollo</title>
<polygon fill="white" stroke="none" points="-4,4 -4,-66.23 903.69,-66.23 903.69,4 -4,4"/>
<!-- 0 -->
<g id="node1" class="node">
<title>0</title>
<ellipse fill="#4caf50" stroke="black" cx="30.82" cy="-31.11" rx="30.82" ry="30.82"/>
<text xml:space="preserve" text-anchor="middle" x="30.82" y="-26.66" font-family="Helvetica,sans-Serif" font-size="11.00" fill="white">START</text>
</g>
<!-- 1 -->
<g id="node3" class="node">
<title>1</title>
<ellipse fill="#f44336" stroke="black" cx="213.43" cy="-31.11" rx="115.79" ry="31.11"/>
<text xml:space="preserve" text-anchor="middle" x="213.43" y="-38.66" font-family="Helvetica,sans-Serif" font-size="11.00" fill="white">[1] Apollo Backend API (part 1)</text>
<text xml:space="preserve" text-anchor="middle" x="213.43" y="-26.66" font-family="Helvetica,sans-Serif" font-size="11.00" fill="white">exp: 3.6d | risk: 2/10</text>
<text xml:space="preserve" text-anchor="middle" x="213.43" y="-14.66" font-family="Helvetica,sans-Serif" font-size="11.00" fill="white">day 15&#45;19 | slack: 0</text>
</g>
<!-- 0&#45;&gt;1 -->
<g id="edge1" class="edge">
<title>0&#45;&gt;1</title>
<path fill="none" stroke="#555555" d="M62.05,-31.11C69.25,-31.11 77.38,-31.11 86.05,-31.11"/>
<polygon fill="#555555" stroke="#555555" points="85.77,-34.61 95.77,-31.11 85.77,-27.61 85.77,-34.61"/>
</g>
<!-- end -->
<g id="node2" class="node">
<title>end</title>
<ellipse fill="#607d8b" stroke="black" cx="875.63" cy="-31.11" rx="24.05" ry="24.05"/>
<text xml:space="preserve" text-anchor="middle" x="875.63" y="-26.66" font-family="Helvetica,sans-Serif" font-size="11.00" fill="white">END</text>
</g>
<!-- 3 -->
<g id="node5" class="node">
<title>3</title>
<ellipse fill="#f44336" stroke="black" cx="481" cy="-31.11" rx="115.79" ry="31.11"/>
<text xml:space="preserve" text-anchor="middle" x="481" y="-38.66" font-family="Helvetica,sans-Serif" font-size="11.00" fill="white">[3] Apollo Backend API (part 2)</text>
<text xml:space="preserve" text-anchor="middle" x="481" y="-26.66" font-family="Helvetica,sans-Serif" font-size="11.00" fill="white">exp: 1.6d | risk: 2/10</text>
<text xml:space="preserve" text-anchor="middle" x="481" y="-14.66" font-family="Helvetica,sans-Serif" font-size="11.00" fill="white">day 19&#45;21 | slack: 0</text>
</g>
<!-- 1&#45;&gt;3 -->
<g id="edge2" class="edge">
<title>1&#45;&gt;3</title>
<path fill="none" stroke="#555555" d="M329.37,-31.11C337.37,-31.11 345.46,-31.11 353.52,-31.11"/>
<polygon fill="#555555" stroke="#555555" points="353.37,-34.61 363.37,-31.11 353.37,-27.61 353.37,-34.61"/>
</g>
<!-- 2 -->
<g id="node4" class="node">
<title>2</title>
<ellipse fill="#f44336" stroke="black" cx="724.19" cy="-31.11" rx="91.39" ry="31.11"/>
<text xml:space="preserve" text-anchor="middle" x="724.19" y="-38.66" font-family="Helvetica,sans-Serif" font-size="11.00" fill="white">[2] Apollo Design Polish</text>
<text xml:space="preserve" text-anchor="middle" x="724.19" y="-26.66" font-family="Helvetica,sans-Serif" font-size="11.00" fill="white">exp: 3.0d | risk: 1/10</text>
<text xml:space="preserve" text-anchor="middle" x="724.19" y="-14.66" font-family="Helvetica,sans-Serif" font-size="11.00" fill="white">day 21&#45;24 | slack: 0</text>
</g>
<!-- 2&#45;&gt;end -->
<g id="edge4" class="edge">
<title>2&#45;&gt;end</title>
<path fill="none" stroke="#555555" d="M816,-31.11C824.4,-31.11 832.52,-31.11 839.9,-31.11"/>
<polygon fill="#555555" stroke="#555555" points="839.66,-34.61 849.66,-31.11 839.66,-27.61 839.66,-34.61"/>
</g>
<!-- 3&#45;&gt;2 -->
<g id="edge3" class="edge">
<title>3&#45;&gt;2</title>
<path fill="none" stroke="#555555" d="M596.94,-31.11C604.93,-31.11 612.95,-31.11 620.87,-31.11"/>
<polygon fill="#555555" stroke="#555555" points="620.86,-34.61 630.86,-31.11 620.86,-27.61 620.86,-34.61"/>
</g>
</g>
</svg>
