<?xml version="1.0" encoding="UTF-8" standalone="no"?>
<!DOCTYPE svg PUBLIC "-//W3C//DTD SVG 1.1//EN"
 "http://www.w3.org/Graphics/SVG/1.1/DTD/svg11.dtd">
<!-- Generated by graphviz version 15.0.0 (20260523.1842)
 -->
<!-- Title: architecture Pages: 1 -->
<svg width="950pt" height="821pt"
 viewBox="0.00 0.00 950.00 821.00" xmlns="http://www.w3.org/2000/svg" xmlns:xlink="http://www.w3.org/1999/xlink">
<g id="graph0" class="graph" transform="scale(1 1) rotate(0) translate(4 816.75)">
<title>architecture</title>
<polygon fill="white" stroke="none" points="-4,4 -4,-816.75 945.91,-816.75 945.91,4 -4,4"/>
<text xml:space="preserve" text-anchor="middle" x="470.96" y="-793.55" font-family="Helvetica,sans-Serif" font-size="16.00">Project Mayhem Management &#45; Module Architecture</text>
<g id="clust1" class="cluster">
<title>cluster_app</title>
<polygon fill="#dbeafe" stroke="#dbeafe" points="566.91,-535.5 566.91,-780.25 720.91,-780.25 720.91,-535.5 566.91,-535.5"/>
<text xml:space="preserve" text-anchor="middle" x="643.91" y="-764.85" font-family="Helvetica,sans-Serif" font-size="12.00">Application</text>
</g>
<g id="clust2" class="cluster">
<title>cluster_tui</title>
<polygon fill="#dcfce7" stroke="#dcfce7" points="669.91,-354.88 669.91,-522.25 933.91,-522.25 933.91,-354.88 669.91,-354.88"/>
<text xml:space="preserve" text-anchor="middle" x="801.91" y="-506.85" font-family="Helvetica,sans-Serif" font-size="12.00">TUI framework (reusable)</text>
</g>
<g id="clust3" class="cluster">
<title>cluster_report</title>
<polygon fill="#fef9c3" stroke="#fef9c3" points="84.91,-446.62 84.91,-608.25 558.91,-608.25 558.91,-446.62 84.91,-446.62"/>
<text xml:space="preserve" text-anchor="middle" x="321.91" y="-592.85" font-family="Helvetica,sans-Serif" font-size="12.00">Reporting &amp; rendering</text>
</g>
<g id="clust4" class="cluster">
<title>cluster_engine</title>
<polygon fill="#fee2e2" stroke="#fee2e2" points="353.91,-352 353.91,-430.5 660.91,-430.5 660.91,-352 353.91,-352"/>
<text xml:space="preserve" text-anchor="middle" x="507.41" y="-415.1" font-family="Helvetica,sans-Serif" font-size="12.00">Engine</text>
</g>
<g id="clust5" class="cluster">
<title>cluster_domain</title>
<polygon fill="#ede9fe" stroke="#ede9fe" points="482.91,-94 482.91,-338.75 635.91,-338.75 635.91,-94 482.91,-94"/>
<text xml:space="preserve" text-anchor="middle" x="559.41" y="-323.35" font-family="Helvetica,sans-Serif" font-size="12.00">Domain model</text>
</g>
<g id="clust6" class="cluster">
<title>cluster_base</title>
<polygon fill="#eef2f7" stroke="#eef2f7" points="345.91,-8 345.91,-80.75 653.91,-80.75 653.91,-8 345.91,-8"/>
<text xml:space="preserve" text-anchor="middle" x="499.91" y="-65.35" font-family="Helvetica,sans-Serif" font-size="12.00">Foundation</text>
</g>
<!-- main -->
<g id="node1" class="node">
<title>main</title>
<path fill="#93c5fd" stroke="black" d="M679.91,-751.5C679.91,-751.5 649.91,-751.5 649.91,-751.5 643.91,-751.5 637.91,-745.5 637.91,-739.5 637.91,-739.5 637.91,-727.5 637.91,-727.5 637.91,-721.5 643.91,-715.5 649.91,-715.5 649.91,-715.5 679.91,-715.5 679.91,-715.5 685.91,-715.5 691.91,-721.5 691.91,-727.5 691.91,-727.5 691.91,-739.5 691.91,-739.5 691.91,-745.5 685.91,-751.5 679.91,-751.5"/>
<text xml:space="preserve" text-anchor="middle" x="664.91" y="-735.25" font-family="Helvetica,sans-Serif" font-size="10.00">main</text>
<text xml:space="preserve" text-anchor="middle" x="664.91" y="-724" font-family="Helvetica,sans-Serif" font-size="10.00">(entry)</text>
</g>
<!-- menus -->
<g id="node2" class="node">
<title>menus</title>
<path fill="#f7f9fc" stroke="black" d="M701.04,-665.5C701.04,-665.5 586.79,-665.5 586.79,-665.5 580.79,-665.5 574.79,-659.5 574.79,-653.5 574.79,-653.5 574.79,-641.5 574.79,-641.5 574.79,-635.5 580.79,-629.5 586.79,-629.5 586.79,-629.5 701.04,-629.5 701.04,-629.5 707.04,-629.5 713.04,-635.5 713.04,-641.5 713.04,-641.5 713.04,-653.5 713.04,-653.5 713.04,-659.5 707.04,-665.5 701.04,-665.5"/>
<text xml:space="preserve" text-anchor="middle" x="643.91" y="-649.25" font-family="Helvetica,sans-Serif" font-size="10.00">menus</text>
<text xml:space="preserve" text-anchor="middle" x="643.91" y="-638" font-family="Helvetica,sans-Serif" font-size="10.00">(MenuItem tables + actions)</text>
</g>
<!-- main&#45;&gt;menus -->
<g id="edge1" class="edge">
<title>main&#45;&gt;menus</title>
<path fill="none" stroke="#888888" d="M660.56,-715.1C657.58,-703.16 653.57,-687.12 650.23,-673.78"/>
<polygon fill="#888888" stroke="#888888" points="652.7,-673.55 648.62,-667.35 647.95,-674.74 652.7,-673.55"/>
</g>
<!-- tui_framework -->
<g id="node4" class="node">
<title>tui_framework</title>
<path fill="#bbf7d0" stroke="black" d="M820.29,-493.5C820.29,-493.5 689.54,-493.5 689.54,-493.5 683.54,-493.5 677.54,-487.5 677.54,-481.5 677.54,-481.5 677.54,-463.75 677.54,-463.75 677.54,-457.75 683.54,-451.75 689.54,-451.75 689.54,-451.75 820.29,-451.75 820.29,-451.75 826.29,-451.75 832.29,-457.75 832.29,-463.75 832.29,-463.75 832.29,-481.5 832.29,-481.5 832.29,-487.5 826.29,-493.5 820.29,-493.5"/>
<text xml:space="preserve" text-anchor="middle" x="754.91" y="-480" font-family="Helvetica,sans-Serif" font-size="10.00">tui_framework</text>
<text xml:space="preserve" text-anchor="middle" x="754.91" y="-468.75" font-family="Helvetica,sans-Serif" font-size="10.00">(input, breadcrumb,</text>
<text xml:space="preserve" text-anchor="middle" x="754.91" y="-457.5" font-family="Helvetica,sans-Serif" font-size="10.00">run_table_menu / run_checklist)</text>
</g>
<!-- main&#45;&gt;tui_framework -->
<g id="edge2" class="edge">
<title>main&#45;&gt;tui_framework</title>
<path fill="none" stroke="#888888" d="M686.2,-715.14C699.83,-702.78 716.65,-684.96 725.91,-665.5 751.49,-611.77 755.58,-540.83 755.65,-502.02"/>
<polygon fill="#888888" stroke="#888888" points="758.1,-502.28 755.62,-495.3 753.2,-502.31 758.1,-502.28"/>
</g>
<!-- sim -->
<g id="node3" class="node">
<title>sim</title>
<path fill="#f7f9fc" stroke="black" d="M639.29,-579.5C639.29,-579.5 604.54,-579.5 604.54,-579.5 598.54,-579.5 592.54,-573.5 592.54,-567.5 592.54,-567.5 592.54,-555.5 592.54,-555.5 592.54,-549.5 598.54,-543.5 604.54,-543.5 604.54,-543.5 639.29,-543.5 639.29,-543.5 645.29,-543.5 651.29,-549.5 651.29,-555.5 651.29,-555.5 651.29,-567.5 651.29,-567.5 651.29,-573.5 645.29,-579.5 639.29,-579.5"/>
<text xml:space="preserve" text-anchor="middle" x="621.91" y="-563.25" font-family="Helvetica,sans-Serif" font-size="10.00">sim</text>
<text xml:space="preserve" text-anchor="middle" x="621.91" y="-552" font-family="Helvetica,sans-Serif" font-size="10.00">(sandbox)</text>
</g>
<!-- menus&#45;&gt;sim -->
<g id="edge8" class="edge">
<title>menus&#45;&gt;sim</title>
<path fill="none" stroke="#888888" d="M639.35,-629.1C636.23,-617.16 632.03,-601.12 628.53,-587.78"/>
<polygon fill="#888888" stroke="#888888" points="630.99,-587.5 626.85,-581.35 626.25,-588.74 630.99,-587.5"/>
</g>
<!-- menus&#45;&gt;tui_framework -->
<g id="edge3" class="edge">
<title>menus&#45;&gt;tui_framework</title>
<path fill="none" stroke="#888888" d="M654.96,-629.29C674.29,-599.19 714.38,-536.75 737.48,-500.77"/>
<polygon fill="#888888" stroke="#888888" points="739.33,-502.43 741.05,-495.22 735.2,-499.78 739.33,-502.43"/>
</g>
<!-- file_browser -->
<g id="node6" class="node">
<title>file_browser</title>
<path fill="#f7f9fc" stroke="black" d="M914.16,-490.62C914.16,-490.62 869.66,-490.62 869.66,-490.62 863.66,-490.62 857.66,-484.62 857.66,-478.62 857.66,-478.62 857.66,-466.62 857.66,-466.62 857.66,-460.62 863.66,-454.62 869.66,-454.62 869.66,-454.62 914.16,-454.62 914.16,-454.62 920.16,-454.62 926.16,-460.62 926.16,-466.62 926.16,-466.62 926.16,-478.62 926.16,-478.62 926.16,-484.62 920.16,-490.62 914.16,-490.62"/>
<text xml:space="preserve" text-anchor="middle" x="891.91" y="-468.75" font-family="Helvetica,sans-Serif" font-size="10.00">file_browser</text>
</g>
<!-- menus&#45;&gt;file_browser -->
<g id="edge9" class="edge">
<title>menus&#45;&gt;file_browser</title>
<path fill="none" stroke="#888888" d="M678.09,-629.01C719.61,-606.98 790.81,-566.58 844.91,-522.25 854.17,-514.66 863.52,-505.4 871.41,-497"/>
<polygon fill="#888888" stroke="#888888" points="873.16,-498.71 876.1,-491.91 869.56,-495.39 873.16,-498.71"/>
</g>
<!-- renderer -->
<g id="node7" class="node">
<title>renderer</title>
<path fill="#f7f9fc" stroke="black" d="M539.04,-490.62C539.04,-490.62 448.79,-490.62 448.79,-490.62 442.79,-490.62 436.79,-484.62 436.79,-478.62 436.79,-478.62 436.79,-466.62 436.79,-466.62 436.79,-460.62 442.79,-454.62 448.79,-454.62 448.79,-454.62 539.04,-454.62 539.04,-454.62 545.04,-454.62 551.04,-460.62 551.04,-466.62 551.04,-466.62 551.04,-478.62 551.04,-478.62 551.04,-484.62 545.04,-490.62 539.04,-490.62"/>
<text xml:space="preserve" text-anchor="middle" x="493.91" y="-474.38" font-family="Helvetica,sans-Serif" font-size="10.00">renderer</text>
<text xml:space="preserve" text-anchor="middle" x="493.91" y="-463.12" font-family="Helvetica,sans-Serif" font-size="10.00">(Gantt, DAG, portfolio)</text>
</g>
<!-- menus&#45;&gt;renderer -->
<g id="edge5" class="edge">
<title>menus&#45;&gt;renderer</title>
<path fill="none" stroke="#888888" d="M608.29,-629.15C598.43,-623.34 588.18,-616.27 579.91,-608.25 546.26,-575.58 519.54,-527.33 505.28,-498.34"/>
<polygon fill="#888888" stroke="#888888" points="507.5,-497.3 502.25,-492.06 503.09,-499.43 507.5,-497.3"/>
</g>
<!-- report_exporter -->
<g id="node9" class="node">
<title>report_exporter</title>
<path fill="#f7f9fc" stroke="black" d="M372.79,-579.5C372.79,-579.5 305.04,-579.5 305.04,-579.5 299.04,-579.5 293.04,-573.5 293.04,-567.5 293.04,-567.5 293.04,-555.5 293.04,-555.5 293.04,-549.5 299.04,-543.5 305.04,-543.5 305.04,-543.5 372.79,-543.5 372.79,-543.5 378.79,-543.5 384.79,-549.5 384.79,-555.5 384.79,-555.5 384.79,-567.5 384.79,-567.5 384.79,-573.5 378.79,-579.5 372.79,-579.5"/>
<text xml:space="preserve" text-anchor="middle" x="338.91" y="-563.25" font-family="Helvetica,sans-Serif" font-size="10.00">report_exporter</text>
<text xml:space="preserve" text-anchor="middle" x="338.91" y="-552" font-family="Helvetica,sans-Serif" font-size="10.00">(report assembly)</text>
</g>
<!-- menus&#45;&gt;report_exporter -->
<g id="edge6" class="edge">
<title>menus&#45;&gt;report_exporter</title>
<path fill="none" stroke="#888888" d="M580.6,-629.08C556.86,-622.55 529.65,-615.06 504.91,-608.25 467.58,-597.97 425.53,-586.38 393.09,-577.44"/>
<polygon fill="#888888" stroke="#888888" points="393.92,-575.13 386.52,-575.63 392.62,-579.85 393.92,-575.13"/>
</g>
<!-- algorithms -->
<g id="node12" class="node">
<title>algorithms</title>
<path fill="#fca5a5" stroke="black" d="M461.54,-401.75C461.54,-401.75 374.29,-401.75 374.29,-401.75 368.29,-401.75 362.29,-395.75 362.29,-389.75 362.29,-389.75 362.29,-372 362.29,-372 362.29,-366 368.29,-360 374.29,-360 374.29,-360 461.54,-360 461.54,-360 467.54,-360 473.54,-366 473.54,-372 473.54,-372 473.54,-389.75 473.54,-389.75 473.54,-395.75 467.54,-401.75 461.54,-401.75"/>
<text xml:space="preserve" text-anchor="middle" x="417.91" y="-388.25" font-family="Helvetica,sans-Serif" font-size="10.00">algorithms</text>
<text xml:space="preserve" text-anchor="middle" x="417.91" y="-377" font-family="Helvetica,sans-Serif" font-size="10.00">(CPM, greedy assign,</text>
<text xml:space="preserve" text-anchor="middle" x="417.91" y="-365.75" font-family="Helvetica,sans-Serif" font-size="10.00">schedule_company)</text>
</g>
<!-- menus&#45;&gt;algorithms -->
<g id="edge4" class="edge">
<title>menus&#45;&gt;algorithms</title>
<path fill="none" stroke="#888888" d="M574.3,-644.64C418.54,-640.15 54.1,-627.62 35.91,-608.25 -13.26,-555.89 -10.44,-501.5 35.91,-446.62 75.82,-399.38 255.5,-386.6 353.56,-383.15"/>
<polygon fill="#888888" stroke="#888888" points="353.49,-385.6 360.41,-382.92 353.33,-380.7 353.49,-385.6"/>
</g>
<!-- roles -->
<g id="node14" class="node">
<title>roles</title>
<path fill="#f7f9fc" stroke="black" d="M549.54,-398.88C549.54,-398.88 510.29,-398.88 510.29,-398.88 504.29,-398.88 498.29,-392.88 498.29,-386.88 498.29,-386.88 498.29,-374.88 498.29,-374.88 498.29,-368.88 504.29,-362.88 510.29,-362.88 510.29,-362.88 549.54,-362.88 549.54,-362.88 555.54,-362.88 561.54,-368.88 561.54,-374.88 561.54,-374.88 561.54,-386.88 561.54,-386.88 561.54,-392.88 555.54,-398.88 549.54,-398.88"/>
<text xml:space="preserve" text-anchor="middle" x="529.91" y="-382.62" font-family="Helvetica,sans-Serif" font-size="10.00">roles</text>
<text xml:space="preserve" text-anchor="middle" x="529.91" y="-371.38" font-family="Helvetica,sans-Serif" font-size="10.00">(privileges)</text>
</g>
<!-- menus&#45;&gt;roles -->
<g id="edge7" class="edge">
<title>menus&#45;&gt;roles</title>
<path fill="none" stroke="#888888" d="M574.35,-646.98C430.74,-647.23 112.08,-643.74 78.91,-608.25 29.86,-555.77 29.13,-498.41 78.91,-446.62 110.27,-414 444.92,-449.67 485.91,-430.5 497.36,-425.14 507.16,-415.29 514.58,-405.84"/>
<polygon fill="#888888" stroke="#888888" points="516.47,-407.41 518.66,-400.32 512.53,-404.5 516.47,-407.41"/>
</g>
<!-- sim&#45;&gt;tui_framework -->
<g id="edge12" class="edge">
<title>sim&#45;&gt;tui_framework</title>
<path fill="none" stroke="#888888" d="M648.51,-543.13C668.21,-530.26 695.32,-512.55 717.25,-498.23"/>
<polygon fill="#888888" stroke="#888888" points="718.38,-500.41 722.9,-494.53 715.7,-496.31 718.38,-500.41"/>
</g>
<!-- sim&#45;&gt;algorithms -->
<g id="edge10" class="edge">
<title>sim&#45;&gt;algorithms</title>
<path fill="none" stroke="#888888" d="M618.28,-543.17C612.01,-517.82 596.67,-470.97 564.91,-446.62 536.47,-424.82 518.76,-444.82 485.91,-430.5 472.34,-424.59 458.79,-415.67 447.4,-407.08"/>
<polygon fill="#888888" stroke="#888888" points="449.19,-405.36 442.15,-403.01 446.19,-409.23 449.19,-405.36"/>
</g>
<!-- persistence -->
<g id="node13" class="node">
<title>persistence</title>
<path fill="#f7f9fc" stroke="black" d="M641.04,-398.88C641.04,-398.88 598.79,-398.88 598.79,-398.88 592.79,-398.88 586.79,-392.88 586.79,-386.88 586.79,-386.88 586.79,-374.88 586.79,-374.88 586.79,-368.88 592.79,-362.88 598.79,-362.88 598.79,-362.88 641.04,-362.88 641.04,-362.88 647.04,-362.88 653.04,-368.88 653.04,-374.88 653.04,-374.88 653.04,-386.88 653.04,-386.88 653.04,-392.88 647.04,-398.88 641.04,-398.88"/>
<text xml:space="preserve" text-anchor="middle" x="619.91" y="-377" font-family="Helvetica,sans-Serif" font-size="10.00">persistence</text>
</g>
<!-- sim&#45;&gt;persistence -->
<g id="edge11" class="edge">
<title>sim&#45;&gt;persistence</title>
<path fill="none" stroke="#888888" d="M621.72,-543.05C621.36,-511.35 620.61,-444.21 620.2,-407.38"/>
<polygon fill="#888888" stroke="#888888" points="622.65,-407.62 620.12,-400.65 617.75,-407.68 622.65,-407.62"/>
</g>
<!-- ui -->
<g id="node5" class="node">
<title>ui</title>
<path fill="#f7f9fc" stroke="black" d="M749.66,-398.88C749.66,-398.88 690.16,-398.88 690.16,-398.88 684.16,-398.88 678.16,-392.88 678.16,-386.88 678.16,-386.88 678.16,-374.88 678.16,-374.88 678.16,-368.88 684.16,-362.88 690.16,-362.88 690.16,-362.88 749.66,-362.88 749.66,-362.88 755.66,-362.88 761.66,-368.88 761.66,-374.88 761.66,-374.88 761.66,-386.88 761.66,-386.88 761.66,-392.88 755.66,-398.88 749.66,-398.88"/>
<text xml:space="preserve" text-anchor="middle" x="719.91" y="-382.62" font-family="Helvetica,sans-Serif" font-size="10.00">ui</text>
<text xml:space="preserve" text-anchor="middle" x="719.91" y="-371.38" font-family="Helvetica,sans-Serif" font-size="10.00">(colour, screen)</text>
</g>
<!-- tui_framework&#45;&gt;ui -->
<g id="edge13" class="edge">
<title>tui_framework&#45;&gt;ui</title>
<path fill="none" stroke="#888888" d="M746.97,-451.26C741.84,-438.12 735.14,-420.93 729.69,-406.95"/>
<polygon fill="#888888" stroke="#888888" points="732.02,-406.18 727.19,-400.55 727.45,-407.96 732.02,-406.18"/>
</g>
<!-- tui_framework&#45;&gt;roles -->
<g id="edge14" class="edge">
<title>tui_framework&#45;&gt;roles</title>
<path fill="none" stroke="#888888" d="M677.1,-464.53C643.6,-458.88 605.06,-448.73 573.91,-430.5 563.42,-424.36 554.02,-414.88 546.64,-405.92"/>
<polygon fill="#888888" stroke="#888888" points="548.57,-404.42 542.33,-400.42 544.72,-407.44 548.57,-404.42"/>
</g>
<!-- util -->
<g id="node21" class="node">
<title>util</title>
<path fill="#f7f9fc" stroke="black" d="M633.91,-52C633.91,-52 603.91,-52 603.91,-52 597.91,-52 591.91,-46 591.91,-40 591.91,-40 591.91,-28 591.91,-28 591.91,-22 597.91,-16 603.91,-16 603.91,-16 633.91,-16 633.91,-16 639.91,-16 645.91,-22 645.91,-28 645.91,-28 645.91,-40 645.91,-40 645.91,-46 639.91,-52 633.91,-52"/>
<text xml:space="preserve" text-anchor="middle" x="618.91" y="-30.12" font-family="Helvetica,sans-Serif" font-size="10.00">util</text>
</g>
<!-- tui_framework&#45;&gt;util -->
<g id="edge15" class="edge">
<title>tui_framework&#45;&gt;util</title>
<path fill="none" stroke="#888888" d="M765.4,-451.52C768.5,-444.96 771.66,-437.54 773.91,-430.5 792.87,-371.27 799.91,-355.19 799.91,-293 799.91,-293 799.91,-293 799.91,-205 799.91,-125.86 706.84,-72.8 654.17,-49.12"/>
<polygon fill="#888888" stroke="#888888" points="655.18,-46.88 647.79,-46.31 653.21,-51.37 655.18,-46.88"/>
</g>
<!-- renderer&#45;&gt;ui -->
<g id="edge20" class="edge">
<title>renderer&#45;&gt;ui</title>
<path fill="none" stroke="#888888" d="M551.42,-465.41C586.38,-459.86 631.05,-449.53 666.91,-430.5 679.04,-424.07 690.52,-414.19 699.68,-405.02"/>
<polygon fill="#888888" stroke="#888888" points="701.2,-406.97 704.29,-400.23 697.67,-403.57 701.2,-406.97"/>
</g>
<!-- html_builder -->
<g id="node8" class="node">
<title>html_builder</title>
<path fill="#fde68a" stroke="black" d="M400.16,-490.62C400.16,-490.62 277.66,-490.62 277.66,-490.62 271.66,-490.62 265.66,-484.62 265.66,-478.62 265.66,-478.62 265.66,-466.62 265.66,-466.62 265.66,-460.62 271.66,-454.62 277.66,-454.62 277.66,-454.62 400.16,-454.62 400.16,-454.62 406.16,-454.62 412.16,-460.62 412.16,-466.62 412.16,-466.62 412.16,-478.62 412.16,-478.62 412.16,-484.62 406.16,-490.62 400.16,-490.62"/>
<text xml:space="preserve" text-anchor="middle" x="338.91" y="-474.38" font-family="Helvetica,sans-Serif" font-size="10.00">html_builder</text>
<text xml:space="preserve" text-anchor="middle" x="338.91" y="-463.12" font-family="Helvetica,sans-Serif" font-size="10.00">(HTML chrome / components)</text>
</g>
<!-- report_exporter&#45;&gt;renderer -->
<g id="edge17" class="edge">
<title>report_exporter&#45;&gt;renderer</title>
<path fill="none" stroke="#888888" d="M382.59,-543.04C396.41,-537 411.55,-529.83 424.91,-522.25 438.55,-514.51 452.84,-504.75 464.86,-496"/>
<polygon fill="#888888" stroke="#888888" points="466.25,-498.02 470.43,-491.89 463.34,-494.08 466.25,-498.02"/>
</g>
<!-- report_exporter&#45;&gt;html_builder -->
<g id="edge16" class="edge">
<title>report_exporter&#45;&gt;html_builder</title>
<path fill="none" stroke="#888888" d="M338.91,-543.34C338.91,-530.81 338.91,-513.6 338.91,-499.42"/>
<polygon fill="#888888" stroke="#888888" points="341.36,-499.56 338.91,-492.56 336.46,-499.56 341.36,-499.56"/>
</g>
<!-- dot_export -->
<g id="node10" class="node">
<title>dot_export</title>
<path fill="#f7f9fc" stroke="black" d="M142.79,-490.62C142.79,-490.62 105.04,-490.62 105.04,-490.62 99.04,-490.62 93.04,-484.62 93.04,-478.62 93.04,-478.62 93.04,-466.62 93.04,-466.62 93.04,-460.62 99.04,-454.62 105.04,-454.62 105.04,-454.62 142.79,-454.62 142.79,-454.62 148.79,-454.62 154.79,-460.62 154.79,-466.62 154.79,-466.62 154.79,-478.62 154.79,-478.62 154.79,-484.62 148.79,-490.62 142.79,-490.62"/>
<text xml:space="preserve" text-anchor="middle" x="123.91" y="-474.38" font-family="Helvetica,sans-Serif" font-size="10.00">dot_export</text>
<text xml:space="preserve" text-anchor="middle" x="123.91" y="-463.12" font-family="Helvetica,sans-Serif" font-size="10.00">(Graphviz)</text>
</g>
<!-- report_exporter&#45;&gt;dot_export -->
<g id="edge18" class="edge">
<title>report_exporter&#45;&gt;dot_export</title>
<path fill="none" stroke="#888888" d="M292.61,-557.99C256.26,-554.25 205.52,-545.01 166.91,-522.25 156.55,-516.14 147.35,-506.66 140.14,-497.7"/>
<polygon fill="#888888" stroke="#888888" points="142.15,-496.29 135.96,-492.21 138.25,-499.26 142.15,-496.29"/>
</g>
<!-- reports -->
<g id="node11" class="node">
<title>reports</title>
<path fill="#f7f9fc" stroke="black" d="M228.41,-490.62C228.41,-490.62 191.41,-490.62 191.41,-490.62 185.41,-490.62 179.41,-484.62 179.41,-478.62 179.41,-478.62 179.41,-466.62 179.41,-466.62 179.41,-460.62 185.41,-454.62 191.41,-454.62 191.41,-454.62 228.41,-454.62 228.41,-454.62 234.41,-454.62 240.41,-460.62 240.41,-466.62 240.41,-466.62 240.41,-478.62 240.41,-478.62 240.41,-484.62 234.41,-490.62 228.41,-490.62"/>
<text xml:space="preserve" text-anchor="middle" x="209.91" y="-474.38" font-family="Helvetica,sans-Serif" font-size="10.00">reports</text>
<text xml:space="preserve" text-anchor="middle" x="209.91" y="-463.12" font-family="Helvetica,sans-Serif" font-size="10.00">(workload)</text>
</g>
<!-- report_exporter&#45;&gt;reports -->
<g id="edge19" class="edge">
<title>report_exporter&#45;&gt;reports</title>
<path fill="none" stroke="#888888" d="M292.73,-544.27C279.24,-538.42 264.9,-531.04 252.91,-522.25 243.5,-515.35 234.66,-506.07 227.48,-497.47"/>
<polygon fill="#888888" stroke="#888888" points="229.57,-496.16 223.27,-492.25 225.76,-499.24 229.57,-496.16"/>
</g>
<!-- company -->
<g id="node15" class="node">
<title>company</title>
<path fill="#f7f9fc" stroke="black" d="M534.79,-310C534.79,-310 503.04,-310 503.04,-310 497.04,-310 491.04,-304 491.04,-298 491.04,-298 491.04,-286 491.04,-286 491.04,-280 497.04,-274 503.04,-274 503.04,-274 534.79,-274 534.79,-274 540.79,-274 546.79,-280 546.79,-286 546.79,-286 546.79,-298 546.79,-298 546.79,-304 540.79,-310 534.79,-310"/>
<text xml:space="preserve" text-anchor="middle" x="518.91" y="-288.12" font-family="Helvetica,sans-Serif" font-size="10.00">company</text>
</g>
<!-- reports&#45;&gt;company -->
<g id="edge22" class="edge">
<title>reports&#45;&gt;company</title>
<path fill="none" stroke="#888888" d="M225.7,-454.22C249.8,-428.6 298.2,-380.68 347.91,-352 391.1,-327.09 446.49,-310.38 482.34,-301.29"/>
<polygon fill="#888888" stroke="#888888" points="482.89,-303.67 489.1,-299.61 481.71,-298.92 482.89,-303.67"/>
</g>
<!-- algorithms&#45;&gt;company -->
<g id="edge21" class="edge">
<title>algorithms&#45;&gt;company</title>
<path fill="none" stroke="#888888" d="M441.59,-359.51C456.93,-346.31 476.92,-329.12 492.73,-315.52"/>
<polygon fill="#888888" stroke="#888888" points="493.93,-317.72 497.64,-311.3 490.73,-314 493.93,-317.72"/>
</g>
<!-- persistence&#45;&gt;company -->
<g id="edge23" class="edge">
<title>persistence&#45;&gt;company</title>
<path fill="none" stroke="#888888" d="M599.96,-362.71C584.29,-349.23 562.34,-330.35 545.23,-315.64"/>
<polygon fill="#888888" stroke="#888888" points="547.22,-314.12 540.32,-311.41 544.03,-317.83 547.22,-314.12"/>
</g>
<!-- project -->
<g id="node16" class="node">
<title>project</title>
<path fill="#f7f9fc" stroke="black" d="M533.91,-224C533.91,-224 503.91,-224 503.91,-224 497.91,-224 491.91,-218 491.91,-212 491.91,-212 491.91,-200 491.91,-200 491.91,-194 497.91,-188 503.91,-188 503.91,-188 533.91,-188 533.91,-188 539.91,-188 545.91,-194 545.91,-200 545.91,-200 545.91,-212 545.91,-212 545.91,-218 539.91,-224 533.91,-224"/>
<text xml:space="preserve" text-anchor="middle" x="518.91" y="-202.12" font-family="Helvetica,sans-Serif" font-size="10.00">project</text>
</g>
<!-- company&#45;&gt;project -->
<g id="edge24" class="edge">
<title>company&#45;&gt;project</title>
<path fill="none" stroke="#888888" d="M518.91,-273.6C518.91,-261.77 518.91,-245.93 518.91,-232.66"/>
<polygon fill="#888888" stroke="#888888" points="521.36,-232.9 518.91,-225.9 516.46,-232.9 521.36,-232.9"/>
</g>
<!-- team -->
<g id="node18" class="node">
<title>team</title>
<path fill="#f7f9fc" stroke="black" d="M612.91,-224C612.91,-224 582.91,-224 582.91,-224 576.91,-224 570.91,-218 570.91,-212 570.91,-212 570.91,-200 570.91,-200 570.91,-194 576.91,-188 582.91,-188 582.91,-188 612.91,-188 612.91,-188 618.91,-188 624.91,-194 624.91,-200 624.91,-200 624.91,-212 624.91,-212 624.91,-218 618.91,-224 612.91,-224"/>
<text xml:space="preserve" text-anchor="middle" x="597.91" y="-202.12" font-family="Helvetica,sans-Serif" font-size="10.00">team</text>
</g>
<!-- company&#45;&gt;team -->
<g id="edge25" class="edge">
<title>company&#45;&gt;team</title>
<path fill="none" stroke="#888888" d="M535.28,-273.6C547.04,-261.09 563.02,-244.1 575.89,-230.41"/>
<polygon fill="#888888" stroke="#888888" points="577.52,-232.26 580.53,-225.49 573.95,-228.91 577.52,-232.26"/>
</g>
<!-- dynamic_int_array -->
<g id="node20" class="node">
<title>dynamic_int_array</title>
<path fill="#f7f9fc" stroke="black" d="M437.66,-52C437.66,-52 366.16,-52 366.16,-52 360.16,-52 354.16,-46 354.16,-40 354.16,-40 354.16,-28 354.16,-28 354.16,-22 360.16,-16 366.16,-16 366.16,-16 437.66,-16 437.66,-16 443.66,-16 449.66,-22 449.66,-28 449.66,-28 449.66,-40 449.66,-40 449.66,-46 443.66,-52 437.66,-52"/>
<text xml:space="preserve" text-anchor="middle" x="401.91" y="-30.12" font-family="Helvetica,sans-Serif" font-size="10.00">dynamic_int_array</text>
</g>
<!-- company&#45;&gt;dynamic_int_array -->
<g id="edge29" class="edge">
<title>company&#45;&gt;dynamic_int_array</title>
<path fill="none" stroke="#888888" d="M500.16,-273.52C487.52,-260.83 471.31,-242.68 460.91,-224 430.67,-169.69 413.72,-97.81 406.36,-60.27"/>
<polygon fill="#888888" stroke="#888888" points="408.86,-60.27 405.14,-53.86 404.04,-61.19 408.86,-60.27"/>
</g>
<!-- company&#45;&gt;util -->
<g id="edge30" class="edge">
<title>company&#45;&gt;util</title>
<path fill="none" stroke="#888888" d="M506.85,-273.53C482.45,-235.85 433.26,-146.1 478.91,-94 493.68,-77.14 559.15,-91.34 578.91,-80.75 588.5,-75.61 596.86,-67.19 603.41,-58.96"/>
<polygon fill="#888888" stroke="#888888" points="605.35,-60.46 607.58,-53.38 601.43,-57.52 605.35,-60.46"/>
</g>
<!-- task -->
<g id="node17" class="node">
<title>task</title>
<path fill="#f7f9fc" stroke="black" d="M532.91,-138C532.91,-138 502.91,-138 502.91,-138 496.91,-138 490.91,-132 490.91,-126 490.91,-126 490.91,-114 490.91,-114 490.91,-108 496.91,-102 502.91,-102 502.91,-102 532.91,-102 532.91,-102 538.91,-102 544.91,-108 544.91,-114 544.91,-114 544.91,-126 544.91,-126 544.91,-132 538.91,-138 532.91,-138"/>
<text xml:space="preserve" text-anchor="middle" x="517.91" y="-116.12" font-family="Helvetica,sans-Serif" font-size="10.00">task</text>
</g>
<!-- project&#45;&gt;task -->
<g id="edge26" class="edge">
<title>project&#45;&gt;task</title>
<path fill="none" stroke="#888888" d="M518.7,-187.6C518.56,-175.77 518.37,-159.93 518.22,-146.66"/>
<polygon fill="#888888" stroke="#888888" points="520.67,-146.87 518.14,-139.9 515.77,-146.92 520.67,-146.87"/>
</g>
<!-- milestone -->
<g id="node19" class="node">
<title>milestone</title>
<path fill="#f7f9fc" stroke="black" d="M615.91,-138C615.91,-138 581.91,-138 581.91,-138 575.91,-138 569.91,-132 569.91,-126 569.91,-126 569.91,-114 569.91,-114 569.91,-108 575.91,-102 581.91,-102 581.91,-102 615.91,-102 615.91,-102 621.91,-102 627.91,-108 627.91,-114 627.91,-114 627.91,-126 627.91,-126 627.91,-132 621.91,-138 615.91,-138"/>
<text xml:space="preserve" text-anchor="middle" x="598.91" y="-116.12" font-family="Helvetica,sans-Serif" font-size="10.00">milestone</text>
</g>
<!-- project&#45;&gt;milestone -->
<g id="edge27" class="edge">
<title>project&#45;&gt;milestone</title>
<path fill="none" stroke="#888888" d="M535.49,-187.6C547.39,-175.09 563.58,-158.1 576.61,-144.41"/>
<polygon fill="#888888" stroke="#888888" points="578.26,-146.24 581.31,-139.48 574.71,-142.86 578.26,-146.24"/>
</g>
<!-- task&#45;&gt;dynamic_int_array -->
<g id="edge28" class="edge">
<title>task&#45;&gt;dynamic_int_array</title>
<path fill="none" stroke="#888888" d="M492.59,-101.67C483.21,-95.18 472.53,-87.7 462.91,-80.75 452.54,-73.26 441.3,-64.9 431.33,-57.39"/>
<polygon fill="#888888" stroke="#888888" points="432.92,-55.53 425.86,-53.27 429.97,-59.44 432.92,-55.53"/>
</g>
<!-- types -->
<g id="node22" class="node">
<title>types</title>
<path fill="#f7f9fc" stroke="black" d="M554.79,-52C554.79,-52 487.04,-52 487.04,-52 481.04,-52 475.04,-46 475.04,-40 475.04,-40 475.04,-28 475.04,-28 475.04,-22 481.04,-16 487.04,-16 487.04,-16 554.79,-16 554.79,-16 560.79,-16 566.79,-22 566.79,-28 566.79,-28 566.79,-40 566.79,-40 566.79,-46 560.79,-52 554.79,-52"/>
<text xml:space="preserve" text-anchor="middle" x="520.91" y="-30.12" font-family="Helvetica,sans-Serif" font-size="10.00">types / constants</text>
</g>
<!-- task&#45;&gt;types -->
<g id="edge31" class="edge">
<title>task&#45;&gt;types</title>
<path fill="none" stroke="#888888" d="M518.53,-101.6C518.96,-89.77 519.52,-73.93 520,-60.66"/>
<polygon fill="#888888" stroke="#888888" points="522.44,-60.98 520.24,-53.9 517.54,-60.8 522.44,-60.98"/>
</g>
</g>
</svg>
