<?xml version="1.0" encoding="UTF-8" standalone="no"?>
<!DOCTYPE svg PUBLIC "-//W3C//DTD SVG 1.1//EN"
 "http://www.w3.org/Graphics/SVG/1.1/DTD/svg11.dtd">
<!-- Generated by graphviz version 15.0.0 (20260523.1842)
 -->
<!-- Title: datamodel Pages: 1 -->
<svg width="2508pt" height="333pt"
 viewBox="0.00 0.00 2508.00 333.00" xmlns="http://www.w3.org/2000/svg" xmlns:xlink="http://www.w3.org/1999/xlink">
<g id="graph0" class="graph" transform="scale(1 1) rotate(0) translate(4 328.62)">
<title>datamodel</title>
<polygon fill="white" stroke="none" points="-4,4 -4,-328.62 2504.25,-328.62 2504.25,4 -4,4"/>
<text xml:space="preserve" text-anchor="middle" x="1250.12" y="-305.43" font-family="Helvetica,sans-Serif" font-size="16.00">Project Mayhem Management &#45; Data Model</text>
<!-- Company -->
<g id="node1" class="node">
<title>Company</title>
<polygon fill="#cfe8ff" stroke="black" points="0,-13 0,-99.75 242,-99.75 242,-13 0,-13"/>
<text xml:space="preserve" text-anchor="middle" x="29" y="-52.5" font-family="Helvetica,sans-Serif" font-size="10.00">Company</text>
<polyline fill="none" stroke="black" points="58,-13 58,-99.75"/>
<text xml:space="preserve" text-anchor="start" x="66" y="-86.25" font-family="Helvetica,sans-Serif" font-size="10.00">name, save_dir</text>
<text xml:space="preserve" text-anchor="start" x="66" y="-75" font-family="Helvetica,sans-Serif" font-size="10.00">members : TeamMember** (owns)</text>
<text xml:space="preserve" text-anchor="start" x="66" y="-63.75" font-family="Helvetica,sans-Serif" font-size="10.00">projects : Project** (owns)</text>
<text xml:space="preserve" text-anchor="start" x="66" y="-52.5" font-family="Helvetica,sans-Serif" font-size="10.00">next_member_id</text>
<text xml:space="preserve" text-anchor="start" x="66" y="-41.25" font-family="Helvetica,sans-Serif" font-size="10.00">&#45;&#45;&#45; derived (not persisted) &#45;&#45;&#45;</text>
<text xml:space="preserve" text-anchor="start" x="66" y="-30" font-family="Helvetica,sans-Serif" font-size="10.00">mem_by_id : TeamMember** (id index)</text>
<text xml:space="preserve" text-anchor="start" x="66" y="-18.75" font-family="Helvetica,sans-Serif" font-size="10.00">mem_by_id_dirty</text>
</g>
<!-- Project -->
<g id="node2" class="node">
<title>Project</title>
<polygon fill="#cfe8ff" stroke="black" points="305.75,-106.75 305.75,-216 559.75,-216 559.75,-106.75 305.75,-106.75"/>
<text xml:space="preserve" text-anchor="middle" x="329.12" y="-157.5" font-family="Helvetica,sans-Serif" font-size="10.00">Project</text>
<polyline fill="none" stroke="black" points="352.5,-106.75 352.5,-216"/>
<text xml:space="preserve" text-anchor="start" x="360.5" y="-202.5" font-family="Helvetica,sans-Serif" font-size="10.00">name, save_dir, start_date : Date</text>
<text xml:space="preserve" text-anchor="start" x="360.5" y="-191.25" font-family="Helvetica,sans-Serif" font-size="10.00">start_node, end_node : Task* (sentinels)</text>
<text xml:space="preserve" text-anchor="start" x="360.5" y="-180" font-family="Helvetica,sans-Serif" font-size="10.00">tasks : Task** (owns)</text>
<text xml:space="preserve" text-anchor="start" x="360.5" y="-168.75" font-family="Helvetica,sans-Serif" font-size="10.00">milestones : Milestone** (owns)</text>
<text xml:space="preserve" text-anchor="start" x="360.5" y="-157.5" font-family="Helvetica,sans-Serif" font-size="10.00">member_ids : DynamicIntArray (roster, IDs)</text>
<text xml:space="preserve" text-anchor="start" x="360.5" y="-146.25" font-family="Helvetica,sans-Serif" font-size="10.00">next_task_id, next_milestone_id</text>
<text xml:space="preserve" text-anchor="start" x="360.5" y="-135" font-family="Helvetica,sans-Serif" font-size="10.00">&#45;&#45;&#45; derived (not persisted) &#45;&#45;&#45;</text>
<text xml:space="preserve" text-anchor="start" x="360.5" y="-123.75" font-family="Helvetica,sans-Serif" font-size="10.00">by_id : Task** (id index)</text>
<text xml:space="preserve" text-anchor="start" x="360.5" y="-112.5" font-family="Helvetica,sans-Serif" font-size="10.00">by_id_dirty</text>
</g>
<!-- Company&#45;&gt;Project -->
<g id="edge2" class="edge">
<title>Company&#45;&gt;Project</title>
<path fill="none" stroke="#555555" d="M242.2,-97.12C258.9,-102.78 276.16,-108.63 293.15,-114.39"/>
<polygon fill="#555555" stroke="#555555" points="293.25,-114.43 300.22,-112.56 304.62,-118.28 297.65,-120.14 293.25,-114.43"/>
<text xml:space="preserve" text-anchor="middle" x="273.88" y="-113.22" font-family="Helvetica,sans-Serif" font-size="9.00">owns *</text>
</g>
<!-- TeamMember -->
<g id="node5" class="node">
<title>TeamMember</title>
<polygon fill="#f7f9fc" stroke="black" points="1325,-60.88 1325,-113.88 1546,-113.88 1546,-60.88 1325,-60.88"/>
<text xml:space="preserve" text-anchor="middle" x="1362.62" y="-83.5" font-family="Helvetica,sans-Serif" font-size="10.00">TeamMember</text>
<polyline fill="none" stroke="black" points="1400.25,-60.88 1400.25,-113.88"/>
<text xml:space="preserve" text-anchor="start" x="1408.25" y="-100.38" font-family="Helvetica,sans-Serif" font-size="10.00">id, name, role (&#45;&gt; roles.cfg)</text>
<text xml:space="preserve" text-anchor="start" x="1408.25" y="-89.12" font-family="Helvetica,sans-Serif" font-size="10.00">skills (bitmask), availability</text>
<text xml:space="preserve" text-anchor="start" x="1408.25" y="-77.88" font-family="Helvetica,sans-Serif" font-size="10.00">&#45;&#45;&#45; derived (not persisted) &#45;&#45;&#45;</text>
<text xml:space="preserve" text-anchor="start" x="1408.25" y="-66.62" font-family="Helvetica,sans-Serif" font-size="10.00">project_ids : DynamicIntArray</text>
</g>
<!-- Company&#45;&gt;TeamMember -->
<g id="edge1" class="edge">
<title>Company&#45;&gt;TeamMember</title>
<path fill="none" stroke="#555555" d="M242.25,-56.38C299.62,-56.38 369.24,-56.38 431.75,-56.38 431.75,-56.38 431.75,-56.38 1049,-56.38 1137.07,-56.38 1236.09,-64.51 1311.72,-72.45"/>
<polygon fill="#555555" stroke="#555555" points="1311.77,-72.46 1318.16,-69.11 1323.71,-73.73 1317.32,-77.07 1311.77,-72.46"/>
<text xml:space="preserve" text-anchor="middle" x="717.5" y="-57.58" font-family="Helvetica,sans-Serif" font-size="9.00">owns *</text>
</g>
<!-- Company&#45;&gt;TeamMember -->
<g id="edge10" class="edge">
<title>Company&#45;&gt;TeamMember</title>
<path fill="none" stroke="#3a8a3a" stroke-dasharray="1,5" d="M242.38,-30.08C299.47,-19.78 368.82,-10.38 431.75,-10.38 431.75,-10.38 431.75,-10.38 1049,-10.38 1140.83,-10.38 1161.45,-33.4 1251.5,-51.38 1271.55,-55.38 1292.85,-59.6 1313.55,-63.68"/>
<polygon fill="#3a8a3a" stroke="#3a8a3a" points="1312.67,-67.07 1323.16,-65.57 1314.03,-60.21 1312.67,-67.07"/>
<text xml:space="preserve" text-anchor="middle" x="717.5" y="-11.57" font-family="Helvetica,sans-Serif" font-size="9.00">mem_by_id (O(1))</text>
</g>
<!-- Task -->
<g id="node3" class="node">
<title>Task</title>
<polygon fill="#f7f9fc" stroke="black" points="930.75,-122.5 930.75,-254.25 1165.25,-254.25 1165.25,-122.5 930.75,-122.5"/>
<text xml:space="preserve" text-anchor="middle" x="949.25" y="-184.5" font-family="Helvetica,sans-Serif" font-size="10.00">Task</text>
<polyline fill="none" stroke="black" points="967.75,-122.5 967.75,-254.25"/>
<text xml:space="preserve" text-anchor="start" x="975.75" y="-240.75" font-family="Helvetica,sans-Serif" font-size="10.00">id, title, description, status</text>
<text xml:space="preserve" text-anchor="start" x="975.75" y="-229.5" font-family="Helvetica,sans-Serif" font-size="10.00">pert_min/likely/max/expected/variance</text>
<text xml:space="preserve" text-anchor="start" x="975.75" y="-218.25" font-family="Helvetica,sans-Serif" font-size="10.00">risk, required_skills (bitmask)</text>
<text xml:space="preserve" text-anchor="start" x="975.75" y="-207" font-family="Helvetica,sans-Serif" font-size="10.00">pre_ids / post_ids / alt_ids / work_pre_ids</text>
<text xml:space="preserve" text-anchor="start" x="975.75" y="-195.75" font-family="Helvetica,sans-Serif" font-size="10.00"> : DynamicIntArray (owns 4)</text>
<text xml:space="preserve" text-anchor="start" x="975.75" y="-184.5" font-family="Helvetica,sans-Serif" font-size="10.00">assignee_id, manually_assigned</text>
<text xml:space="preserve" text-anchor="start" x="975.75" y="-173.25" font-family="Helvetica,sans-Serif" font-size="10.00">fixed_time (immovable: vacation)</text>
<text xml:space="preserve" text-anchor="start" x="975.75" y="-162" font-family="Helvetica,sans-Serif" font-size="10.00">milestone_id</text>
<text xml:space="preserve" text-anchor="start" x="975.75" y="-150.75" font-family="Helvetica,sans-Serif" font-size="10.00">&#45;&#45;&#45; set by scheduler &#45;&#45;&#45;</text>
<text xml:space="preserve" text-anchor="start" x="975.75" y="-139.5" font-family="Helvetica,sans-Serif" font-size="10.00">sched_start/end, latest_start, slack</text>
<text xml:space="preserve" text-anchor="start" x="975.75" y="-128.25" font-family="Helvetica,sans-Serif" font-size="10.00">is_critical, topo_order, min_start</text>
</g>
<!-- Project&#45;&gt;Task -->
<g id="edge3" class="edge">
<title>Project&#45;&gt;Task</title>
<path fill="none" stroke="#555555" d="M560.01,-152.46C581.2,-151.28 602.96,-150.26 623.5,-149.62 707.02,-147.04 728.22,-142.82 811.5,-149.62 846.17,-152.46 883.42,-157.6 917.83,-163.23"/>
<polygon fill="#555555" stroke="#555555" points="917.65,-163.2 924.23,-160.24 929.49,-165.18 922.91,-168.13 917.65,-163.2"/>
<text xml:space="preserve" text-anchor="middle" x="717.5" y="-150.82" font-family="Helvetica,sans-Serif" font-size="9.00">owns * + 2 sentinels</text>
</g>
<!-- Project&#45;&gt;Task -->
<g id="edge11" class="edge">
<title>Project&#45;&gt;Task</title>
<path fill="none" stroke="#3a8a3a" stroke-dasharray="1,5" d="M560.14,-205.66C581.07,-211.35 602.72,-216.27 623.5,-219.38 722.24,-234.13 835.02,-224.6 919.36,-212.35"/>
<polygon fill="#3a8a3a" stroke="#3a8a3a" points="919.67,-215.84 929.04,-210.91 918.64,-208.92 919.67,-215.84"/>
<text xml:space="preserve" text-anchor="middle" x="717.5" y="-228.07" font-family="Helvetica,sans-Serif" font-size="9.00">by_id (O(1))</text>
</g>
<!-- Milestone -->
<g id="node4" class="node">
<title>Milestone</title>
<polygon fill="#f7f9fc" stroke="black" points="623.5,-168.5 623.5,-210.25 811.5,-210.25 811.5,-168.5 623.5,-168.5"/>
<text xml:space="preserve" text-anchor="middle" x="652.5" y="-185.5" font-family="Helvetica,sans-Serif" font-size="10.00">Milestone</text>
<polyline fill="none" stroke="black" points="681.5,-168.5 681.5,-210.25"/>
<text xml:space="preserve" text-anchor="start" x="689.5" y="-196.75" font-family="Helvetica,sans-Serif" font-size="10.00">id, name</text>
<text xml:space="preserve" text-anchor="start" x="689.5" y="-185.5" font-family="Helvetica,sans-Serif" font-size="10.00">deadline_day, priority</text>
<text xml:space="preserve" text-anchor="start" x="689.5" y="-174.25" font-family="Helvetica,sans-Serif" font-size="10.00">task_ids : int*, task_count</text>
</g>
<!-- Project&#45;&gt;Milestone -->
<g id="edge4" class="edge">
<title>Project&#45;&gt;Milestone</title>
<path fill="none" stroke="#555555" d="M560.24,-173.9C576.95,-175.56 593.93,-177.24 610.25,-178.85"/>
<polygon fill="#555555" stroke="#555555" points="610.34,-178.86 616.71,-175.47 622.29,-180.05 615.92,-183.43 610.34,-178.86"/>
<text xml:space="preserve" text-anchor="middle" x="591.62" y="-179.08" font-family="Helvetica,sans-Serif" font-size="9.00">owns *</text>
</g>
<!-- Project&#45;&gt;TeamMember -->
<g id="edge8" class="edge">
<title>Project&#45;&gt;TeamMember</title>
<path fill="none" stroke="#999999" stroke-dasharray="5,2" d="M560.17,-148.13C566.12,-147.53 572,-146.94 577.75,-146.38 734.56,-130.88 773.59,-124.77 930.75,-113.38 1061.45,-103.9 1211.47,-96.62 1313.57,-92.2"/>
<polygon fill="#999999" stroke="#999999" points="1313.5,-95.71 1323.34,-91.78 1313.2,-88.71 1313.5,-95.71"/>
<text xml:space="preserve" text-anchor="middle" x="871.12" y="-122.47" font-family="Helvetica,sans-Serif" font-size="9.00">roster by id &#160;(master)</text>
</g>
<!-- DynamicIntArray -->
<g id="node6" class="node">
<title>DynamicIntArray</title>
<polygon fill="#fff4e6" stroke="black" points="1774,-231.5 1774,-273.25 2023.5,-273.25 2023.5,-231.5 1774,-231.5"/>
<text xml:space="preserve" text-anchor="middle" x="1818.75" y="-248.5" font-family="Helvetica,sans-Serif" font-size="10.00">DynamicIntArray</text>
<polyline fill="none" stroke="black" points="1863.5,-231.5 1863.5,-273.25"/>
<text xml:space="preserve" text-anchor="start" x="1871.5" y="-259.75" font-family="Helvetica,sans-Serif" font-size="10.00">data : int*</text>
<text xml:space="preserve" text-anchor="start" x="1871.5" y="-248.5" font-family="Helvetica,sans-Serif" font-size="10.00">count, capacity (doubling growth)</text>
<text xml:space="preserve" text-anchor="start" x="1871.5" y="-237.25" font-family="Helvetica,sans-Serif" font-size="10.00">sort_insert / find_index (bsearch)</text>
</g>
<!-- Project&#45;&gt;DynamicIntArray -->
<g id="edge6" class="edge">
<title>Project&#45;&gt;DynamicIntArray</title>
<path fill="none" stroke="#555555" stroke-dasharray="5,2" d="M508.19,-216.46C562.93,-251.52 640.69,-290.38 716.5,-290.38 716.5,-290.38 716.5,-290.38 1436.5,-290.38 1546.41,-290.38 1670.56,-279.52 1762.35,-269.42"/>
<polygon fill="#555555" stroke="#555555" points="1762.61,-272.91 1772.16,-268.33 1761.84,-265.96 1762.61,-272.91"/>
<text xml:space="preserve" text-anchor="middle" x="1048" y="-291.57" font-family="Helvetica,sans-Serif" font-size="9.00">member_ids (roster)</text>
</g>
<!-- Task&#45;&gt;TeamMember -->
<g id="edge9" class="edge">
<title>Task&#45;&gt;TeamMember</title>
<path fill="none" stroke="#999999" stroke-dasharray="5,2" d="M1165.64,-149.18C1193.6,-140.43 1223.48,-131.61 1251.5,-124.38 1271.45,-119.22 1292.78,-114.34 1313.57,-109.93"/>
<polygon fill="#999999" stroke="#999999" points="1314.17,-113.38 1323.24,-107.9 1312.73,-106.53 1314.17,-113.38"/>
<text xml:space="preserve" text-anchor="middle" x="1208.38" y="-144.68" font-family="Helvetica,sans-Serif" font-size="9.00">assignee_id</text>
</g>
<!-- Task&#45;&gt;DynamicIntArray -->
<g id="edge5" class="edge">
<title>Task&#45;&gt;DynamicIntArray</title>
<path fill="none" stroke="#555555" d="M1165.53,-217.55C1171.51,-218.61 1177.44,-219.56 1183.25,-220.38 1382.74,-248.36 1616.32,-253.73 1760.68,-253.9"/>
<polygon fill="#555555" stroke="#555555" points="1760.6,-253.9 1766.6,-249.91 1772.6,-253.91 1766.6,-257.91 1760.6,-253.9"/>
<text xml:space="preserve" text-anchor="middle" x="1435.5" y="-253.09" font-family="Helvetica,sans-Serif" font-size="9.00">4x dep lists</text>
</g>
<!-- TaskStatus -->
<g id="node10" class="node">
<title>TaskStatus</title>
<polygon fill="#eeeeee" stroke="black" points="1301,-133.38 1301,-169.38 1570,-169.38 1570,-133.38 1301,-133.38"/>
<text xml:space="preserve" text-anchor="middle" x="1359.25" y="-147.75" font-family="Helvetica,sans-Serif" font-size="10.00">TaskStatus &lt;&lt;enum&gt;&gt;</text>
<polyline fill="none" stroke="black" points="1417.5,-133.88 1417.5,-169.38"/>
<text xml:space="preserve" text-anchor="start" x="1425.5" y="-153.38" font-family="Helvetica,sans-Serif" font-size="10.00">TODO IN_PROGRESS DONE</text>
<text xml:space="preserve" text-anchor="start" x="1425.5" y="-142.12" font-family="Helvetica,sans-Serif" font-size="10.00">CANCELLED BLOCKED</text>
</g>
<!-- Task&#45;&gt;TaskStatus -->
<g id="edge12" class="edge">
<title>Task&#45;&gt;TaskStatus</title>
<path fill="none" stroke="#888888" stroke-dasharray="5,2" d="M1165.71,-177.17C1204.6,-173.44 1248.41,-169.24 1289.2,-165.32"/>
<polygon fill="#888888" stroke="#888888" points="1289.49,-168.81 1299.11,-164.37 1288.82,-161.84 1289.49,-168.81"/>
</g>
<!-- Skill -->
<g id="node11" class="node">
<title>Skill</title>
<polygon fill="#eeeeee" stroke="black" points="1739.5,-98.38 1739.5,-134.38 2058,-134.38 2058,-98.38 1739.5,-98.38"/>
<text xml:space="preserve" text-anchor="middle" x="1801.12" y="-112.75" font-family="Helvetica,sans-Serif" font-size="10.00">Skill &lt;&lt;enum bitmask&gt;&gt;</text>
<polyline fill="none" stroke="black" points="1862.75,-98.88 1862.75,-134.38"/>
<text xml:space="preserve" text-anchor="start" x="1870.75" y="-118.38" font-family="Helvetica,sans-Serif" font-size="10.00">FRONTEND BACKEND HARDWARE</text>
<text xml:space="preserve" text-anchor="start" x="1870.75" y="-107.12" font-family="Helvetica,sans-Serif" font-size="10.00">EMBEDDED QA DEVOPS DESIGN PM</text>
</g>
<!-- Task&#45;&gt;Skill -->
<g id="edge13" class="edge">
<title>Task&#45;&gt;Skill</title>
<path fill="none" stroke="#888888" stroke-dasharray="5,2" d="M1165.51,-197.68C1300.48,-205.87 1528.96,-211.78 1721.5,-177.38 1764.69,-169.66 1811.53,-153.02 1846.06,-139.07"/>
<polygon fill="#888888" stroke="#888888" points="1847.04,-142.45 1854.96,-135.42 1844.38,-135.98 1847.04,-142.45"/>
<text xml:space="preserve" text-anchor="middle" x="1435.5" y="-205.18" font-family="Helvetica,sans-Serif" font-size="9.00">required_skills</text>
</g>
<!-- Milestone&#45;&gt;Task -->
<g id="edge15" class="edge">
<title>Milestone&#45;&gt;Task</title>
<path fill="none" stroke="#999999" stroke-dasharray="5,2" d="M811.76,-189.09C845.05,-188.99 883.16,-188.87 918.87,-188.77"/>
<polygon fill="#999999" stroke="#999999" points="918.87,-192.27 928.86,-188.73 918.85,-185.27 918.87,-192.27"/>
<text xml:space="preserve" text-anchor="middle" x="871.12" y="-190.22" font-family="Helvetica,sans-Serif" font-size="9.00">task_ids (IDs)</text>
</g>
<!-- TeamMember&#45;&gt;DynamicIntArray -->
<g id="edge7" class="edge">
<title>TeamMember&#45;&gt;DynamicIntArray</title>
<path fill="none" stroke="#555555" stroke-dasharray="5,2" d="M1546.44,-105.3C1570.77,-110.45 1596.23,-116.79 1619.5,-124.38 1703.08,-151.64 1794.77,-197.08 1849.23,-225.85"/>
<polygon fill="#555555" stroke="#555555" points="1847.47,-228.88 1857.94,-230.48 1850.76,-222.7 1847.47,-228.88"/>
<text xml:space="preserve" text-anchor="middle" x="1679.5" y="-165.07" font-family="Helvetica,sans-Serif" font-size="9.00">project_ids (derived)</text>
</g>
<!-- Role -->
<g id="node7" class="node">
<title>Role</title>
<polygon fill="#e6ffe6" stroke="black" points="1751.88,-30.38 1751.88,-66.38 2045.62,-66.38 2045.62,-30.38 1751.88,-30.38"/>
<text xml:space="preserve" text-anchor="middle" x="1820.62" y="-44.75" font-family="Helvetica,sans-Serif" font-size="10.00">Role (parsed from roles.cfg)</text>
<polyline fill="none" stroke="black" points="1889.38,-30.88 1889.38,-66.38"/>
<text xml:space="preserve" text-anchor="start" x="1897.38" y="-50.38" font-family="Helvetica,sans-Serif" font-size="10.00">name</text>
<text xml:space="preserve" text-anchor="start" x="1897.38" y="-39.12" font-family="Helvetica,sans-Serif" font-size="10.00">privs : uint32 (Privilege bitmask)</text>
</g>
<!-- TeamMember&#45;&gt;Role -->
<g id="edge16" class="edge">
<title>TeamMember&#45;&gt;Role</title>
<path fill="none" stroke="#3a8a3a" stroke-dasharray="5,2" d="M1546.39,-78.08C1604.34,-73.18 1676.43,-67.09 1740.22,-61.7"/>
<polygon fill="#3a8a3a" stroke="#3a8a3a" points="1740.43,-65.19 1750.1,-60.86 1739.84,-58.21 1740.43,-65.19"/>
<text xml:space="preserve" text-anchor="middle" x="1679.5" y="-71.41" font-family="Helvetica,sans-Serif" font-size="9.00">role name</text>
</g>
<!-- TeamMember&#45;&gt;Skill -->
<g id="edge14" class="edge">
<title>TeamMember&#45;&gt;Skill</title>
<path fill="none" stroke="#888888" stroke-dasharray="5,2" d="M1546.39,-94.28C1600.7,-97.7 1667.45,-101.9 1728.13,-105.71"/>
<polygon fill="#888888" stroke="#888888" points="1727.67,-109.19 1737.87,-106.32 1728.11,-102.2 1727.67,-109.19"/>
<text xml:space="preserve" text-anchor="middle" x="1679.5" y="-105.67" font-family="Helvetica,sans-Serif" font-size="9.00">skills</text>
</g>
<!-- Privilege -->
<g id="node8" class="node">
<title>Privilege</title>
<polygon fill="#e6ffe6" stroke="black" points="2113.5,-27.5 2113.5,-69.25 2500.25,-69.25 2500.25,-27.5 2113.5,-27.5"/>
<text xml:space="preserve" text-anchor="middle" x="2184.5" y="-44.5" font-family="Helvetica,sans-Serif" font-size="10.00">Privilege &lt;&lt;enum bitmask&gt;&gt;</text>
<polyline fill="none" stroke="black" points="2255.5,-27.5 2255.5,-69.25"/>
<text xml:space="preserve" text-anchor="start" x="2263.5" y="-55.75" font-family="Helvetica,sans-Serif" font-size="10.00">VIEW_OWN VIEW_PROJECT VIEW_PORTFOLIO</text>
<text xml:space="preserve" text-anchor="start" x="2263.5" y="-44.5" font-family="Helvetica,sans-Serif" font-size="10.00">EDIT_TASK EDIT_DEPS ASSIGN</text>
<text xml:space="preserve" text-anchor="start" x="2263.5" y="-33.25" font-family="Helvetica,sans-Serif" font-size="10.00">SCHEDULE REPORT ADMIN(=all)</text>
</g>
<!-- Role&#45;&gt;Privilege -->
<g id="edge17" class="edge">
<title>Role&#45;&gt;Privilege</title>
<path fill="none" stroke="#3a8a3a" stroke-dasharray="5,2" d="M2046.08,-48.38C2064.24,-48.38 2083.05,-48.38 2101.88,-48.38"/>
<polygon fill="#3a8a3a" stroke="#3a8a3a" points="2101.76,-51.88 2111.76,-48.38 2101.76,-44.88 2101.76,-51.88"/>
<text xml:space="preserve" text-anchor="middle" x="2085.75" y="-49.58" font-family="Helvetica,sans-Serif" font-size="9.00">privs</text>
</g>
<!-- Session -->
<g id="node9" class="node">
<title>Session</title>
<polygon fill="#e6ffe6" stroke="black" points="1251.5,-0.5 1251.5,-42.25 1619.5,-42.25 1619.5,-0.5 1251.5,-0.5"/>
<text xml:space="preserve" text-anchor="middle" x="1340.5" y="-17.5" font-family="Helvetica,sans-Serif" font-size="10.00">Session role (module state in roles.c)</text>
<polyline fill="none" stroke="black" points="1429.5,-0.5 1429.5,-42.25"/>
<text xml:space="preserve" text-anchor="start" x="1437.5" y="-28.75" font-family="Helvetica,sans-Serif" font-size="10.00">g_privs : uint32</text>
<text xml:space="preserve" text-anchor="start" x="1437.5" y="-17.5" font-family="Helvetica,sans-Serif" font-size="10.00">g_role_name</text>
<text xml:space="preserve" text-anchor="start" x="1437.5" y="-6.25" font-family="Helvetica,sans-Serif" font-size="10.00">priv_has / priv_require gate every action</text>
</g>
<!-- Session&#45;&gt;Role -->
<g id="edge18" class="edge">
<title>Session&#45;&gt;Role</title>
<path fill="none" stroke="#3a8a3a" stroke-dasharray="5,2" d="M1619.8,-25.49C1653.64,-26.77 1688.65,-28.44 1721.5,-30.62 1727.64,-31.03 1733.89,-31.49 1740.21,-31.97"/>
<polygon fill="#3a8a3a" stroke="#3a8a3a" points="1739.87,-35.46 1750.12,-32.77 1740.43,-28.48 1739.87,-35.46"/>
<text xml:space="preserve" text-anchor="middle" x="1679.5" y="-31.82" font-family="Helvetica,sans-Serif" font-size="9.00">current</text>
</g>
</g>
</svg>
