<?xml version="1.0" encoding="UTF-8" standalone="no"?>
<!DOCTYPE svg PUBLIC "-//W3C//DTD SVG 1.1//EN"
 "http://www.w3.org/Graphics/SVG/1.1/DTD/svg11.dtd">
<!-- Generated by graphviz version 15.0.0 (20260523.1842)
 -->
<!-- Title: future Pages: 1 -->
<svg width="1234pt" height="810pt"
 viewBox="0.00 0.00 1234.00 810.00" xmlns="http://www.w3.org/2000/svg" xmlns:xlink="http://www.w3.org/1999/xlink">
<g id="graph0" class="graph" transform="scale(1 1) rotate(0) translate(4 805.5)">
<title>future</title>
<polygon fill="white" stroke="none" points="-4,4 -4,-805.5 1230,-805.5 1230,4 -4,4"/>
<text xml:space="preserve" text-anchor="middle" x="613" y="-782.3" font-family="Helvetica,sans-Serif" font-size="16.00">Project Mayhem Management &#45; Future&#45;State Architecture (PLANNED, not yet built)</text>
<g id="clust1" class="cluster">
<title>cluster_legend</title>
<polygon fill="none" stroke="#bbbbbb" stroke-dasharray="5,2" points="13,-599.38 13,-769 199,-769 199,-599.38 13,-599.38"/>
<text xml:space="preserve" text-anchor="middle" x="106" y="-755.5" font-family="Helvetica,sans-Serif" font-size="10.00">Legend</text>
</g>
<g id="clust2" class="cluster">
<title>cluster_model</title>
<polygon fill="#f3fff3" stroke="#3a8a3a" stroke-dasharray="5,2" points="212,-425.12 212,-678.75 430,-678.75 430,-425.12 212,-425.12"/>
<text xml:space="preserve" text-anchor="middle" x="321" y="-659.55" font-family="Helvetica,sans-Serif" font-size="16.00">Unified model build (NEW)</text>
</g>
<g id="clust3" class="cluster">
<title>cluster_sched</title>
<polygon fill="#fff4e6" stroke="#fff4e6" points="8,-65 8,-403.25 444,-403.25 444,-65 8,-65"/>
<text xml:space="preserve" text-anchor="middle" x="226" y="-384.05" font-family="Helvetica,sans-Serif" font-size="16.00">Company&#45;scale scheduler (CPM reused at portfolio scope)</text>
</g>
<g id="clust4" class="cluster">
<title>cluster_staff</title>
<polygon fill="none" stroke="#999999" stroke-dasharray="5,2" points="452,-225.5 452,-307.75 872,-307.75 872,-225.5 452,-225.5"/>
<text xml:space="preserve" text-anchor="middle" x="662" y="-288.55" font-family="Helvetica,sans-Serif" font-size="16.00">Staffing options &#45;&gt; assignment</text>
</g>
<g id="clust5" class="cluster">
<title>cluster_preempt</title>
<polygon fill="#f3fff3" stroke="#3a8a3a" stroke-dasharray="5,2" points="880,-143.75 880,-504.5 1218,-504.5 1218,-143.75 880,-143.75"/>
<text xml:space="preserve" text-anchor="middle" x="1049" y="-485.3" font-family="Helvetica,sans-Serif" font-size="16.00">Preemption layer (NEW &#45; Subtask segments)</text>
</g>
<!-- L1 -->
<g id="node1" class="node">
<title>L1</title>
<path fill="#eef4ff" stroke="black" d="M178.5,-741.75C178.5,-741.75 33.5,-741.75 33.5,-741.75 27.5,-741.75 21.5,-735.75 21.5,-729.75 21.5,-729.75 21.5,-717.75 21.5,-717.75 21.5,-711.75 27.5,-705.75 33.5,-705.75 33.5,-705.75 178.5,-705.75 178.5,-705.75 184.5,-705.75 190.5,-711.75 190.5,-717.75 190.5,-717.75 190.5,-729.75 190.5,-729.75 190.5,-735.75 184.5,-741.75 178.5,-741.75"/>
<text xml:space="preserve" text-anchor="middle" x="106" y="-719.88" font-family="Helvetica,sans-Serif" font-size="10.00">exists today (reused at new scope)</text>
</g>
<!-- L2 -->
<g id="node2" class="node">
<title>L2</title>
<path fill="#e6ffe6" stroke="#3a8a3a" stroke-dasharray="5,2" d="M135.38,-643.38C135.38,-643.38 76.62,-643.38 76.62,-643.38 70.62,-643.38 64.62,-637.38 64.62,-631.38 64.62,-631.38 64.62,-619.38 64.62,-619.38 64.62,-613.38 70.62,-607.38 76.62,-607.38 76.62,-607.38 135.38,-607.38 135.38,-607.38 141.38,-607.38 147.38,-613.38 147.38,-619.38 147.38,-619.38 147.38,-631.38 147.38,-631.38 147.38,-637.38 141.38,-643.38 135.38,-643.38"/>
<text xml:space="preserve" text-anchor="middle" x="106" y="-621.5" font-family="Helvetica,sans-Serif" font-size="10.00">NEW / planned</text>
</g>
<!-- L1&#45;&gt;L2 -->
<!-- Company -->
<g id="node3" class="node">
<title>Company</title>
<path fill="#cfe8ff" stroke="black" d="M394.62,-741.75C394.62,-741.75 247.38,-741.75 247.38,-741.75 241.38,-741.75 235.38,-735.75 235.38,-729.75 235.38,-729.75 235.38,-717.75 235.38,-717.75 235.38,-711.75 241.38,-705.75 247.38,-705.75 247.38,-705.75 394.62,-705.75 394.62,-705.75 400.62,-705.75 406.62,-711.75 406.62,-717.75 406.62,-717.75 406.62,-729.75 406.62,-729.75 406.62,-735.75 400.62,-741.75 394.62,-741.75"/>
<text xml:space="preserve" text-anchor="middle" x="321" y="-725.5" font-family="Helvetica,sans-Serif" font-size="10.00">Company</text>
<text xml:space="preserve" text-anchor="middle" x="321" y="-714.25" font-family="Helvetica,sans-Serif" font-size="10.00">ALL projects + shared member pool</text>
</g>
<!-- U1 -->
<g id="node4" class="node">
<title>U1</title>
<path fill="#e6ffe6" stroke="black" d="M409.62,-646.25C409.62,-646.25 232.38,-646.25 232.38,-646.25 226.38,-646.25 220.38,-640.25 220.38,-634.25 220.38,-634.25 220.38,-616.5 220.38,-616.5 220.38,-610.5 226.38,-604.5 232.38,-604.5 232.38,-604.5 409.62,-604.5 409.62,-604.5 415.62,-604.5 421.62,-610.5 421.62,-616.5 421.62,-616.5 421.62,-634.25 421.62,-634.25 421.62,-640.25 415.62,-646.25 409.62,-646.25"/>
<text xml:space="preserve" text-anchor="middle" x="321" y="-632.75" font-family="Helvetica,sans-Serif" font-size="10.00">combine ALL projects &#45;&gt;</text>
<text xml:space="preserve" text-anchor="middle" x="321" y="-621.5" font-family="Helvetica,sans-Serif" font-size="10.00">one task set on an ABSOLUTE timeline</text>
<text xml:space="preserve" text-anchor="middle" x="321" y="-610.25" font-family="Helvetica,sans-Serif" font-size="10.00">(anchor: date_to_days(start_date) + offset)</text>
</g>
<!-- Company&#45;&gt;U1 -->
<g id="edge4" class="edge">
<title>Company&#45;&gt;U1</title>
<path fill="none" stroke="#555555" d="M321,-705.52C321,-692.32 321,-673.74 321,-657.9"/>
<polygon fill="#555555" stroke="#555555" points="324.5,-657.97 321,-647.97 317.5,-657.97 324.5,-657.97"/>
</g>
<!-- U2 -->
<g id="node5" class="node">
<title>U2</title>
<path fill="#e6ffe6" stroke="black" d="M380.75,-567.5C380.75,-567.5 261.25,-567.5 261.25,-567.5 255.25,-567.5 249.25,-561.5 249.25,-555.5 249.25,-555.5 249.25,-543.5 249.25,-543.5 249.25,-537.5 255.25,-531.5 261.25,-531.5 261.25,-531.5 380.75,-531.5 380.75,-531.5 386.75,-531.5 392.75,-537.5 392.75,-543.5 392.75,-543.5 392.75,-555.5 392.75,-555.5 392.75,-561.5 386.75,-567.5 380.75,-567.5"/>
<text xml:space="preserve" text-anchor="middle" x="321" y="-551.25" font-family="Helvetica,sans-Serif" font-size="10.00">global resource set</text>
<text xml:space="preserve" text-anchor="middle" x="321" y="-540" font-family="Helvetica,sans-Serif" font-size="10.00">(members = one shared pool)</text>
</g>
<!-- U1&#45;&gt;U2 -->
<g id="edge2" class="edge">
<title>U1&#45;&gt;U2</title>
<path fill="none" stroke="#555555" d="M321,-604.19C321,-596.41 321,-587.37 321,-578.95"/>
<polygon fill="#555555" stroke="#555555" points="324.5,-579.17 321,-569.17 317.5,-579.17 324.5,-579.17"/>
</g>
<!-- U3 -->
<g id="node6" class="node">
<title>U3</title>
<path fill="#e6ffe6" stroke="black" d="M399.12,-469.12C399.12,-469.12 242.88,-469.12 242.88,-469.12 236.88,-469.12 230.88,-463.12 230.88,-457.12 230.88,-457.12 230.88,-445.12 230.88,-445.12 230.88,-439.12 236.88,-433.12 242.88,-433.12 242.88,-433.12 399.12,-433.12 399.12,-433.12 405.12,-433.12 411.12,-439.12 411.12,-445.12 411.12,-445.12 411.12,-457.12 411.12,-457.12 411.12,-463.12 405.12,-469.12 399.12,-469.12"/>
<text xml:space="preserve" text-anchor="middle" x="321" y="-452.88" font-family="Helvetica,sans-Serif" font-size="10.00">cross&#45;project work_pre edges</text>
<text xml:space="preserve" text-anchor="middle" x="321" y="-441.62" font-family="Helvetica,sans-Serif" font-size="10.00">keyed by TaskRef(project_id, task_id)</text>
</g>
<!-- U2&#45;&gt;U3 -->
<g id="edge3" class="edge">
<title>U2&#45;&gt;U3</title>
<path fill="none" stroke="#555555" d="M321,-531.27C321,-517.24 321,-497.14 321,-480.71"/>
<polygon fill="#555555" stroke="#555555" points="324.5,-481.04 321,-471.04 317.5,-481.04 324.5,-481.04"/>
</g>
<!-- G1 -->
<g id="node7" class="node">
<title>G1</title>
<path fill="#eef4ff" stroke="black" d="M424.25,-370.75C424.25,-370.75 217.75,-370.75 217.75,-370.75 211.75,-370.75 205.75,-364.75 205.75,-358.75 205.75,-358.75 205.75,-346.75 205.75,-346.75 205.75,-340.75 211.75,-334.75 217.75,-334.75 217.75,-334.75 424.25,-334.75 424.25,-334.75 430.25,-334.75 436.25,-340.75 436.25,-346.75 436.25,-346.75 436.25,-358.75 436.25,-358.75 436.25,-364.75 430.25,-370.75 424.25,-370.75"/>
<text xml:space="preserve" text-anchor="middle" x="321" y="-354.5" font-family="Helvetica,sans-Serif" font-size="10.00">global topo_sort</text>
<text xml:space="preserve" text-anchor="middle" x="321" y="-343.25" font-family="Helvetica,sans-Serif" font-size="10.00">(within&#45;project DAGs = independent components)</text>
</g>
<!-- U3&#45;&gt;G1 -->
<g id="edge8" class="edge">
<title>U3&#45;&gt;G1</title>
<path fill="none" stroke="#555555" d="M321,-432.9C321,-418.87 321,-398.77 321,-382.33"/>
<polygon fill="#555555" stroke="#555555" points="324.5,-382.67 321,-372.67 317.5,-382.67 324.5,-382.67"/>
</g>
<!-- G2 -->
<g id="node8" class="node">
<title>G2</title>
<path fill="#eef4ff" stroke="black" d="M396.62,-275.25C396.62,-275.25 255.38,-275.25 255.38,-275.25 249.38,-275.25 243.38,-269.25 243.38,-263.25 243.38,-263.25 243.38,-245.5 243.38,-245.5 243.38,-239.5 249.38,-233.5 255.38,-233.5 255.38,-233.5 396.62,-233.5 396.62,-233.5 402.62,-233.5 408.62,-239.5 408.62,-245.5 408.62,-245.5 408.62,-263.25 408.62,-263.25 408.62,-269.25 402.62,-275.25 396.62,-275.25"/>
<text xml:space="preserve" text-anchor="middle" x="326" y="-261.75" font-family="Helvetica,sans-Serif" font-size="10.00">forward / backward pass</text>
<text xml:space="preserve" text-anchor="middle" x="326" y="-250.5" font-family="Helvetica,sans-Serif" font-size="10.00">on the absolute timeline</text>
<text xml:space="preserve" text-anchor="middle" x="326" y="-239.25" font-family="Helvetica,sans-Serif" font-size="10.00">(per&#45;task min_start hack removed)</text>
</g>
<!-- G1&#45;&gt;G2 -->
<g id="edge5" class="edge">
<title>G1&#45;&gt;G2</title>
<path fill="none" stroke="#555555" d="M321.89,-334.52C322.58,-321.32 323.54,-302.74 324.36,-286.9"/>
<polygon fill="#555555" stroke="#555555" points="327.86,-287.14 324.88,-276.97 320.87,-286.77 327.86,-287.14"/>
</g>
<!-- G3 -->
<g id="node9" class="node">
<title>G3</title>
<path fill="#eef4ff" stroke="black" d="M423.62,-187.75C423.62,-187.75 228.38,-187.75 228.38,-187.75 222.38,-187.75 216.38,-181.75 216.38,-175.75 216.38,-175.75 216.38,-163.75 216.38,-163.75 216.38,-157.75 222.38,-151.75 228.38,-151.75 228.38,-151.75 423.62,-151.75 423.62,-151.75 429.62,-151.75 435.62,-157.75 435.62,-163.75 435.62,-163.75 435.62,-175.75 435.62,-175.75 435.62,-181.75 429.62,-187.75 423.62,-187.75"/>
<text xml:space="preserve" text-anchor="middle" x="326" y="-171.5" font-family="Helvetica,sans-Serif" font-size="10.00">global assignment</text>
<text xml:space="preserve" text-anchor="middle" x="326" y="-160.25" font-family="Helvetica,sans-Serif" font-size="10.00">find_best_member over GLOBAL member load</text>
</g>
<!-- G2&#45;&gt;G3 -->
<g id="edge6" class="edge">
<title>G2&#45;&gt;G3</title>
<path fill="none" stroke="#555555" d="M326,-233.37C326,-223.2 326,-210.66 326,-199.47"/>
<polygon fill="#555555" stroke="#555555" points="329.5,-199.56 326,-189.56 322.5,-199.56 329.5,-199.56"/>
</g>
<!-- P1 -->
<g id="node14" class="node">
<title>P1</title>
<path fill="#e6ffe6" stroke="black" d="M1026.38,-472C1026.38,-472 907.62,-472 907.62,-472 901.62,-472 895.62,-466 895.62,-460 895.62,-460 895.62,-442.25 895.62,-442.25 895.62,-436.25 901.62,-430.25 907.62,-430.25 907.62,-430.25 1026.38,-430.25 1026.38,-430.25 1032.38,-430.25 1038.38,-436.25 1038.38,-442.25 1038.38,-442.25 1038.38,-460 1038.38,-460 1038.38,-466 1032.38,-472 1026.38,-472"/>
<text xml:space="preserve" text-anchor="middle" x="967" y="-458.5" font-family="Helvetica,sans-Serif" font-size="10.00">detect task straddling a</text>
<text xml:space="preserve" text-anchor="middle" x="967" y="-447.25" font-family="Helvetica,sans-Serif" font-size="10.00">vacation / member free&#45;gap</text>
<text xml:space="preserve" text-anchor="middle" x="967" y="-436" font-family="Helvetica,sans-Serif" font-size="10.00">(gap = time&#45;shared assignee)</text>
</g>
<!-- G2&#45;&gt;P1 -->
<g id="edge15" class="edge">
<title>G2&#45;&gt;P1</title>
<path fill="none" stroke="#555555" stroke-dasharray="1,5" d="M369.19,-275.64C392.27,-286.03 421.35,-298.42 448,-307.75 599.46,-360.75 781.28,-406.72 884.56,-431.23"/>
<polygon fill="#555555" stroke="#555555" points="883.53,-434.58 894.06,-433.48 885.14,-427.77 883.53,-434.58"/>
<text xml:space="preserve" text-anchor="middle" x="793.74" y="-349.07" font-family="Helvetica,sans-Serif" font-size="9.00">during pass</text>
</g>
<!-- G4 -->
<g id="node10" class="node">
<title>G4</title>
<path fill="#e6ffe6" stroke="#3a8a3a" stroke-dasharray="5,2" d="M420.5,-114.75C420.5,-114.75 239.5,-114.75 239.5,-114.75 233.5,-114.75 227.5,-108.75 227.5,-102.75 227.5,-102.75 227.5,-85 227.5,-85 227.5,-79 233.5,-73 239.5,-73 239.5,-73 420.5,-73 420.5,-73 426.5,-73 432.5,-79 432.5,-85 432.5,-85 432.5,-102.75 432.5,-102.75 432.5,-108.75 426.5,-114.75 420.5,-114.75"/>
<text xml:space="preserve" text-anchor="middle" x="330" y="-101.25" font-family="Helvetica,sans-Serif" font-size="10.00">resolve_resource_overlaps &#45;</text>
<text xml:space="preserve" text-anchor="middle" x="330" y="-90" font-family="Helvetica,sans-Serif" font-size="10.00">COMPANY&#45;WIDE, interval&#45;aware (EXACT)</text>
<text xml:space="preserve" text-anchor="middle" x="330" y="-78.75" font-family="Helvetica,sans-Serif" font-size="10.00">subsumes the coarse cross&#45;project floor</text>
</g>
<!-- G3&#45;&gt;G4 -->
<g id="edge7" class="edge">
<title>G3&#45;&gt;G4</title>
<path fill="none" stroke="#555555" d="M326.93,-151.62C327.33,-144.11 327.82,-135.07 328.29,-126.42"/>
<polygon fill="#555555" stroke="#555555" points="331.78,-126.75 328.83,-116.57 324.79,-126.37 331.78,-126.75"/>
</g>
<!-- O1 -->
<g id="node18" class="node">
<title>O1</title>
<path fill="#d8f5d8" stroke="black" d="M256,-36C256,-36 150,-36 150,-36 144,-36 138,-30 138,-24 138,-24 138,-12 138,-12 138,-6 144,0 150,0 150,0 256,0 256,0 262,0 268,-6 268,-12 268,-12 268,-24 268,-24 268,-30 262,-36 256,-36"/>
<text xml:space="preserve" text-anchor="middle" x="203" y="-19.75" font-family="Helvetica,sans-Serif" font-size="10.00">Company / Portfolio Gantt</text>
<text xml:space="preserve" text-anchor="middle" x="203" y="-8.5" font-family="Helvetica,sans-Serif" font-size="10.00">(PRIMARY view)</text>
</g>
<!-- G4&#45;&gt;O1 -->
<g id="edge17" class="edge">
<title>G4&#45;&gt;O1</title>
<path fill="none" stroke="#555555" d="M295.3,-72.69C278.97,-63.19 259.41,-51.81 242.51,-41.99"/>
<polygon fill="#555555" stroke="#555555" points="244.63,-39.17 234.22,-37.16 241.11,-45.22 244.63,-39.17"/>
</g>
<!-- O2 -->
<g id="node19" class="node">
<title>O2</title>
<path fill="#d8f5d8" stroke="black" d="M362.38,-36C362.38,-36 297.62,-36 297.62,-36 291.62,-36 285.62,-30 285.62,-24 285.62,-24 285.62,-12 285.62,-12 285.62,-6 291.62,0 297.62,0 297.62,0 362.38,0 362.38,0 368.38,0 374.38,-6 374.38,-12 374.38,-12 374.38,-24 374.38,-24 374.38,-30 368.38,-36 362.38,-36"/>
<text xml:space="preserve" text-anchor="middle" x="330" y="-19.75" font-family="Helvetica,sans-Serif" font-size="10.00">per&#45;project Gantt</text>
<text xml:space="preserve" text-anchor="middle" x="330" y="-8.5" font-family="Helvetica,sans-Serif" font-size="10.00">(derived view)</text>
</g>
<!-- G4&#45;&gt;O2 -->
<g id="edge18" class="edge">
<title>G4&#45;&gt;O2</title>
<path fill="none" stroke="#555555" d="M330,-72.69C330,-64.91 330,-55.87 330,-47.45"/>
<polygon fill="#555555" stroke="#555555" points="333.5,-47.67 330,-37.67 326.5,-47.67 333.5,-47.67"/>
</g>
<!-- O3 -->
<g id="node20" class="node">
<title>O3</title>
<path fill="#e6ffe6" stroke="#3a8a3a" stroke-dasharray="5,2" d="M513.12,-36C513.12,-36 404.88,-36 404.88,-36 398.88,-36 392.88,-30 392.88,-24 392.88,-24 392.88,-12 392.88,-12 392.88,-6 398.88,0 404.88,0 404.88,0 513.12,0 513.12,0 519.12,0 525.12,-6 525.12,-12 525.12,-12 525.12,-24 525.12,-24 525.12,-30 519.12,-36 513.12,-36"/>
<text xml:space="preserve" text-anchor="middle" x="459" y="-19.75" font-family="Helvetica,sans-Serif" font-size="10.00">cost / budget rollup (NEW)</text>
<text xml:space="preserve" text-anchor="middle" x="459" y="-8.5" font-family="Helvetica,sans-Serif" font-size="10.00">(driven by subcontractors)</text>
</g>
<!-- G4&#45;&gt;O3 -->
<g id="edge19" class="edge">
<title>G4&#45;&gt;O3</title>
<path fill="none" stroke="#555555" d="M365.25,-72.69C381.84,-63.19 401.7,-51.81 418.86,-41.99"/>
<polygon fill="#555555" stroke="#555555" points="420.36,-45.16 427.3,-37.15 416.88,-39.09 420.36,-45.16"/>
</g>
<!-- St1 -->
<g id="node11" class="node">
<title>St1</title>
<path fill="#eef4ff" stroke="black" d="M700.25,-272.38C700.25,-272.38 631.75,-272.38 631.75,-272.38 625.75,-272.38 619.75,-266.38 619.75,-260.38 619.75,-260.38 619.75,-248.38 619.75,-248.38 619.75,-242.38 625.75,-236.38 631.75,-236.38 631.75,-236.38 700.25,-236.38 700.25,-236.38 706.25,-236.38 712.25,-242.38 712.25,-248.38 712.25,-248.38 712.25,-260.38 712.25,-260.38 712.25,-266.38 706.25,-272.38 700.25,-272.38"/>
<text xml:space="preserve" text-anchor="middle" x="666" y="-250.5" font-family="Helvetica,sans-Serif" font-size="10.00">on&#45;roster member</text>
</g>
<!-- St1&#45;&gt;G3 -->
<g id="edge9" class="edge">
<title>St1&#45;&gt;G3</title>
<path fill="none" stroke="#555555" stroke-dasharray="1,5" d="M635.25,-235.89C627.51,-232.03 619.1,-228.27 611,-225.5 558.59,-207.58 498.64,-194.96 447.28,-186.38"/>
<polygon fill="#555555" stroke="#555555" points="448.05,-182.96 437.62,-184.8 446.92,-189.87 448.05,-182.96"/>
<text xml:space="preserve" text-anchor="middle" x="584.61" y="-206.95" font-family="Helvetica,sans-Serif" font-size="9.00">feeds</text>
</g>
<!-- St2 -->
<g id="node12" class="node">
<title>St2</title>
<path fill="#eef4ff" stroke="black" d="M851.5,-272.38C851.5,-272.38 742.5,-272.38 742.5,-272.38 736.5,-272.38 730.5,-266.38 730.5,-260.38 730.5,-260.38 730.5,-248.38 730.5,-248.38 730.5,-242.38 736.5,-236.38 742.5,-236.38 742.5,-236.38 851.5,-236.38 851.5,-236.38 857.5,-236.38 863.5,-242.38 863.5,-248.38 863.5,-248.38 863.5,-260.38 863.5,-260.38 863.5,-266.38 857.5,-272.38 851.5,-272.38"/>
<text xml:space="preserve" text-anchor="middle" x="797" y="-256.12" font-family="Helvetica,sans-Serif" font-size="10.00">hire from company</text>
<text xml:space="preserve" text-anchor="middle" x="797" y="-244.88" font-family="Helvetica,sans-Serif" font-size="10.00">(off&#45;roster &#45;&gt; joins the pool)</text>
</g>
<!-- St2&#45;&gt;G3 -->
<g id="edge10" class="edge">
<title>St2&#45;&gt;G3</title>
<path fill="none" stroke="#555555" stroke-dasharray="1,5" d="M754.05,-236.01C743.37,-232.15 731.87,-228.35 721,-225.5 630.85,-201.84 526.27,-187.92 447.38,-180.04"/>
<polygon fill="#555555" stroke="#555555" points="447.73,-176.56 437.44,-179.07 447.05,-183.53 447.73,-176.56"/>
</g>
<!-- St3 -->
<g id="node13" class="node">
<title>St3</title>
<path fill="#e6ffe6" stroke="#3a8a3a" stroke-dasharray="5,2" d="M589.62,-275.25C589.62,-275.25 472.38,-275.25 472.38,-275.25 466.38,-275.25 460.38,-269.25 460.38,-263.25 460.38,-263.25 460.38,-245.5 460.38,-245.5 460.38,-239.5 466.38,-233.5 472.38,-233.5 472.38,-233.5 589.62,-233.5 589.62,-233.5 595.62,-233.5 601.62,-239.5 601.62,-245.5 601.62,-245.5 601.62,-263.25 601.62,-263.25 601.62,-269.25 595.62,-275.25 589.62,-275.25"/>
<text xml:space="preserve" text-anchor="middle" x="531" y="-261.75" font-family="Helvetica,sans-Serif" font-size="10.00">SUBCONTRACTOR (NEW)</text>
<text xml:space="preserve" text-anchor="middle" x="531" y="-250.5" font-family="Helvetica,sans-Serif" font-size="10.00">temp, external,</text>
<text xml:space="preserve" text-anchor="middle" x="531" y="-239.25" font-family="Helvetica,sans-Serif" font-size="10.00">EXCLUSIVE to one task</text>
</g>
<!-- St3&#45;&gt;G3 -->
<g id="edge11" class="edge">
<title>St3&#45;&gt;G3</title>
<path fill="none" stroke="#555555" stroke-dasharray="1,5" d="M480.59,-233.06C450.05,-220.75 411.1,-205.05 379.94,-192.49"/>
<polygon fill="#555555" stroke="#555555" points="381.26,-189.25 370.68,-188.76 378.64,-195.74 381.26,-189.25"/>
</g>
<!-- P2 -->
<g id="node15" class="node">
<title>P2</title>
<path fill="#e6ffe6" stroke="black" d="M1051.88,-370.75C1051.88,-370.75 900.12,-370.75 900.12,-370.75 894.12,-370.75 888.12,-364.75 888.12,-358.75 888.12,-358.75 888.12,-346.75 888.12,-346.75 888.12,-340.75 894.12,-334.75 900.12,-334.75 900.12,-334.75 1051.88,-334.75 1051.88,-334.75 1057.88,-334.75 1063.88,-340.75 1063.88,-346.75 1063.88,-346.75 1063.88,-358.75 1063.88,-358.75 1063.88,-364.75 1057.88,-370.75 1051.88,-370.75"/>
<text xml:space="preserve" text-anchor="middle" x="976" y="-354.5" font-family="Helvetica,sans-Serif" font-size="10.00">split into schedule&#45;time SEGMENTS</text>
<text xml:space="preserve" text-anchor="middle" x="976" y="-343.25" font-family="Helvetica,sans-Serif" font-size="10.00">(lightweight leaf list on the task)</text>
</g>
<!-- P1&#45;&gt;P2 -->
<g id="edge12" class="edge">
<title>P1&#45;&gt;P2</title>
<path fill="none" stroke="#555555" d="M968.86,-430.16C970.16,-416.27 971.91,-397.56 973.35,-382.13"/>
<polygon fill="#555555" stroke="#555555" points="976.79,-382.9 974.24,-372.62 969.82,-382.25 976.79,-382.9"/>
</g>
<!-- P3 -->
<g id="node16" class="node">
<title>P3</title>
<path fill="#e6ffe6" stroke="black" d="M1040.62,-272.38C1040.62,-272.38 911.38,-272.38 911.38,-272.38 905.38,-272.38 899.38,-266.38 899.38,-260.38 899.38,-260.38 899.38,-248.38 899.38,-248.38 899.38,-242.38 905.38,-236.38 911.38,-236.38 911.38,-236.38 1040.62,-236.38 1040.62,-236.38 1046.62,-236.38 1052.62,-242.38 1052.62,-248.38 1052.62,-248.38 1052.62,-260.38 1052.62,-260.38 1052.62,-266.38 1046.62,-272.38 1040.62,-272.38"/>
<text xml:space="preserve" text-anchor="middle" x="976" y="-250.5" font-family="Helvetica,sans-Serif" font-size="10.00">schedule the flattened LEAVES</text>
</g>
<!-- P2&#45;&gt;P3 -->
<g id="edge13" class="edge">
<title>P2&#45;&gt;P3</title>
<path fill="none" stroke="#555555" d="M976,-334.52C976,-320.49 976,-300.39 976,-283.96"/>
<polygon fill="#555555" stroke="#555555" points="979.5,-284.29 976,-274.29 972.5,-284.29 979.5,-284.29"/>
</g>
<!-- P4 -->
<g id="node17" class="node">
<title>P4</title>
<path fill="#e6ffe6" stroke="black" d="M1054.38,-187.75C1054.38,-187.75 899.62,-187.75 899.62,-187.75 893.62,-187.75 887.62,-181.75 887.62,-175.75 887.62,-175.75 887.62,-163.75 887.62,-163.75 887.62,-157.75 893.62,-151.75 899.62,-151.75 899.62,-151.75 1054.38,-151.75 1054.38,-151.75 1060.38,-151.75 1066.38,-157.75 1066.38,-163.75 1066.38,-163.75 1066.38,-175.75 1066.38,-175.75 1066.38,-181.75 1060.38,-187.75 1054.38,-187.75"/>
<text xml:space="preserve" text-anchor="middle" x="977" y="-165.88" font-family="Helvetica,sans-Serif" font-size="10.00">merge adjacent contiguous segments</text>
</g>
<!-- P3&#45;&gt;P4 -->
<g id="edge14" class="edge">
<title>P3&#45;&gt;P4</title>
<path fill="none" stroke="#555555" d="M976.21,-236.26C976.34,-225.69 976.5,-211.87 976.65,-199.64"/>
<polygon fill="#555555" stroke="#555555" points="980.15,-199.69 976.77,-189.65 973.15,-199.6 980.15,-199.69"/>
</g>
<!-- P4&#45;&gt;G4 -->
<g id="edge16" class="edge">
<title>P4&#45;&gt;G4</title>
<path fill="none" stroke="#555555" stroke-dasharray="1,5" d="M887.38,-158.52C771.78,-145.32 570.59,-122.35 444.16,-107.91"/>
<polygon fill="#555555" stroke="#555555" points="444.76,-104.46 434.43,-106.8 443.96,-111.41 444.76,-104.46"/>
</g>
</g>
</svg>
