<?xml version="1.0" encoding="UTF-8" standalone="no"?>
<!DOCTYPE svg PUBLIC "-//W3C//DTD SVG 1.1//EN"
 "http://www.w3.org/Graphics/SVG/1.1/DTD/svg11.dtd">
<!-- Generated by graphviz version 15.0.0 (20260523.1842)
 -->
<!-- Title: gui Pages: 1 -->
<svg width="1125pt" height="758pt"
 viewBox="0.00 0.00 1125.00 758.00" xmlns="http://www.w3.org/2000/svg" xmlns:xlink="http://www.w3.org/1999/xlink">
<g id="graph0" class="graph" transform="scale(1 1) rotate(0) translate(4 753.75)">
<title>gui</title>
<polygon fill="white" stroke="none" points="-4,4 -4,-753.75 1120.5,-753.75 1120.5,4 -4,4"/>
<text xml:space="preserve" text-anchor="middle" x="558.25" y="-730.55" font-family="Helvetica,sans-Serif" font-size="16.00">Project Mayhem Management &#45; GUI Flow (privilege&#45;gated)</text>
<!-- main -->
<g id="node1" class="node">
<title>main</title>
<ellipse fill="none" stroke="black" cx="693.38" cy="-707.25" rx="27" ry="18"/>
<text xml:space="preserve" text-anchor="middle" x="693.38" y="-703.38" font-family="Helvetica,sans-Serif" font-size="10.00">main()</text>
</g>
<!-- m0 -->
<g id="node2" class="node">
<title>m0</title>
<polygon fill="none" stroke="black" points="693.38,-652.25 585.22,-634.25 693.38,-616.25 801.53,-634.25 693.38,-652.25"/>
<text xml:space="preserve" text-anchor="middle" x="693.38" y="-630.38" font-family="Helvetica,sans-Serif" font-size="10.00">[1] New &#160;[2] Load &#160;[0] Exit</text>
</g>
<!-- main&#45;&gt;m0 -->
<g id="edge1" class="edge">
<title>main&#45;&gt;m0</title>
<path fill="none" stroke="#555555" d="M693.38,-689.06C693.38,-681.48 693.38,-672.35 693.38,-663.79"/>
<polygon fill="#555555" stroke="#555555" points="696.88,-663.79 693.38,-653.79 689.88,-663.79 696.88,-663.79"/>
</g>
<!-- newc -->
<g id="node3" class="node">
<title>newc</title>
<polygon fill="none" stroke="black" points="611,-570.5 481.75,-570.5 481.75,-534.5 611,-534.5 611,-570.5"/>
<text xml:space="preserve" text-anchor="middle" x="546.38" y="-554.25" font-family="Helvetica,sans-Serif" font-size="10.00">company_new_interactive</text>
<text xml:space="preserve" text-anchor="middle" x="546.38" y="-543" font-family="Helvetica,sans-Serif" font-size="10.00">(name + dir_browser)</text>
</g>
<!-- m0&#45;&gt;newc -->
<g id="edge2" class="edge">
<title>m0&#45;&gt;newc</title>
<path fill="none" stroke="#555555" d="M668.77,-619.9C646.91,-608.04 614.48,-590.45 588.5,-576.35"/>
<polygon fill="#555555" stroke="#555555" points="590.32,-573.36 579.86,-571.67 586.98,-579.51 590.32,-573.36"/>
<text xml:space="preserve" text-anchor="middle" x="638.05" y="-589.7" font-family="Helvetica,sans-Serif" font-size="9.00">New</text>
</g>
<!-- loadc -->
<g id="node4" class="node">
<title>loadc</title>
<polygon fill="none" stroke="black" points="758,-570.5 628.75,-570.5 628.75,-534.5 758,-534.5 758,-570.5"/>
<text xml:space="preserve" text-anchor="middle" x="693.38" y="-554.25" font-family="Helvetica,sans-Serif" font-size="10.00">company_load_interactive</text>
<text xml:space="preserve" text-anchor="middle" x="693.38" y="-543" font-family="Helvetica,sans-Serif" font-size="10.00">(file/dir browser)</text>
</g>
<!-- m0&#45;&gt;loadc -->
<g id="edge3" class="edge">
<title>m0&#45;&gt;loadc</title>
<path fill="none" stroke="#555555" d="M693.38,-615.95C693.38,-606.02 693.38,-593.31 693.38,-581.95"/>
<polygon fill="#555555" stroke="#555555" points="696.88,-582.28 693.38,-572.28 689.88,-582.28 696.88,-582.28"/>
<text xml:space="preserve" text-anchor="middle" x="703.88" y="-589.7" font-family="Helvetica,sans-Serif" font-size="9.00">Load</text>
</g>
<!-- exit0 -->
<g id="node5" class="node">
<title>exit0</title>
<ellipse fill="none" stroke="black" cx="768.38" cy="-365" rx="47.63" ry="18"/>
<text xml:space="preserve" text-anchor="middle" x="768.38" y="-361.12" font-family="Helvetica,sans-Serif" font-size="10.00">goodbye + quit</text>
</g>
<!-- m0&#45;&gt;exit0 -->
<g id="edge4" class="edge">
<title>m0&#45;&gt;exit0</title>
<path fill="none" stroke="#555555" d="M718.32,-619.9C735.61,-609.12 757.27,-592.18 767.38,-570.5 794.34,-512.66 783.93,-435.22 775.34,-394.22"/>
<polygon fill="#555555" stroke="#555555" points="778.8,-393.68 773.21,-384.68 771.97,-395.2 778.8,-393.68"/>
<text xml:space="preserve" text-anchor="middle" x="790.95" y="-507.95" font-family="Helvetica,sans-Serif" font-size="9.00">Exit</text>
</g>
<!-- role -->
<g id="node6" class="node">
<title>role</title>
<polygon fill="#e6ffe6" stroke="black" points="684.12,-488.75 546.62,-488.75 546.62,-447 684.12,-447 684.12,-488.75"/>
<text xml:space="preserve" text-anchor="middle" x="615.38" y="-475.25" font-family="Helvetica,sans-Serif" font-size="10.00">choose_role</text>
<text xml:space="preserve" text-anchor="middle" x="615.38" y="-464" font-family="Helvetica,sans-Serif" font-size="10.00">sign in (roles.cfg) | [&#45;1] Exit</text>
<text xml:space="preserve" text-anchor="middle" x="615.38" y="-452.75" font-family="Helvetica,sans-Serif" font-size="10.00">sets session privilege mask</text>
</g>
<!-- newc&#45;&gt;role -->
<g id="edge5" class="edge">
<title>newc&#45;&gt;role</title>
<path fill="none" stroke="#555555" d="M560.67,-534.38C569.5,-523.81 581.06,-509.97 591.27,-497.73"/>
<polygon fill="#555555" stroke="#555555" points="593.72,-500.26 597.45,-490.34 588.35,-495.78 593.72,-500.26"/>
</g>
<!-- loadc&#45;&gt;role -->
<g id="edge6" class="edge">
<title>loadc&#45;&gt;role</title>
<path fill="none" stroke="#555555" d="M677.21,-534.38C667.13,-523.7 653.91,-509.7 642.28,-497.38"/>
<polygon fill="#555555" stroke="#555555" points="644.99,-495.15 635.58,-490.28 639.9,-499.96 644.99,-495.15"/>
</g>
<!-- role&#45;&gt;exit0 -->
<g id="edge8" class="edge">
<title>role&#45;&gt;exit0</title>
<path fill="none" stroke="#555555" stroke-dasharray="5,2" d="M621.2,-446.65C625.67,-434.39 633,-419.29 644.12,-409.5 644.23,-409.41 687.89,-394.13 723.43,-381.71"/>
<polygon fill="#555555" stroke="#555555" points="724.42,-385.07 732.71,-378.47 722.11,-378.46 724.42,-385.07"/>
<text xml:space="preserve" text-anchor="middle" x="648.25" y="-415.57" font-family="Helvetica,sans-Serif" font-size="9.00">&#45;1</text>
</g>
<!-- menu_company -->
<g id="node7" class="node">
<title>menu_company</title>
<polygon fill="#cfe8ff" stroke="black" points="685.88,-391.5 492.88,-391.5 492.88,-338.5 685.88,-338.5 685.88,-391.5"/>
<text xml:space="preserve" text-anchor="middle" x="589.38" y="-378" font-family="Helvetica,sans-Serif" font-size="10.00">menu_company</text>
<text xml:space="preserve" text-anchor="middle" x="589.38" y="-366.75" font-family="Helvetica,sans-Serif" font-size="10.00">1 Projects &#160;2 Team &#160;3 Save &#160;4 Portfolio</text>
<text xml:space="preserve" text-anchor="middle" x="589.38" y="-355.5" font-family="Helvetica,sans-Serif" font-size="10.00">5 My tasks &#160;6 All&#45;task Gantt &#160;7 Workload</text>
<text xml:space="preserve" text-anchor="middle" x="589.38" y="-344.25" font-family="Helvetica,sans-Serif" font-size="10.00">8 Exec report &#160;0 Sign out</text>
</g>
<!-- role&#45;&gt;menu_company -->
<g id="edge7" class="edge">
<title>role&#45;&gt;menu_company</title>
<path fill="none" stroke="#555555" d="M599.07,-446.72C595.53,-441.28 592.28,-435.17 590.38,-429 587.87,-420.88 586.79,-411.89 586.5,-403.3"/>
<polygon fill="#555555" stroke="#555555" points="590,-403.48 586.54,-393.47 583,-403.46 590,-403.48"/>
<text xml:space="preserve" text-anchor="middle" x="605.38" y="-415.57" font-family="Helvetica,sans-Serif" font-size="9.00">role set</text>
</g>
<!-- menu_company&#45;&gt;role -->
<g id="edge9" class="edge">
<title>menu_company&#45;&gt;role</title>
<path fill="none" stroke="#555555" stroke-dasharray="5,2" d="M637.25,-391.94C642.93,-397.01 647.92,-402.85 651.38,-409.5 656.29,-418.95 653.22,-428.89 647.21,-437.79"/>
<polygon fill="#555555" stroke="#555555" points="644.58,-435.47 641.03,-445.46 650.03,-439.87 644.58,-435.47"/>
<text xml:space="preserve" text-anchor="middle" x="702.57" y="-420.45" font-family="Helvetica,sans-Serif" font-size="9.00">0 Sign out</text>
<text xml:space="preserve" text-anchor="middle" x="702.57" y="-410.7" font-family="Helvetica,sans-Serif" font-size="9.00">(company stays loaded)</text>
</g>
<!-- rules -->
<g id="node8" class="node">
<title>rules</title>
<polygon fill="#ffe0e0" stroke="black" points="178,-292.75 30.75,-292.75 30.75,-256.75 178,-256.75 178,-292.75"/>
<text xml:space="preserve" text-anchor="middle" x="104.38" y="-276.5" font-family="Helvetica,sans-Serif" font-size="10.00">1999 &#45;&gt; Project Mayhem rules</text>
<text xml:space="preserve" text-anchor="middle" x="104.38" y="-265.25" font-family="Helvetica,sans-Serif" font-size="10.00">(hidden)</text>
</g>
<!-- menu_company&#45;&gt;rules -->
<g id="edge17" class="edge">
<title>menu_company&#45;&gt;rules</title>
<path fill="none" stroke="#555555" stroke-dasharray="5,2" d="M492.58,-347.59C413.78,-334.05 299.36,-314.01 189.43,-293.12"/>
<polygon fill="#555555" stroke="#555555" points="190.09,-289.68 179.61,-291.24 188.78,-296.55 190.09,-289.68"/>
</g>
<!-- projmenu -->
<g id="node9" class="node">
<title>projmenu</title>
<polygon fill="none" stroke="black" points="320.75,-292.75 196,-292.75 196,-256.75 320.75,-256.75 320.75,-292.75"/>
<text xml:space="preserve" text-anchor="middle" x="258.38" y="-276.5" font-family="Helvetica,sans-Serif" font-size="10.00">menu_company_projects</text>
<text xml:space="preserve" text-anchor="middle" x="258.38" y="-265.25" font-family="Helvetica,sans-Serif" font-size="10.00">New / Open</text>
</g>
<!-- menu_company&#45;&gt;projmenu -->
<g id="edge10" class="edge">
<title>menu_company&#45;&gt;projmenu</title>
<path fill="none" stroke="#555555" d="M492.5,-343.21C462.89,-336.44 430.32,-328.58 400.62,-320.5 374.4,-313.37 345.77,-304.56 321.11,-296.65"/>
<polygon fill="#555555" stroke="#555555" points="322.48,-293.41 311.88,-293.67 320.33,-300.07 322.48,-293.41"/>
<text xml:space="preserve" text-anchor="middle" x="435.5" y="-311.95" font-family="Helvetica,sans-Serif" font-size="9.00">VIEW_PROJECT</text>
</g>
<!-- teammenu -->
<g id="node10" class="node">
<title>teammenu</title>
<polygon fill="none" stroke="black" points="450.38,-292.75 338.38,-292.75 338.38,-256.75 450.38,-256.75 450.38,-292.75"/>
<text xml:space="preserve" text-anchor="middle" x="394.38" y="-276.5" font-family="Helvetica,sans-Serif" font-size="10.00">menu_company_team</text>
<text xml:space="preserve" text-anchor="middle" x="394.38" y="-265.25" font-family="Helvetica,sans-Serif" font-size="10.00">Add / Remove</text>
</g>
<!-- menu_company&#45;&gt;teammenu -->
<g id="edge11" class="edge">
<title>menu_company&#45;&gt;teammenu</title>
<path fill="none" stroke="#555555" d="M532.19,-338.12C504.01,-325.37 470.38,-310.15 443.4,-297.94"/>
<polygon fill="#555555" stroke="#555555" points="444.97,-294.8 434.41,-293.87 442.08,-301.18 444.97,-294.8"/>
<text xml:space="preserve" text-anchor="middle" x="506.5" y="-311.95" font-family="Helvetica,sans-Serif" font-size="9.00">ADMIN</text>
</g>
<!-- portfolio -->
<g id="node12" class="node">
<title>portfolio</title>
<polygon fill="#d8f5d8" stroke="black" points="578.25,-292.75 468.5,-292.75 468.5,-256.75 578.25,-256.75 578.25,-292.75"/>
<text xml:space="preserve" text-anchor="middle" x="523.38" y="-276.5" font-family="Helvetica,sans-Serif" font-size="10.00">render_portfolio_gantt</text>
<text xml:space="preserve" text-anchor="middle" x="523.38" y="-265.25" font-family="Helvetica,sans-Serif" font-size="10.00">(projects as bars)</text>
</g>
<!-- menu_company&#45;&gt;portfolio -->
<g id="edge12" class="edge">
<title>menu_company&#45;&gt;portfolio</title>
<path fill="none" stroke="#555555" d="M569.06,-338.38C564.51,-332.54 559.74,-326.33 555.38,-320.5 550.95,-314.58 546.27,-308.14 541.9,-302.05"/>
<polygon fill="#555555" stroke="#555555" points="544.89,-300.22 536.24,-294.11 539.19,-304.28 544.89,-300.22"/>
<text xml:space="preserve" text-anchor="middle" x="594.38" y="-311.95" font-family="Helvetica,sans-Serif" font-size="9.00">VIEW_PORTFOLIO</text>
</g>
<!-- cgantt -->
<g id="node13" class="node">
<title>cgantt</title>
<polygon fill="#d8f5d8" stroke="black" points="714,-292.75 596.75,-292.75 596.75,-256.75 714,-256.75 714,-292.75"/>
<text xml:space="preserve" text-anchor="middle" x="655.38" y="-276.5" font-family="Helvetica,sans-Serif" font-size="10.00">render_company_gantt</text>
<text xml:space="preserve" text-anchor="middle" x="655.38" y="-265.25" font-family="Helvetica,sans-Serif" font-size="10.00">(all tasks, abs timeline)</text>
</g>
<!-- menu_company&#45;&gt;cgantt -->
<g id="edge13" class="edge">
<title>menu_company&#45;&gt;cgantt</title>
<path fill="none" stroke="#555555" d="M618.35,-338.14C623.7,-332.62 628.98,-326.6 633.38,-320.5 637.17,-315.23 640.63,-309.21 643.62,-303.33"/>
<polygon fill="#555555" stroke="#555555" points="646.71,-304.98 647.84,-294.45 640.39,-301.98 646.71,-304.98"/>
<text xml:space="preserve" text-anchor="middle" x="678.27" y="-311.95" font-family="Helvetica,sans-Serif" font-size="9.00">VIEW_PORTFOLIO</text>
</g>
<!-- workload -->
<g id="node14" class="node">
<title>workload</title>
<polygon fill="#d8f5d8" stroke="black" points="849,-292.75 731.75,-292.75 731.75,-256.75 849,-256.75 849,-292.75"/>
<text xml:space="preserve" text-anchor="middle" x="790.38" y="-276.5" font-family="Helvetica,sans-Serif" font-size="10.00">render_workload_report</text>
<text xml:space="preserve" text-anchor="middle" x="790.38" y="-265.25" font-family="Helvetica,sans-Serif" font-size="10.00">(over&#45;allocation)</text>
</g>
<!-- menu_company&#45;&gt;workload -->
<g id="edge14" class="edge">
<title>menu_company&#45;&gt;workload</title>
<path fill="none" stroke="#555555" d="M678.65,-338.06C693.19,-332.85 707.88,-326.96 721.38,-320.5 733.72,-314.58 746.5,-306.82 757.66,-299.42"/>
<polygon fill="#555555" stroke="#555555" points="759.44,-302.44 765.74,-293.92 755.51,-296.65 759.44,-302.44"/>
<text xml:space="preserve" text-anchor="middle" x="778.25" y="-311.95" font-family="Helvetica,sans-Serif" font-size="9.00">VIEW_PORTFOLIO</text>
</g>
<!-- mytasks -->
<g id="node15" class="node">
<title>mytasks</title>
<polygon fill="#d8f5d8" stroke="black" points="954,-292.75 866.75,-292.75 866.75,-256.75 954,-256.75 954,-292.75"/>
<text xml:space="preserve" text-anchor="middle" x="910.38" y="-276.5" font-family="Helvetica,sans-Serif" font-size="10.00">show_my_tasks</text>
<text xml:space="preserve" text-anchor="middle" x="910.38" y="-265.25" font-family="Helvetica,sans-Serif" font-size="10.00">(VIEW_OWN)</text>
</g>
<!-- menu_company&#45;&gt;mytasks -->
<g id="edge15" class="edge">
<title>menu_company&#45;&gt;mytasks</title>
<path fill="none" stroke="#555555" d="M686.19,-343.36C694.7,-341.67 703.19,-340.03 711.38,-338.5 760.08,-329.43 774.26,-335.8 821.38,-320.5 838.35,-314.99 856.1,-306.65 871.24,-298.66"/>
<polygon fill="#555555" stroke="#555555" points="872.81,-301.78 879.94,-293.94 869.48,-295.63 872.81,-301.78"/>
<text xml:space="preserve" text-anchor="middle" x="869.03" y="-311.95" font-family="Helvetica,sans-Serif" font-size="9.00">VIEW_OWN</text>
</g>
<!-- exec -->
<g id="node16" class="node">
<title>exec</title>
<polygon fill="#d8f5d8" stroke="black" points="1116.5,-292.75 972.25,-292.75 972.25,-256.75 1116.5,-256.75 1116.5,-292.75"/>
<text xml:space="preserve" text-anchor="middle" x="1044.38" y="-270.88" font-family="Helvetica,sans-Serif" font-size="10.00">export_executive_report_html</text>
</g>
<!-- menu_company&#45;&gt;exec -->
<g id="edge16" class="edge">
<title>menu_company&#45;&gt;exec</title>
<path fill="none" stroke="#555555" d="M686.09,-342.78C694.62,-341.21 703.14,-339.76 711.38,-338.5 793.48,-325.99 815.91,-336.67 897.38,-320.5 926.7,-314.68 958.52,-305.38 985.03,-296.76"/>
<polygon fill="#555555" stroke="#555555" points="985.83,-300.18 994.22,-293.72 983.63,-293.54 985.83,-300.18"/>
<text xml:space="preserve" text-anchor="middle" x="952.65" y="-311.95" font-family="Helvetica,sans-Serif" font-size="9.00">REPORT</text>
</g>
<!-- create -->
<g id="node11" class="node">
<title>create</title>
<polygon fill="none" stroke="black" points="241.12,-208.12 163.62,-208.12 163.62,-172.12 241.12,-172.12 241.12,-208.12"/>
<text xml:space="preserve" text-anchor="middle" x="202.38" y="-186.25" font-family="Helvetica,sans-Serif" font-size="10.00">create_project</text>
</g>
<!-- projmenu&#45;&gt;create -->
<g id="edge18" class="edge">
<title>projmenu&#45;&gt;create</title>
<path fill="none" stroke="#555555" d="M246.77,-256.63C239.16,-245.41 229.06,-230.5 220.42,-217.75"/>
<polygon fill="#555555" stroke="#555555" points="223.51,-216.07 215.01,-209.76 217.72,-220 223.51,-216.07"/>
<text xml:space="preserve" text-anchor="middle" x="261.85" y="-230.2" font-family="Helvetica,sans-Serif" font-size="9.00">New (ADMIN)</text>
</g>
<!-- open -->
<g id="node17" class="node">
<title>open</title>
<polygon fill="#cfe8ff" stroke="black" points="431.38,-211 259.38,-211 259.38,-169.25 431.38,-169.25 431.38,-211"/>
<text xml:space="preserve" text-anchor="middle" x="345.38" y="-197.5" font-family="Helvetica,sans-Serif" font-size="10.00">open_project</text>
<text xml:space="preserve" text-anchor="middle" x="345.38" y="-186.25" font-family="Helvetica,sans-Serif" font-size="10.00">1 Tasks &#160;2 Deps &#160;3 Milestones</text>
<text xml:space="preserve" text-anchor="middle" x="345.38" y="-175" font-family="Helvetica,sans-Serif" font-size="10.00">4 Schedule &#160;5 Members &#160;6 Simulate</text>
</g>
<!-- projmenu&#45;&gt;open -->
<g id="edge19" class="edge">
<title>projmenu&#45;&gt;open</title>
<path fill="none" stroke="#555555" d="M276.4,-256.63C287.75,-245.85 302.67,-231.68 315.74,-219.27"/>
<polygon fill="#555555" stroke="#555555" points="318.05,-221.9 322.9,-212.47 313.23,-216.82 318.05,-221.9"/>
<text xml:space="preserve" text-anchor="middle" x="315.73" y="-230.2" font-family="Helvetica,sans-Serif" font-size="9.00">Open</text>
</g>
<!-- tasks -->
<g id="node18" class="node">
<title>tasks</title>
<polygon fill="none" stroke="black" points="144.12,-123.5 0.62,-123.5 0.62,-81.75 144.12,-81.75 144.12,-123.5"/>
<text xml:space="preserve" text-anchor="middle" x="72.38" y="-110" font-family="Helvetica,sans-Serif" font-size="10.00">menu_tasks</text>
<text xml:space="preserve" text-anchor="middle" x="72.38" y="-98.75" font-family="Helvetica,sans-Serif" font-size="10.00">List/Add/Remove/Edit/Status</text>
<text xml:space="preserve" text-anchor="middle" x="72.38" y="-87.5" font-family="Helvetica,sans-Serif" font-size="10.00">Link/Deps/Assign/Split</text>
</g>
<!-- open&#45;&gt;tasks -->
<g id="edge20" class="edge">
<title>open&#45;&gt;tasks</title>
<path fill="none" stroke="#555555" d="M258.96,-170.78C256.06,-170.25 253.2,-169.74 250.38,-169.25 192.03,-159.18 171.19,-178.02 118.38,-151.25 109.38,-146.69 101.16,-139.67 94.22,-132.4"/>
<polygon fill="#555555" stroke="#555555" points="96.95,-130.21 87.71,-125.03 91.71,-134.85 96.95,-130.21"/>
<text xml:space="preserve" text-anchor="middle" x="142.38" y="-142.7" font-family="Helvetica,sans-Serif" font-size="9.00">EDIT_TASK</text>
</g>
<!-- deps -->
<g id="node19" class="node">
<title>deps</title>
<polygon fill="none" stroke="black" points="199.5,-36 133.25,-36 133.25,0 199.5,0 199.5,-36"/>
<text xml:space="preserve" text-anchor="middle" x="166.38" y="-19.75" font-family="Helvetica,sans-Serif" font-size="10.00">menu_deps</text>
<text xml:space="preserve" text-anchor="middle" x="166.38" y="-8.5" font-family="Helvetica,sans-Serif" font-size="10.00">link + view</text>
</g>
<!-- open&#45;&gt;deps -->
<g id="edge21" class="edge">
<title>open&#45;&gt;deps</title>
<path fill="none" stroke="#555555" d="M259.17,-169.04C233.68,-159.19 207.88,-144.7 190.12,-123.5 172.41,-102.34 167.25,-70.62 166.04,-47.67"/>
<polygon fill="#555555" stroke="#555555" points="169.54,-47.68 165.77,-37.78 162.55,-47.87 169.54,-47.68"/>
<text xml:space="preserve" text-anchor="middle" x="215.25" y="-98.95" font-family="Helvetica,sans-Serif" font-size="9.00">EDIT_DEPS</text>
</g>
<!-- mile -->
<g id="node20" class="node">
<title>mile</title>
<polygon fill="none" stroke="black" points="341.62,-120.62 249.12,-120.62 249.12,-84.62 341.62,-84.62 341.62,-120.62"/>
<text xml:space="preserve" text-anchor="middle" x="295.38" y="-104.38" font-family="Helvetica,sans-Serif" font-size="10.00">menu_milestones</text>
<text xml:space="preserve" text-anchor="middle" x="295.38" y="-93.12" font-family="Helvetica,sans-Serif" font-size="10.00">List / Add</text>
</g>
<!-- open&#45;&gt;mile -->
<g id="edge22" class="edge">
<title>open&#45;&gt;mile</title>
<path fill="none" stroke="#555555" d="M333.53,-168.86C326.85,-157.44 318.42,-143.03 311.18,-130.66"/>
<polygon fill="#555555" stroke="#555555" points="314.29,-129.03 306.22,-122.16 308.24,-132.56 314.29,-129.03"/>
</g>
<!-- sched -->
<g id="node21" class="node">
<title>sched</title>
<polygon fill="#cfe8ff" stroke="black" points="562.75,-123.5 360,-123.5 360,-81.75 562.75,-81.75 562.75,-123.5"/>
<text xml:space="preserve" text-anchor="middle" x="461.38" y="-110" font-family="Helvetica,sans-Serif" font-size="10.00">menu_schedule</text>
<text xml:space="preserve" text-anchor="middle" x="461.38" y="-98.75" font-family="Helvetica,sans-Serif" font-size="10.00">Generate/Report/Gantt/DAG</text>
<text xml:space="preserve" text-anchor="middle" x="461.38" y="-87.5" font-family="Helvetica,sans-Serif" font-size="10.00">Export .dot/Export report/Request vacation</text>
</g>
<!-- open&#45;&gt;sched -->
<g id="edge23" class="edge">
<title>open&#45;&gt;sched</title>
<path fill="none" stroke="#555555" d="M372.87,-168.86C388.47,-157.36 408.19,-142.83 425.05,-130.4"/>
<polygon fill="#555555" stroke="#555555" points="426.89,-133.39 432.86,-124.64 422.74,-127.76 426.89,-133.39"/>
<text xml:space="preserve" text-anchor="middle" x="451.48" y="-142.7" font-family="Helvetica,sans-Serif" font-size="9.00">SCHEDULE/REPORT</text>
</g>
<!-- roster -->
<g id="node22" class="node">
<title>roster</title>
<polygon fill="none" stroke="black" points="663.75,-120.62 581,-120.62 581,-84.62 663.75,-84.62 663.75,-120.62"/>
<text xml:space="preserve" text-anchor="middle" x="622.38" y="-104.38" font-family="Helvetica,sans-Serif" font-size="10.00">roster checklist</text>
<text xml:space="preserve" text-anchor="middle" x="622.38" y="-93.12" font-family="Helvetica,sans-Serif" font-size="10.00">(run_checklist)</text>
</g>
<!-- open&#45;&gt;roster -->
<g id="edge24" class="edge">
<title>open&#45;&gt;roster</title>
<path fill="none" stroke="#555555" d="M431.62,-170.2C454.16,-164.67 478.32,-158.22 500.38,-151.25 523.93,-143.81 549.47,-134.11 571.06,-125.4"/>
<polygon fill="#555555" stroke="#555555" points="572.29,-128.68 580.23,-121.66 569.65,-122.2 572.29,-128.68"/>
<text xml:space="preserve" text-anchor="middle" x="567.67" y="-142.7" font-family="Helvetica,sans-Serif" font-size="9.00">Members (ASSIGN)</text>
</g>
<!-- sim -->
<g id="node24" class="node">
<title>sim</title>
<polygon fill="#fff0cc" stroke="black" points="844.5,-123.5 682.25,-123.5 682.25,-81.75 844.5,-81.75 844.5,-123.5"/>
<text xml:space="preserve" text-anchor="middle" x="763.38" y="-110" font-family="Helvetica,sans-Serif" font-size="10.00">menu_simulate</text>
<text xml:space="preserve" text-anchor="middle" x="763.38" y="-98.75" font-family="Helvetica,sans-Serif" font-size="10.00">day&#45;by&#45;day sandbox</text>
<text xml:space="preserve" text-anchor="middle" x="763.38" y="-87.5" font-family="Helvetica,sans-Serif" font-size="10.00">(clone &#45;&gt; events &#45;&gt; apply/discard)</text>
</g>
<!-- open&#45;&gt;sim -->
<g id="edge25" class="edge">
<title>open&#45;&gt;sim</title>
<path fill="none" stroke="#555555" d="M431.67,-180.43C484.04,-174.26 552,-164.68 611.38,-151.25 639.22,-144.95 669.33,-135.98 695.35,-127.53"/>
<polygon fill="#555555" stroke="#555555" points="696.39,-130.87 704.79,-124.42 694.2,-124.22 696.39,-130.87"/>
<text xml:space="preserve" text-anchor="middle" x="696.7" y="-142.7" font-family="Helvetica,sans-Serif" font-size="9.00">Simulate (SCHEDULE)</text>
</g>
<!-- tasks&#45;&gt;deps -->
<g id="edge27" class="edge">
<title>tasks&#45;&gt;deps</title>
<path fill="none" stroke="#555555" d="M99.82,-81.38C106.98,-75.83 114.59,-69.71 121.38,-63.75 128.36,-57.62 135.63,-50.67 142.24,-44.1"/>
<polygon fill="#555555" stroke="#555555" points="144.56,-46.73 149.12,-37.16 139.59,-41.8 144.56,-46.73"/>
<text xml:space="preserve" text-anchor="middle" x="142.52" y="-55.2" font-family="Helvetica,sans-Serif" font-size="9.00">Deps</text>
</g>
<!-- pin -->
<g id="node23" class="node">
<title>pin</title>
<polygon fill="none" stroke="black" points="100.75,-36 0,-36 0,0 100.75,0 100.75,-36"/>
<text xml:space="preserve" text-anchor="middle" x="50.38" y="-19.75" font-family="Helvetica,sans-Serif" font-size="10.00">manual_assign</text>
<text xml:space="preserve" text-anchor="middle" x="50.38" y="-8.5" font-family="Helvetica,sans-Serif" font-size="10.00">pin member &#45;&gt; task</text>
</g>
<!-- tasks&#45;&gt;pin -->
<g id="edge26" class="edge">
<title>tasks&#45;&gt;pin</title>
<path fill="none" stroke="#555555" d="M59.09,-81.54C56.07,-76 53.27,-69.83 51.62,-63.75 50.24,-58.63 49.5,-53.06 49.17,-47.65"/>
<polygon fill="#555555" stroke="#555555" points="52.67,-47.73 49.01,-37.79 45.67,-47.84 52.67,-47.73"/>
<text xml:space="preserve" text-anchor="middle" x="86.5" y="-55.2" font-family="Helvetica,sans-Serif" font-size="9.00">Assign (ASSIGN)</text>
</g>
<!-- gen -->
<g id="node25" class="node">
<title>gen</title>
<polygon fill="#d8f5d8" stroke="black" points="591.5,-36 471.25,-36 471.25,0 591.5,0 591.5,-36"/>
<text xml:space="preserve" text-anchor="middle" x="531.38" y="-19.75" font-family="Helvetica,sans-Serif" font-size="10.00">scheduler pipeline</text>
<text xml:space="preserve" text-anchor="middle" x="531.38" y="-8.5" font-family="Helvetica,sans-Serif" font-size="10.00">(see scheduler diagram)</text>
</g>
<!-- sched&#45;&gt;gen -->
<g id="edge28" class="edge">
<title>sched&#45;&gt;gen</title>
<path fill="none" stroke="#555555" d="M478.32,-81.62C487.67,-70.59 499.39,-56.76 509.43,-44.9"/>
<polygon fill="#555555" stroke="#555555" points="511.95,-47.35 515.74,-37.45 506.61,-42.82 511.95,-47.35"/>
<text xml:space="preserve" text-anchor="middle" x="548.94" y="-55.2" font-family="Helvetica,sans-Serif" font-size="9.00">Generate (SCHEDULE)</text>
</g>
<!-- report -->
<g id="node26" class="node">
<title>report</title>
<polygon fill="none" stroke="black" points="453.5,-36 327.25,-36 327.25,0 453.5,0 453.5,-36"/>
<text xml:space="preserve" text-anchor="middle" x="390.38" y="-19.75" font-family="Helvetica,sans-Serif" font-size="10.00">export_report_html</text>
<text xml:space="preserve" text-anchor="middle" x="390.38" y="-8.5" font-family="Helvetica,sans-Serif" font-size="10.00">HTML + inline&#45;SVG DAG</text>
</g>
<!-- sched&#45;&gt;report -->
<g id="edge29" class="edge">
<title>sched&#45;&gt;report</title>
<path fill="none" stroke="#555555" d="M410.36,-81.4C403.48,-76.59 397.28,-70.77 392.88,-63.75 389.88,-58.98 388.38,-53.32 387.76,-47.67"/>
<polygon fill="#555555" stroke="#555555" points="391.27,-47.79 387.59,-37.85 384.27,-47.91 391.27,-47.79"/>
<text xml:space="preserve" text-anchor="middle" x="441.62" y="-55.2" font-family="Helvetica,sans-Serif" font-size="9.00">Export report (REPORT)</text>
</g>
</g>
</svg>
