<?xml version="1.0" encoding="UTF-8" standalone="no"?>
<!DOCTYPE svg PUBLIC "-//W3C//DTD SVG 1.1//EN"
 "http://www.w3.org/Graphics/SVG/1.1/DTD/svg11.dtd">
<!-- Generated by graphviz version 15.0.0 (20260523.1842)
 -->
<!-- Title: policy_best_fit Pages: 1 -->
<svg width="375pt" height="337pt"
 viewBox="0.00 0.00 375.00 337.00" xmlns="http://www.w3.org/2000/svg" xmlns:xlink="http://www.w3.org/1999/xlink">
<g id="graph0" class="graph" transform="scale(1 1) rotate(0) translate(4 333.25)">
<title>policy_best_fit</title>
<polygon fill="white" stroke="none" points="-4,4 -4,-333.25 371,-333.25 371,4 -4,4"/>
<text xml:space="preserve" text-anchor="middle" x="183.5" y="-311" font-family="Helvetica,sans-Serif" font-size="15.00">Assignment Policy 3/3: Best Skill&#45;Fit (specialists first)</text>
<!-- cand -->
<g id="node1" class="node">
<title>cand</title>
<path fill="#f7f9fc" stroke="black" d="M70.5,-228C70.5,-228 296.5,-228 296.5,-228 302.5,-228 308.5,-234 308.5,-240 308.5,-240 308.5,-293 308.5,-293 308.5,-299 302.5,-305 296.5,-305 296.5,-305 70.5,-305 70.5,-305 64.5,-305 58.5,-299 58.5,-293 58.5,-293 58.5,-240 58.5,-240 58.5,-234 64.5,-228 70.5,-228"/>
<text xml:space="preserve" text-anchor="middle" x="183.5" y="-291.5" font-family="Helvetica,sans-Serif" font-size="10.00">shared candidates &#45; all qualified for a BACKEND task</text>
<polyline fill="none" stroke="black" points="58.5,-285.75 308.5,-285.75"/>
<text xml:space="preserve" text-anchor="middle" x="183.5" y="-272.25" font-family="Helvetica,sans-Serif" font-size="10.00">Spec surplus=0 free_day=8 load=2</text>
<polyline fill="none" stroke="black" points="58.5,-266.5 308.5,-266.5"/>
<text xml:space="preserve" text-anchor="middle" x="183.5" y="-253" font-family="Helvetica,sans-Serif" font-size="10.00">Free surplus=2 free_day=1 load=5</text>
<polyline fill="none" stroke="black" points="58.5,-247.25 308.5,-247.25"/>
<text xml:space="preserve" text-anchor="middle" x="183.5" y="-233.75" font-family="Helvetica,sans-Serif" font-size="10.00">Light surplus=1 free_day=4 load=0</text>
</g>
<!-- key -->
<g id="node2" class="node">
<title>key</title>
<path fill="#cfe0ff" stroke="black" d="M262.75,-191.5C262.75,-191.5 104.25,-191.5 104.25,-191.5 98.25,-191.5 92.25,-185.5 92.25,-179.5 92.25,-179.5 92.25,-161.75 92.25,-161.75 92.25,-155.75 98.25,-149.75 104.25,-149.75 104.25,-149.75 262.75,-149.75 262.75,-149.75 268.75,-149.75 274.75,-155.75 274.75,-161.75 274.75,-161.75 274.75,-179.5 274.75,-179.5 274.75,-185.5 268.75,-191.5 262.75,-191.5"/>
<text xml:space="preserve" text-anchor="middle" x="183.5" y="-178" font-family="Helvetica,sans-Serif" font-size="10.00">score_key (lexicographic, lower wins):</text>
<text xml:space="preserve" text-anchor="middle" x="183.5" y="-166.75" font-family="Helvetica,sans-Serif" font-size="10.00">[ surplus, free_day, load, id ]</text>
<text xml:space="preserve" text-anchor="middle" x="183.5" y="-155.5" font-family="Helvetica,sans-Serif" font-size="10.00">surplus = popcount(skills &amp; ~required)</text>
</g>
<!-- cand&#45;&gt;key -->
<g id="edge1" class="edge">
<title>cand&#45;&gt;key</title>
<path fill="none" stroke="#555555" d="M183.5,-227.59C183.5,-219.48 183.5,-210.99 183.5,-203.16"/>
<polygon fill="#555555" stroke="#555555" points="187,-203.4 183.5,-193.4 180,-203.4 187,-203.4"/>
</g>
<!-- pick -->
<g id="node3" class="node">
<title>pick</title>
<path fill="#d8f5d8" stroke="black" d="M257.88,-113.75C257.88,-113.75 109.12,-113.75 109.12,-113.75 103.12,-113.75 97.12,-107.75 97.12,-101.75 97.12,-101.75 97.12,-89.75 97.12,-89.75 97.12,-83.75 103.12,-77.75 109.12,-77.75 109.12,-77.75 257.88,-77.75 257.88,-77.75 263.88,-77.75 269.88,-83.75 269.88,-89.75 269.88,-89.75 269.88,-101.75 269.88,-101.75 269.88,-107.75 263.88,-113.75 257.88,-113.75"/>
<text xml:space="preserve" text-anchor="middle" x="183.5" y="-97.5" font-family="Helvetica,sans-Serif" font-size="10.00">primary = surplus &#45;&gt; min is Spec (0)</text>
<text xml:space="preserve" text-anchor="middle" x="183.5" y="-86.25" font-family="Helvetica,sans-Serif" font-size="10.00">PICK: Spec (the specialist)</text>
</g>
<!-- key&#45;&gt;pick -->
<g id="edge2" class="edge">
<title>key&#45;&gt;pick</title>
<path fill="none" stroke="#555555" d="M183.5,-149.33C183.5,-141.94 183.5,-133.45 183.5,-125.48"/>
<polygon fill="#555555" stroke="#555555" points="187,-125.49 183.5,-115.49 180,-125.49 187,-125.49"/>
</g>
<!-- note -->
<g id="node4" class="node">
<title>note</title>
<polygon fill="#fffbe6" stroke="black" points="280.38,-41.75 80.62,-41.75 80.62,0 286.38,0 286.38,-35.75 280.38,-41.75"/>
<polyline fill="none" stroke="black" points="280.38,-41.75 280.38,-35.75"/>
<polyline fill="none" stroke="black" points="286.38,-35.75 280.38,-35.75"/>
<text xml:space="preserve" text-anchor="middle" x="183.5" y="-28.25" font-family="Helvetica,sans-Serif" font-size="10.00">Use: assign the tightest skill match (fewest</text>
<text xml:space="preserve" text-anchor="middle" x="183.5" y="-17" font-family="Helvetica,sans-Serif" font-size="10.00">wasted extra skills), keeping multi&#45;skilled</text>
<text xml:space="preserve" text-anchor="middle" x="183.5" y="-5.75" font-family="Helvetica,sans-Serif" font-size="10.00">generalists free for tasks only they can do.</text>
</g>
<!-- pick&#45;&gt;note -->
<g id="edge3" class="edge">
<title>pick&#45;&gt;note</title>
<path fill="none" stroke="#555555" d="M183.5,-77.48C183.5,-70.27 183.5,-61.66 183.5,-53.4"/>
<polygon fill="#555555" stroke="#555555" points="187,-53.64 183.5,-43.64 180,-53.64 187,-53.64"/>
</g>
</g>
</svg>
