<?xml version="1.0" encoding="UTF-8" standalone="no"?>
<!DOCTYPE svg PUBLIC "-//W3C//DTD SVG 1.1//EN"
 "http://www.w3.org/Graphics/SVG/1.1/DTD/svg11.dtd">
<!-- Generated by graphviz version 15.0.0 (20260523.1842)
 -->
<!-- Title: policy_earliest_free Pages: 1 -->
<svg width="437pt" height="337pt"
 viewBox="0.00 0.00 437.00 337.00" xmlns="http://www.w3.org/2000/svg" xmlns:xlink="http://www.w3.org/1999/xlink">
<g id="graph0" class="graph" transform="scale(1 1) rotate(0) translate(4 333.25)">
<title>policy_earliest_free</title>
<polygon fill="white" stroke="none" points="-4,4 -4,-333.25 432.5,-333.25 432.5,4 -4,4"/>
<text xml:space="preserve" text-anchor="middle" x="214.25" y="-311" font-family="Helvetica,sans-Serif" font-size="15.00">Assignment Policy 1/3: Earliest&#45;Free (default, tight makespan)</text>
<!-- cand -->
<g id="node1" class="node">
<title>cand</title>
<path fill="#f7f9fc" stroke="black" d="M101.25,-228C101.25,-228 327.25,-228 327.25,-228 333.25,-228 339.25,-234 339.25,-240 339.25,-240 339.25,-293 339.25,-293 339.25,-299 333.25,-305 327.25,-305 327.25,-305 101.25,-305 101.25,-305 95.25,-305 89.25,-299 89.25,-293 89.25,-293 89.25,-240 89.25,-240 89.25,-234 95.25,-228 101.25,-228"/>
<text xml:space="preserve" text-anchor="middle" x="214.25" y="-291.5" font-family="Helvetica,sans-Serif" font-size="10.00">shared candidates &#45; all qualified for a BACKEND task</text>
<polyline fill="none" stroke="black" points="89.25,-285.75 339.25,-285.75"/>
<text xml:space="preserve" text-anchor="middle" x="214.25" y="-272.25" font-family="Helvetica,sans-Serif" font-size="10.00">Spec surplus=0 free_day=8 load=2</text>
<polyline fill="none" stroke="black" points="89.25,-266.5 339.25,-266.5"/>
<text xml:space="preserve" text-anchor="middle" x="214.25" y="-253" font-family="Helvetica,sans-Serif" font-size="10.00">Free surplus=2 free_day=1 load=5</text>
<polyline fill="none" stroke="black" points="89.25,-247.25 339.25,-247.25"/>
<text xml:space="preserve" text-anchor="middle" x="214.25" y="-233.75" font-family="Helvetica,sans-Serif" font-size="10.00">Light surplus=1 free_day=4 load=0</text>
</g>
<!-- key -->
<g id="node2" class="node">
<title>key</title>
<path fill="#cfe0ff" stroke="black" d="M293.5,-191.5C293.5,-191.5 135,-191.5 135,-191.5 129,-191.5 123,-185.5 123,-179.5 123,-179.5 123,-161.75 123,-161.75 123,-155.75 129,-149.75 135,-149.75 135,-149.75 293.5,-149.75 293.5,-149.75 299.5,-149.75 305.5,-155.75 305.5,-161.75 305.5,-161.75 305.5,-179.5 305.5,-179.5 305.5,-185.5 299.5,-191.5 293.5,-191.5"/>
<text xml:space="preserve" text-anchor="middle" x="214.25" y="-178" font-family="Helvetica,sans-Serif" font-size="10.00">score_key (lexicographic, lower wins):</text>
<text xml:space="preserve" text-anchor="middle" x="214.25" y="-166.75" font-family="Helvetica,sans-Serif" font-size="10.00">[ free_day, load, surplus, id ]</text>
<text xml:space="preserve" text-anchor="middle" x="214.25" y="-155.5" font-family="Helvetica,sans-Serif" font-size="10.00">surplus = popcount(skills &amp; ~required)</text>
</g>
<!-- cand&#45;&gt;key -->
<g id="edge1" class="edge">
<title>cand&#45;&gt;key</title>
<path fill="none" stroke="#555555" d="M214.25,-227.59C214.25,-219.48 214.25,-210.99 214.25,-203.16"/>
<polygon fill="#555555" stroke="#555555" points="217.75,-203.4 214.25,-193.4 210.75,-203.4 217.75,-203.4"/>
</g>
<!-- pick -->
<g id="node3" class="node">
<title>pick</title>
<path fill="#d8f5d8" stroke="black" d="M290.12,-113.75C290.12,-113.75 138.38,-113.75 138.38,-113.75 132.38,-113.75 126.38,-107.75 126.38,-101.75 126.38,-101.75 126.38,-89.75 126.38,-89.75 126.38,-83.75 132.38,-77.75 138.38,-77.75 138.38,-77.75 290.12,-77.75 290.12,-77.75 296.12,-77.75 302.12,-83.75 302.12,-89.75 302.12,-89.75 302.12,-101.75 302.12,-101.75 302.12,-107.75 296.12,-113.75 290.12,-113.75"/>
<text xml:space="preserve" text-anchor="middle" x="214.25" y="-97.5" font-family="Helvetica,sans-Serif" font-size="10.00">primary = free_day &#45;&gt; min is Free (1)</text>
<text xml:space="preserve" text-anchor="middle" x="214.25" y="-86.25" font-family="Helvetica,sans-Serif" font-size="10.00">PICK: Free</text>
</g>
<!-- key&#45;&gt;pick -->
<g id="edge2" class="edge">
<title>key&#45;&gt;pick</title>
<path fill="none" stroke="#555555" d="M214.25,-149.33C214.25,-141.94 214.25,-133.45 214.25,-125.48"/>
<polygon fill="#555555" stroke="#555555" points="217.75,-125.49 214.25,-115.49 210.75,-125.49 217.75,-125.49"/>
</g>
<!-- note -->
<g id="node4" class="node">
<title>note</title>
<polygon fill="#fffbe6" stroke="black" points="310,-41.75 112.5,-41.75 112.5,0 316,0 316,-35.75 310,-41.75"/>
<polyline fill="none" stroke="black" points="310,-41.75 310,-35.75"/>
<polyline fill="none" stroke="black" points="316,-35.75 310,-35.75"/>
<text xml:space="preserve" text-anchor="middle" x="214.25" y="-28.25" font-family="Helvetica,sans-Serif" font-size="10.00">Use: get work started as soon as possible.</text>
<text xml:space="preserve" text-anchor="middle" x="214.25" y="-17" font-family="Helvetica,sans-Serif" font-size="10.00">Packs tasks onto whoever frees up first &#45;&gt;</text>
<text xml:space="preserve" text-anchor="middle" x="214.25" y="-5.75" font-family="Helvetica,sans-Serif" font-size="10.00">shortest overall schedule (default).</text>
</g>
<!-- pick&#45;&gt;note -->
<g id="edge3" class="edge">
<title>pick&#45;&gt;note</title>
<path fill="none" stroke="#555555" d="M214.25,-77.48C214.25,-70.27 214.25,-61.66 214.25,-53.4"/>
<polygon fill="#555555" stroke="#555555" points="217.75,-53.64 214.25,-43.64 210.75,-53.64 217.75,-53.64"/>
</g>
</g>
</svg>
