<?xml version="1.0" encoding="UTF-8" standalone="no"?>
<!DOCTYPE svg PUBLIC "-//W3C//DTD SVG 1.1//EN"
 "http://www.w3.org/Graphics/SVG/1.1/DTD/svg11.dtd">
<!-- Generated by graphviz version 15.0.0 (20260523.1842)
 -->
<!-- Title: policy_balanced Pages: 1 -->
<svg width="309pt" height="337pt"
 viewBox="0.00 0.00 309.00 337.00" xmlns="http://www.w3.org/2000/svg" xmlns:xlink="http://www.w3.org/1999/xlink">
<g id="graph0" class="graph" transform="scale(1 1) rotate(0) translate(4 333.25)">
<title>policy_balanced</title>
<polygon fill="white" stroke="none" points="-4,4 -4,-333.25 305,-333.25 305,4 -4,4"/>
<text xml:space="preserve" text-anchor="middle" x="150.5" y="-311" font-family="Helvetica,sans-Serif" font-size="15.00">Assignment Policy 2/3: Balanced Workload</text>
<!-- cand -->
<g id="node1" class="node">
<title>cand</title>
<path fill="#f7f9fc" stroke="black" d="M37.5,-228C37.5,-228 263.5,-228 263.5,-228 269.5,-228 275.5,-234 275.5,-240 275.5,-240 275.5,-293 275.5,-293 275.5,-299 269.5,-305 263.5,-305 263.5,-305 37.5,-305 37.5,-305 31.5,-305 25.5,-299 25.5,-293 25.5,-293 25.5,-240 25.5,-240 25.5,-234 31.5,-228 37.5,-228"/>
<text xml:space="preserve" text-anchor="middle" x="150.5" y="-291.5" font-family="Helvetica,sans-Serif" font-size="10.00">shared candidates &#45; all qualified for a BACKEND task</text>
<polyline fill="none" stroke="black" points="25.5,-285.75 275.5,-285.75"/>
<text xml:space="preserve" text-anchor="middle" x="150.5" y="-272.25" font-family="Helvetica,sans-Serif" font-size="10.00">Spec surplus=0 free_day=8 load=2</text>
<polyline fill="none" stroke="black" points="25.5,-266.5 275.5,-266.5"/>
<text xml:space="preserve" text-anchor="middle" x="150.5" y="-253" font-family="Helvetica,sans-Serif" font-size="10.00">Free surplus=2 free_day=1 load=5</text>
<polyline fill="none" stroke="black" points="25.5,-247.25 275.5,-247.25"/>
<text xml:space="preserve" text-anchor="middle" x="150.5" y="-233.75" font-family="Helvetica,sans-Serif" font-size="10.00">Light surplus=1 free_day=4 load=0</text>
</g>
<!-- key -->
<g id="node2" class="node">
<title>key</title>
<path fill="#cfe0ff" stroke="black" d="M233.12,-191.5C233.12,-191.5 67.88,-191.5 67.88,-191.5 61.88,-191.5 55.88,-185.5 55.88,-179.5 55.88,-179.5 55.88,-161.75 55.88,-161.75 55.88,-155.75 61.88,-149.75 67.88,-149.75 67.88,-149.75 233.12,-149.75 233.12,-149.75 239.12,-149.75 245.12,-155.75 245.12,-161.75 245.12,-161.75 245.12,-179.5 245.12,-179.5 245.12,-185.5 239.12,-191.5 233.12,-191.5"/>
<text xml:space="preserve" text-anchor="middle" x="150.5" y="-178" font-family="Helvetica,sans-Serif" font-size="10.00">score_key (lexicographic, lower wins):</text>
<text xml:space="preserve" text-anchor="middle" x="150.5" y="-166.75" font-family="Helvetica,sans-Serif" font-size="10.00">[ load, free_day, surplus, id ]</text>
<text xml:space="preserve" text-anchor="middle" x="150.5" y="-155.5" font-family="Helvetica,sans-Serif" font-size="10.00">load = tasks already assigned this pass</text>
</g>
<!-- cand&#45;&gt;key -->
<g id="edge1" class="edge">
<title>cand&#45;&gt;key</title>
<path fill="none" stroke="#555555" d="M150.5,-227.59C150.5,-219.48 150.5,-210.99 150.5,-203.16"/>
<polygon fill="#555555" stroke="#555555" points="154,-203.4 150.5,-193.4 147,-203.4 154,-203.4"/>
</g>
<!-- pick -->
<g id="node3" class="node">
<title>pick</title>
<path fill="#d8f5d8" stroke="black" d="M217.38,-113.75C217.38,-113.75 83.62,-113.75 83.62,-113.75 77.62,-113.75 71.62,-107.75 71.62,-101.75 71.62,-101.75 71.62,-89.75 71.62,-89.75 71.62,-83.75 77.62,-77.75 83.62,-77.75 83.62,-77.75 217.38,-77.75 217.38,-77.75 223.38,-77.75 229.38,-83.75 229.38,-89.75 229.38,-89.75 229.38,-101.75 229.38,-101.75 229.38,-107.75 223.38,-113.75 217.38,-113.75"/>
<text xml:space="preserve" text-anchor="middle" x="150.5" y="-97.5" font-family="Helvetica,sans-Serif" font-size="10.00">primary = load &#45;&gt; min is Light (0)</text>
<text xml:space="preserve" text-anchor="middle" x="150.5" y="-86.25" font-family="Helvetica,sans-Serif" font-size="10.00">PICK: Light</text>
</g>
<!-- key&#45;&gt;pick -->
<g id="edge2" class="edge">
<title>key&#45;&gt;pick</title>
<path fill="none" stroke="#555555" d="M150.5,-149.33C150.5,-141.94 150.5,-133.45 150.5,-125.48"/>
<polygon fill="#555555" stroke="#555555" points="154,-125.49 150.5,-115.49 147,-125.49 154,-125.49"/>
</g>
<!-- note -->
<g id="node4" class="node">
<title>note</title>
<polygon fill="#fffbe6" stroke="black" points="255.25,-41.75 39.75,-41.75 39.75,0 261.25,0 261.25,-35.75 255.25,-41.75"/>
<polyline fill="none" stroke="black" points="255.25,-41.75 255.25,-35.75"/>
<polyline fill="none" stroke="black" points="261.25,-35.75 255.25,-35.75"/>
<text xml:space="preserve" text-anchor="middle" x="150.5" y="-28.25" font-family="Helvetica,sans-Serif" font-size="10.00">Use: spread the work. Give the next task to</text>
<text xml:space="preserve" text-anchor="middle" x="150.5" y="-17" font-family="Helvetica,sans-Serif" font-size="10.00">the least&#45;loaded member &#45;&gt; minimizes the</text>
<text xml:space="preserve" text-anchor="middle" x="150.5" y="-5.75" font-family="Helvetica,sans-Serif" font-size="10.00">spread of per&#45;member days (no one swamped).</text>
</g>
<!-- pick&#45;&gt;note -->
<g id="edge3" class="edge">
<title>pick&#45;&gt;note</title>
<path fill="none" stroke="#555555" d="M150.5,-77.48C150.5,-70.27 150.5,-61.66 150.5,-53.4"/>
<polygon fill="#555555" stroke="#555555" points="154,-53.64 150.5,-43.64 147,-53.64 154,-53.64"/>
</g>
</g>
</svg>
