<?xml version="1.0" encoding="UTF-8" standalone="no"?>
<!DOCTYPE svg PUBLIC "-//W3C//DTD SVG 1.1//EN"
 "http://www.w3.org/Graphics/SVG/1.1/DTD/svg11.dtd">
<!-- Generated by graphviz version 15.0.0 (20260523.1842)
 -->
<!-- Title: sched_pessimistic Pages: 1 -->
<svg width="354pt" height="312pt"
 viewBox="0.00 0.00 354.00 312.00" xmlns="http://www.w3.org/2000/svg" xmlns:xlink="http://www.w3.org/1999/xlink">
<g id="graph0" class="graph" transform="scale(1 1) rotate(0) translate(4 308.25)">
<title>sched_pessimistic</title>
<polygon fill="white" stroke="none" points="-4,4 -4,-308.25 350,-308.25 350,4 -4,4"/>
<text xml:space="preserve" text-anchor="middle" x="173" y="-286" font-family="Helvetica,sans-Serif" font-size="15.00">Scheduling Strategy 3/3: Pessimistic (worst&#45;case)</text>
<!-- ex -->
<g id="node1" class="node">
<title>ex</title>
<path fill="#f7f9fc" stroke="black" d="M105.19,-222.25C105.19,-222.25 241.19,-222.25 241.19,-222.25 247.19,-222.25 253.19,-228.25 253.19,-234.25 253.19,-234.25 253.19,-268 253.19,-268 253.19,-274 247.19,-280 241.19,-280 241.19,-280 105.19,-280 105.19,-280 99.19,-280 93.19,-274 93.19,-268 93.19,-268 93.19,-234.25 93.19,-234.25 93.19,-228.25 99.19,-222.25 105.19,-222.25"/>
<text xml:space="preserve" text-anchor="middle" x="173.19" y="-266.5" font-family="Helvetica,sans-Serif" font-size="10.00">shared example task</text>
<polyline fill="none" stroke="black" points="93.19,-260.75 253.19,-260.75"/>
<text xml:space="preserve" text-anchor="middle" x="173.19" y="-247.25" font-family="Helvetica,sans-Serif" font-size="10.00">min=2 likely=4 max=12 risk=0.5</text>
<polyline fill="none" stroke="black" points="93.19,-241.5 253.19,-241.5"/>
<text xml:space="preserve" text-anchor="middle" x="173.19" y="-228" font-family="Helvetica,sans-Serif" font-size="10.00">(pert_expected = 5, unused here)</text>
</g>
<!-- F -->
<g id="node2" class="node">
<title>F</title>
<path fill="#ffe9cc" stroke="black" d="M243.81,-185.75C243.81,-185.75 102.56,-185.75 102.56,-185.75 96.56,-185.75 90.56,-179.75 90.56,-173.75 90.56,-173.75 90.56,-161.75 90.56,-161.75 90.56,-155.75 96.56,-149.75 102.56,-149.75 102.56,-149.75 243.81,-149.75 243.81,-149.75 249.81,-149.75 255.81,-155.75 255.81,-161.75 255.81,-161.75 255.81,-173.75 255.81,-173.75 255.81,-179.75 249.81,-185.75 243.81,-185.75"/>
<text xml:space="preserve" text-anchor="middle" x="173.19" y="-163.88" font-family="Helvetica,sans-Serif" font-size="10.00">effective_duration(t, s) = pert_max</text>
</g>
<!-- ex&#45;&gt;F -->
<g id="edge1" class="edge">
<title>ex&#45;&gt;F</title>
<path fill="none" stroke="#555555" d="M173.19,-222.12C173.19,-214.18 173.19,-205.53 173.19,-197.55"/>
<polygon fill="#555555" stroke="#555555" points="176.69,-197.64 173.19,-187.64 169.69,-197.64 176.69,-197.64"/>
</g>
<!-- calc -->
<g id="node3" class="node">
<title>calc</title>
<path fill="#d8f5d8" stroke="black" d="M117.94,-110.88C117.94,-110.88 82.44,-110.88 82.44,-110.88 76.44,-110.88 70.44,-104.88 70.44,-98.88 70.44,-98.88 70.44,-86.88 70.44,-86.88 70.44,-80.88 76.44,-74.88 82.44,-74.88 82.44,-74.88 117.94,-74.88 117.94,-74.88 123.94,-74.88 129.94,-80.88 129.94,-86.88 129.94,-86.88 129.94,-98.88 129.94,-98.88 129.94,-104.88 123.94,-110.88 117.94,-110.88"/>
<text xml:space="preserve" text-anchor="middle" x="100.19" y="-89" font-family="Helvetica,sans-Serif" font-size="10.00">= 12 days</text>
</g>
<!-- F&#45;&gt;calc -->
<g id="edge2" class="edge">
<title>F&#45;&gt;calc</title>
<path fill="none" stroke="#555555" d="M155.89,-149.48C146.86,-140.47 135.65,-129.27 125.65,-119.3"/>
<polygon fill="#555555" stroke="#555555" points="128.24,-116.93 118.69,-112.34 123.29,-121.89 128.24,-116.93"/>
</g>
<!-- use -->
<g id="node4" class="node">
<title>use</title>
<polygon fill="#fffbe6" stroke="black" points="338.19,-113.75 148.19,-113.75 148.19,-72 344.19,-72 344.19,-107.75 338.19,-113.75"/>
<polyline fill="none" stroke="black" points="338.19,-113.75 338.19,-107.75"/>
<polyline fill="none" stroke="black" points="344.19,-107.75 338.19,-107.75"/>
<text xml:space="preserve" text-anchor="middle" x="246.19" y="-100.25" font-family="Helvetica,sans-Serif" font-size="10.00">Use: worst case. Plan every task at its</text>
<text xml:space="preserve" text-anchor="middle" x="246.19" y="-89" font-family="Helvetica,sans-Serif" font-size="10.00">pessimistic estimate &#45; the safest, longest</text>
<text xml:space="preserve" text-anchor="middle" x="246.19" y="-77.75" font-family="Helvetica,sans-Serif" font-size="10.00">schedule. Good for commit&#45;by dates.</text>
</g>
<!-- F&#45;&gt;use -->
<g id="edge3" class="edge">
<title>F&#45;&gt;use</title>
<path fill="none" stroke="#555555" stroke-dasharray="5,2" d="M190.49,-149.48C201.11,-138.87 214.77,-125.24 225.9,-114.12"/>
</g>
<!-- cmp -->
<g id="node5" class="node">
<title>cmp</title>
<polygon fill="#eef4ff" stroke="black" points="192.56,-36 1.81,-36 1.81,0 198.56,0 198.56,-30 192.56,-36"/>
<polyline fill="none" stroke="black" points="192.56,-36 192.56,-30"/>
<polyline fill="none" stroke="black" points="198.56,-30 192.56,-30"/>
<text xml:space="preserve" text-anchor="middle" x="100.19" y="-14.12" font-family="Helvetica,sans-Serif" font-size="10.00">vs earliest&#45;deadline 5 d, risk&#45;weighted 6 d</text>
</g>
<!-- calc&#45;&gt;cmp -->
<g id="edge4" class="edge">
<title>calc&#45;&gt;cmp</title>
<path fill="none" stroke="#555555" stroke-dasharray="5,2" d="M100.19,-74.6C100.19,-63.07 100.19,-47.96 100.19,-36.4"/>
</g>
</g>
</svg>
