<?xml version="1.0" encoding="UTF-8" standalone="no"?>
<!DOCTYPE svg PUBLIC "-//W3C//DTD SVG 1.1//EN"
 "http://www.w3.org/Graphics/SVG/1.1/DTD/svg11.dtd">
<!-- Generated by graphviz version 15.0.0 (20260523.1842)
 -->
<!-- Title: scheduler Pages: 1 -->
<svg width="854pt" height="1331pt"
 viewBox="0.00 0.00 854.00 1331.00" xmlns="http://www.w3.org/2000/svg" xmlns:xlink="http://www.w3.org/1999/xlink">
<g id="graph0" class="graph" transform="scale(1 1) rotate(0) translate(4 1326.75)">
<title>scheduler</title>
<polygon fill="white" stroke="none" points="-4,4 -4,-1326.75 850,-1326.75 850,4 -4,4"/>
<text xml:space="preserve" text-anchor="middle" x="423" y="-1303.55" font-family="Helvetica,sans-Serif" font-size="16.00">Project Mayhem Management &#45; Scheduler / Assignment / Gantt</text>
<g id="clust1" class="cluster">
<title>cluster_assign</title>
<polygon fill="#eef4ff" stroke="#eef4ff" points="210,-370.75 210,-1039.25 580,-1039.25 580,-370.75 210,-370.75"/>
<text xml:space="preserve" text-anchor="middle" x="395" y="-1020.05" font-family="Helvetica,sans-Serif" font-size="16.00">assign_members_greedy(company, idx, strategy)</text>
</g>
<g id="clust2" class="cluster">
<title>cluster_sp</title>
<polygon fill="#fff4e6" stroke="#fff4e6" points="588,-452.5 588,-772 838,-772 838,-452.5 588,-452.5"/>
<text xml:space="preserve" text-anchor="middle" x="713" y="-752.8" font-family="Helvetica,sans-Serif" font-size="16.00">schedule_project (CPM)</text>
</g>
<g id="clust3" class="cluster">
<title>cluster_res</title>
<polygon fill="#f3e8ff" stroke="#f3e8ff" points="8,-8 8,-343 324,-343 324,-8 8,-8"/>
<text xml:space="preserve" text-anchor="middle" x="166" y="-323.8" font-family="Helvetica,sans-Serif" font-size="16.00">resolve_resource_overlaps (fixpoint)</text>
</g>
<!-- A -->
<g id="node1" class="node">
<title>A</title>
<polygon fill="none" stroke="black" points="535,-1298.25 405,-1298.25 405,-1262.25 535,-1262.25 535,-1298.25"/>
<text xml:space="preserve" text-anchor="middle" x="470" y="-1276.38" font-family="Helvetica,sans-Serif" font-size="10.00">menu_schedule: Generate</text>
</g>
<!-- B -->
<g id="node2" class="node">
<title>B</title>
<polygon fill="none" stroke="black" points="470,-1225.25 258.25,-1194.75 470,-1164.25 681.75,-1194.75 470,-1225.25"/>
<text xml:space="preserve" text-anchor="middle" x="470" y="-1196.5" font-family="Helvetica,sans-Serif" font-size="10.00">pick strategy &#160;(effective_duration)</text>
<text xml:space="preserve" text-anchor="middle" x="470" y="-1185.25" font-family="Helvetica,sans-Serif" font-size="10.00">earliest&#45;deadline / risk&#45;weighted / pessimistic</text>
</g>
<!-- A&#45;&gt;B -->
<g id="edge1" class="edge">
<title>A&#45;&gt;B</title>
<path fill="none" stroke="#555555" d="M470,-1261.95C470,-1254.64 470,-1245.79 470,-1236.97"/>
<polygon fill="#555555" stroke="#555555" points="473.5,-1237.04 470,-1227.04 466.5,-1237.04 473.5,-1237.04"/>
</g>
<!-- P -->
<g id="node3" class="node">
<title>P</title>
<polygon fill="none" stroke="black" points="470,-1127.25 316,-1096.75 470,-1066.25 624,-1096.75 470,-1127.25"/>
<text xml:space="preserve" text-anchor="middle" x="470" y="-1098.5" font-family="Helvetica,sans-Serif" font-size="10.00">pick policy &#160;(assign_set_policy)</text>
<text xml:space="preserve" text-anchor="middle" x="470" y="-1087.25" font-family="Helvetica,sans-Serif" font-size="10.00">earliest&#45;free / balanced / best&#45;fit</text>
</g>
<!-- B&#45;&gt;P -->
<g id="edge2" class="edge">
<title>B&#45;&gt;P</title>
<path fill="none" stroke="#555555" d="M470,-1163.9C470,-1156.04 470,-1147.43 470,-1139.08"/>
<polygon fill="#555555" stroke="#555555" points="473.5,-1139.09 470,-1129.09 466.5,-1139.09 473.5,-1139.09"/>
</g>
<!-- X0 -->
<g id="node4" class="node">
<title>X0</title>
<polygon fill="none" stroke="black" points="566.88,-1006.75 373.12,-1006.75 373.12,-953.75 566.88,-953.75 566.88,-1006.75"/>
<text xml:space="preserve" text-anchor="middle" x="470" y="-993.25" font-family="Helvetica,sans-Serif" font-size="10.00">compute_external_floor</text>
<text xml:space="preserve" text-anchor="middle" x="470" y="-982" font-family="Helvetica,sans-Serif" font-size="10.00">cross&#45;project member calendar:</text>
<text xml:space="preserve" text-anchor="middle" x="470" y="-970.75" font-family="Helvetica,sans-Serif" font-size="10.00">seed member_free_day + Task.min_start</text>
<text xml:space="preserve" text-anchor="middle" x="470" y="-959.5" font-family="Helvetica,sans-Serif" font-size="10.00">from commitments in OTHER projects</text>
</g>
<!-- P&#45;&gt;X0 -->
<g id="edge12" class="edge">
<title>P&#45;&gt;X0</title>
<path fill="none" stroke="#555555" d="M470,-1065.97C470,-1051.39 470,-1033.71 470,-1018.27"/>
<polygon fill="#555555" stroke="#555555" points="473.5,-1018.51 470,-1008.51 466.5,-1018.51 473.5,-1018.51"/>
</g>
<!-- C1 -->
<g id="node5" class="node">
<title>C1</title>
<polygon fill="none" stroke="black" points="572.12,-916.75 367.88,-916.75 367.88,-880.75 572.12,-880.75 572.12,-916.75"/>
<text xml:space="preserve" text-anchor="middle" x="470" y="-900.5" font-family="Helvetica,sans-Serif" font-size="10.00">clear_work_assignments</text>
<text xml:space="preserve" text-anchor="middle" x="470" y="-889.25" font-family="Helvetica,sans-Serif" font-size="10.00">(keep manually_assigned / fixed_time pins)</text>
</g>
<!-- X0&#45;&gt;C1 -->
<g id="edge3" class="edge">
<title>X0&#45;&gt;C1</title>
<path fill="none" stroke="#555555" d="M470,-953.66C470,-945.61 470,-936.66 470,-928.41"/>
<polygon fill="#555555" stroke="#555555" points="473.5,-928.52 470,-918.52 466.5,-928.52 473.5,-928.52"/>
</g>
<!-- C2 -->
<g id="node6" class="node">
<title>C2</title>
<polygon fill="none" stroke="black" points="549.38,-843.75 418.62,-843.75 418.62,-807.75 549.38,-807.75 549.38,-843.75"/>
<text xml:space="preserve" text-anchor="middle" x="484" y="-821.88" font-family="Helvetica,sans-Serif" font-size="10.00">schedule_project(strategy)</text>
</g>
<!-- C1&#45;&gt;C2 -->
<g id="edge4" class="edge">
<title>C1&#45;&gt;C2</title>
<path fill="none" stroke="#555555" d="M473.39,-880.56C474.9,-872.89 476.73,-863.64 478.43,-854.99"/>
<polygon fill="#555555" stroke="#555555" points="481.85,-855.75 480.35,-845.26 474.98,-854.4 481.85,-855.75"/>
</g>
<!-- C3 -->
<g id="node7" class="node">
<title>C3</title>
<polygon fill="none" stroke="black" points="484,-752 414.75,-721.5 484,-691 553.25,-721.5 484,-752"/>
<text xml:space="preserve" text-anchor="middle" x="484" y="-723.25" font-family="Helvetica,sans-Serif" font-size="10.00">pass loop</text>
<text xml:space="preserve" text-anchor="middle" x="484" y="-712" font-family="Helvetica,sans-Serif" font-size="10.00">(&lt;= n^2 + 1)</text>
</g>
<!-- C2&#45;&gt;C3 -->
<g id="edge5" class="edge">
<title>C2&#45;&gt;C3</title>
<path fill="none" stroke="#555555" d="M484,-807.4C484,-795.42 484,-778.95 484,-763.7"/>
<polygon fill="#555555" stroke="#555555" points="487.5,-763.89 484,-753.89 480.5,-763.89 487.5,-763.89"/>
</g>
<!-- S1 -->
<g id="node13" class="node">
<title>S1</title>
<polygon fill="none" stroke="black" points="773.25,-739.5 614.75,-739.5 614.75,-703.5 773.25,-703.5 773.25,-739.5"/>
<text xml:space="preserve" text-anchor="middle" x="694" y="-723.25" font-family="Helvetica,sans-Serif" font-size="10.00">topo_sort</text>
<text xml:space="preserve" text-anchor="middle" x="694" y="-712" font-family="Helvetica,sans-Serif" font-size="10.00">(Kahn: pre + work_pre in&#45;degree)</text>
</g>
<!-- C2&#45;&gt;S1 -->
<g id="edge16" class="edge">
<title>C2&#45;&gt;S1</title>
<path fill="none" stroke="#555555" stroke-dasharray="1,5" d="M519.62,-807.4C555.07,-790.14 609.62,-763.59 648.25,-744.78"/>
<polygon fill="#555555" stroke="#555555" points="649.38,-748.12 656.84,-740.59 646.32,-741.82 649.38,-748.12"/>
<text xml:space="preserve" text-anchor="middle" x="579.57" y="-781.2" font-family="Helvetica,sans-Serif" font-size="9.00">calls</text>
</g>
<!-- C4 -->
<g id="node8" class="node">
<title>C4</title>
<polygon fill="none" stroke="black" points="474.5,-651.12 347.5,-651.12 347.5,-615.12 474.5,-615.12 474.5,-651.12"/>
<text xml:space="preserve" text-anchor="middle" x="411" y="-629.25" font-family="Helvetica,sans-Serif" font-size="10.00">sort tasks by sched_start</text>
</g>
<!-- C3&#45;&gt;C4 -->
<g id="edge6" class="edge">
<title>C3&#45;&gt;C4</title>
<path fill="none" stroke="#555555" d="M465.58,-698.7C455.65,-686.96 443.34,-672.4 432.93,-660.07"/>
<polygon fill="#555555" stroke="#555555" points="435.84,-658.1 426.72,-652.72 430.5,-662.62 435.84,-658.1"/>
</g>
<!-- C5 -->
<g id="node9" class="node">
<title>C5</title>
<polygon fill="none" stroke="black" points="483.38,-575.25 292.62,-575.25 292.62,-533.5 483.38,-533.5 483.38,-575.25"/>
<text xml:space="preserve" text-anchor="middle" x="388" y="-561.75" font-family="Helvetica,sans-Serif" font-size="10.00">assignment_pass:</text>
<text xml:space="preserve" text-anchor="middle" x="388" y="-550.5" font-family="Helvetica,sans-Serif" font-size="10.00">find_best_member per task (policy key),</text>
<text xml:space="preserve" text-anchor="middle" x="388" y="-539.25" font-family="Helvetica,sans-Serif" font-size="10.00">add work_pre on member conflict</text>
</g>
<!-- C4&#45;&gt;C5 -->
<g id="edge7" class="edge">
<title>C4&#45;&gt;C5</title>
<path fill="none" stroke="#555555" d="M405.78,-614.71C403.29,-606.38 400.22,-596.15 397.34,-586.55"/>
<polygon fill="#555555" stroke="#555555" points="400.75,-585.74 394.53,-577.16 394.05,-587.74 400.75,-585.74"/>
</g>
<!-- C6 -->
<g id="node10" class="node">
<title>C6</title>
<polygon fill="none" stroke="black" points="388,-496.5 326.91,-478.5 388,-460.5 449.09,-478.5 388,-496.5"/>
<text xml:space="preserve" text-anchor="middle" x="388" y="-474.62" font-family="Helvetica,sans-Serif" font-size="10.00">all assigned?</text>
</g>
<!-- C5&#45;&gt;C6 -->
<g id="edge8" class="edge">
<title>C5&#45;&gt;C6</title>
<path fill="none" stroke="#555555" d="M388,-533.19C388,-525.41 388,-516.37 388,-507.95"/>
<polygon fill="#555555" stroke="#555555" points="391.5,-508.17 388,-498.17 384.5,-508.17 391.5,-508.17"/>
</g>
<!-- C7 -->
<g id="node11" class="node">
<title>C7</title>
<polygon fill="none" stroke="black" points="567.38,-414.75 436.62,-414.75 436.62,-378.75 567.38,-378.75 567.38,-414.75"/>
<text xml:space="preserve" text-anchor="middle" x="502" y="-392.88" font-family="Helvetica,sans-Serif" font-size="10.00">schedule_project(strategy)</text>
</g>
<!-- C6&#45;&gt;C7 -->
<g id="edge9" class="edge">
<title>C6&#45;&gt;C7</title>
<path fill="none" stroke="#555555" d="M402.24,-464.69C412.9,-455.36 428.04,-442.68 442.25,-432.75 448.01,-428.73 454.25,-424.72 460.45,-420.93"/>
<polygon fill="#555555" stroke="#555555" points="462,-424.08 468.79,-415.95 458.41,-418.07 462,-424.08"/>
<text xml:space="preserve" text-anchor="middle" x="469.62" y="-433.95" font-family="Helvetica,sans-Serif" font-size="9.00">no (progress)</text>
</g>
<!-- C8 -->
<g id="node12" class="node">
<title>C8</title>
<polygon fill="none" stroke="black" points="418.12,-414.75 285.88,-414.75 285.88,-378.75 418.12,-378.75 418.12,-414.75"/>
<text xml:space="preserve" text-anchor="middle" x="352" y="-392.88" font-family="Helvetica,sans-Serif" font-size="10.00">resolve_resource_overlaps</text>
</g>
<!-- C6&#45;&gt;C8 -->
<g id="edge11" class="edge">
<title>C6&#45;&gt;C8</title>
<path fill="none" stroke="#555555" d="M377.36,-463.42C373.07,-457.25 368.35,-449.76 365,-442.5 362.63,-437.35 360.58,-431.67 358.86,-426.13"/>
<polygon fill="#555555" stroke="#555555" points="362.26,-425.32 356.19,-416.64 355.52,-427.22 362.26,-425.32"/>
<text xml:space="preserve" text-anchor="middle" x="386" y="-433.95" font-family="Helvetica,sans-Serif" font-size="9.00">yes / stuck</text>
</g>
<!-- C7&#45;&gt;C3 -->
<g id="edge10" class="edge">
<title>C7&#45;&gt;C3</title>
<path fill="none" stroke="#555555" d="M502,-415.17C502,-431.33 502,-456.04 502,-477.5 502,-634.12 502,-634.12 502,-634.12 502,-650.48 498.87,-668.22 495.22,-683.34"/>
<polygon fill="#555555" stroke="#555555" points="491.87,-682.31 492.75,-692.87 498.65,-684.07 491.87,-682.31"/>
</g>
<!-- R1 -->
<g id="node17" class="node">
<title>R1</title>
<polygon fill="none" stroke="black" points="315.75,-310.5 226.25,-310.5 226.25,-274.5 315.75,-274.5 315.75,-310.5"/>
<text xml:space="preserve" text-anchor="middle" x="271" y="-288.62" font-family="Helvetica,sans-Serif" font-size="10.00">schedule_project</text>
</g>
<!-- C8&#45;&gt;R1 -->
<g id="edge22" class="edge">
<title>C8&#45;&gt;R1</title>
<path fill="none" stroke="#555555" stroke-dasharray="1,5" d="M338.26,-378.4C325.52,-362.32 306.38,-338.16 291.77,-319.72"/>
<polygon fill="#555555" stroke="#555555" points="294.7,-317.78 285.75,-312.12 289.21,-322.13 294.7,-317.78"/>
<text xml:space="preserve" text-anchor="middle" x="332.86" y="-352.2" font-family="Helvetica,sans-Serif" font-size="9.00">calls</text>
</g>
<!-- D -->
<g id="node22" class="node">
<title>D</title>
<polygon fill="none" stroke="black" points="472.38,-310.5 341.62,-310.5 341.62,-274.5 472.38,-274.5 472.38,-310.5"/>
<text xml:space="preserve" text-anchor="middle" x="407" y="-288.62" font-family="Helvetica,sans-Serif" font-size="10.00">schedule_project(strategy)</text>
</g>
<!-- C8&#45;&gt;D -->
<g id="edge23" class="edge">
<title>C8&#45;&gt;D</title>
<path fill="none" stroke="#555555" d="M361.33,-378.4C369.78,-362.69 382.39,-339.26 392.21,-320.99"/>
<polygon fill="#555555" stroke="#555555" points="395.25,-322.73 396.91,-312.26 389.09,-319.41 395.25,-322.73"/>
</g>
<!-- S2 -->
<g id="node14" class="node">
<title>S2</title>
<polygon fill="none" stroke="black" points="829.75,-654 596.25,-654 596.25,-612.25 829.75,-612.25 829.75,-654"/>
<text xml:space="preserve" text-anchor="middle" x="713" y="-640.5" font-family="Helvetica,sans-Serif" font-size="10.00">forward_pass</text>
<text xml:space="preserve" text-anchor="middle" x="713" y="-629.25" font-family="Helvetica,sans-Serif" font-size="10.00">sched_start = max(pre, work_pre ends, min_start)</text>
<text xml:space="preserve" text-anchor="middle" x="713" y="-618" font-family="Helvetica,sans-Serif" font-size="10.00">fixed_time blocks keep their window</text>
</g>
<!-- S1&#45;&gt;S2 -->
<g id="edge13" class="edge">
<title>S1&#45;&gt;S2</title>
<path fill="none" stroke="#555555" d="M697.84,-703.02C700.22,-692.23 703.33,-678.06 706.12,-665.39"/>
<polygon fill="#555555" stroke="#555555" points="709.51,-666.3 708.24,-655.78 702.67,-664.8 709.51,-666.3"/>
</g>
<!-- S3 -->
<g id="node15" class="node">
<title>S3</title>
<polygon fill="none" stroke="black" points="783.62,-572.38 642.38,-572.38 642.38,-536.38 783.62,-536.38 783.62,-572.38"/>
<text xml:space="preserve" text-anchor="middle" x="713" y="-556.12" font-family="Helvetica,sans-Serif" font-size="10.00">backward_pass</text>
<text xml:space="preserve" text-anchor="middle" x="713" y="-544.88" font-family="Helvetica,sans-Serif" font-size="10.00">latest_start, slack, is_critical</text>
</g>
<!-- S2&#45;&gt;S3 -->
<g id="edge14" class="edge">
<title>S2&#45;&gt;S3</title>
<path fill="none" stroke="#555555" d="M713,-611.96C713,-603.5 713,-593.5 713,-584.28"/>
<polygon fill="#555555" stroke="#555555" points="716.5,-584.31 713,-574.31 709.5,-584.31 716.5,-584.31"/>
</g>
<!-- S4 -->
<g id="node16" class="node">
<title>S4</title>
<polygon fill="none" stroke="black" points="758.88,-496.5 667.12,-496.5 667.12,-460.5 758.88,-460.5 758.88,-496.5"/>
<text xml:space="preserve" text-anchor="middle" x="713" y="-474.62" font-family="Helvetica,sans-Serif" font-size="10.00">stamp topo_order</text>
</g>
<!-- S3&#45;&gt;S4 -->
<g id="edge15" class="edge">
<title>S3&#45;&gt;S4</title>
<path fill="none" stroke="#555555" d="M713,-536.24C713,-527.91 713,-517.67 713,-508.19"/>
<polygon fill="#555555" stroke="#555555" points="716.5,-508.31 713,-498.31 709.5,-508.31 716.5,-508.31"/>
</g>
<!-- R2 -->
<g id="node18" class="node">
<title>R2</title>
<polygon fill="none" stroke="black" points="234.25,-234.62 135.75,-234.62 135.75,-198.62 234.25,-198.62 234.25,-234.62"/>
<text xml:space="preserve" text-anchor="middle" x="185" y="-218.38" font-family="Helvetica,sans-Serif" font-size="10.00">group by assignee,</text>
<text xml:space="preserve" text-anchor="middle" x="185" y="-207.12" font-family="Helvetica,sans-Serif" font-size="10.00">sort by start</text>
</g>
<!-- R1&#45;&gt;R2 -->
<g id="edge17" class="edge">
<title>R1&#45;&gt;R2</title>
<path fill="none" stroke="#555555" d="M251.05,-274.37C239.95,-264.83 225.94,-252.8 213.69,-242.27"/>
<polygon fill="#555555" stroke="#555555" points="216.15,-239.77 206.28,-235.91 211.59,-245.08 216.15,-239.77"/>
</g>
<!-- R3 -->
<g id="node19" class="node">
<title>R3</title>
<polygon fill="none" stroke="black" points="134,-158.75 16,-128.25 134,-97.75 252,-128.25 134,-158.75"/>
<text xml:space="preserve" text-anchor="middle" x="134" y="-130" font-family="Helvetica,sans-Serif" font-size="10.00">adjacent same&#45;member</text>
<text xml:space="preserve" text-anchor="middle" x="134" y="-118.75" font-family="Helvetica,sans-Serif" font-size="10.00">overlap?</text>
</g>
<!-- R2&#45;&gt;R3 -->
<g id="edge18" class="edge">
<title>R2&#45;&gt;R3</title>
<path fill="none" stroke="#555555" d="M174.68,-198.15C169.05,-188.61 161.87,-176.46 155.12,-165.01"/>
<polygon fill="#555555" stroke="#555555" points="158.21,-163.36 150.11,-156.53 152.18,-166.92 158.21,-163.36"/>
</g>
<!-- R4 -->
<g id="node20" class="node">
<title>R4</title>
<polygon fill="none" stroke="black" points="316.25,-52 127.75,-52 127.75,-16 316.25,-16 316.25,-52"/>
<text xml:space="preserve" text-anchor="middle" x="222" y="-35.75" font-family="Helvetica,sans-Serif" font-size="10.00">add work_pre (earlier &#45;&gt; later);</text>
<text xml:space="preserve" text-anchor="middle" x="222" y="-24.5" font-family="Helvetica,sans-Serif" font-size="10.00">if a fixed_time block: flexible task waits</text>
</g>
<!-- R3&#45;&gt;R4 -->
<g id="edge19" class="edge">
<title>R3&#45;&gt;R4</title>
<path fill="none" stroke="#555555" d="M156.66,-103.49C169.31,-90.23 185.07,-73.71 197.94,-60.22"/>
<polygon fill="#555555" stroke="#555555" points="200.11,-63.01 204.48,-53.36 195.05,-58.18 200.11,-63.01"/>
<text xml:space="preserve" text-anchor="middle" x="195.59" y="-71.2" font-family="Helvetica,sans-Serif" font-size="9.00">yes</text>
</g>
<!-- R5 -->
<g id="node21" class="node">
<title>R5</title>
<polygon fill="none" stroke="black" points="109.62,-52 16.38,-52 16.38,-16 109.62,-16 109.62,-52"/>
<text xml:space="preserve" text-anchor="middle" x="63" y="-30.12" font-family="Helvetica,sans-Serif" font-size="10.00">done: no overlaps</text>
</g>
<!-- R3&#45;&gt;R5 -->
<g id="edge21" class="edge">
<title>R3&#45;&gt;R5</title>
<path fill="none" stroke="#555555" d="M114.97,-102.53C105.19,-89.82 93.26,-74.32 83.3,-61.38"/>
<polygon fill="#555555" stroke="#555555" points="86.25,-59.47 77.38,-53.68 80.7,-63.74 86.25,-59.47"/>
<text xml:space="preserve" text-anchor="middle" x="121.12" y="-71.2" font-family="Helvetica,sans-Serif" font-size="9.00">none added</text>
</g>
<!-- R4&#45;&gt;R1 -->
<g id="edge20" class="edge">
<title>R4&#45;&gt;R1</title>
<path fill="none" stroke="#555555" d="M236.23,-52.47C245.1,-64.44 255.78,-81.1 261,-97.75 278.69,-154.16 276.82,-224.29 273.9,-262.81"/>
<polygon fill="#555555" stroke="#555555" points="270.43,-262.38 273.07,-272.64 277.4,-262.97 270.43,-262.38"/>
</g>
<!-- E -->
<g id="node23" class="node">
<title>E</title>
<polygon fill="#d8f5d8" stroke="black" points="501,-237.5 335,-237.5 335,-195.75 501,-195.75 501,-237.5"/>
<text xml:space="preserve" text-anchor="middle" x="418" y="-224" font-family="Helvetica,sans-Serif" font-size="10.00">render_gantt</text>
<text xml:space="preserve" text-anchor="middle" x="418" y="-212.75" font-family="Helvetica,sans-Serif" font-size="10.00">(rows by start, DAG&#45;order column,</text>
<text xml:space="preserve" text-anchor="middle" x="418" y="-201.5" font-family="Helvetica,sans-Serif" font-size="10.00">absolute company timeline + ruler)</text>
</g>
<!-- D&#45;&gt;E -->
<g id="edge24" class="edge">
<title>D&#45;&gt;E</title>
<path fill="none" stroke="#555555" d="M409.55,-274.37C410.67,-266.86 412.02,-257.82 413.3,-249.17"/>
<polygon fill="#555555" stroke="#555555" points="416.76,-249.72 414.77,-239.31 409.84,-248.68 416.76,-249.72"/>
</g>
<!-- F -->
<g id="node24" class="node">
<title>F</title>
<polygon fill="none" stroke="black" points="510.38,-146.25 331.62,-146.25 331.62,-110.25 510.38,-110.25 510.38,-146.25"/>
<text xml:space="preserve" text-anchor="middle" x="421" y="-130" font-family="Helvetica,sans-Serif" font-size="10.00">resolve_unassigned</text>
<text xml:space="preserve" text-anchor="middle" x="421" y="-118.75" font-family="Helvetica,sans-Serif" font-size="10.00">(cascade: suggest off&#45;roster member)</text>
</g>
<!-- E&#45;&gt;F -->
<g id="edge25" class="edge">
<title>E&#45;&gt;F</title>
<path fill="none" stroke="#555555" d="M418.7,-195.59C419.09,-184.34 419.58,-170.1 420.01,-157.71"/>
<polygon fill="#555555" stroke="#555555" points="423.5,-158.18 420.35,-148.06 416.5,-157.93 423.5,-158.18"/>
</g>
<!-- G -->
<g id="node25" class="node">
<title>G</title>
<polygon fill="none" stroke="black" points="462,-52 380,-52 380,-16 462,-16 462,-52"/>
<text xml:space="preserve" text-anchor="middle" x="421" y="-30.12" font-family="Helvetica,sans-Serif" font-size="10.00">company_save</text>
</g>
<!-- F&#45;&gt;G -->
<g id="edge26" class="edge">
<title>F&#45;&gt;G</title>
<path fill="none" stroke="#555555" d="M421,-109.9C421,-96.88 421,-78.78 421,-63.63"/>
<polygon fill="#555555" stroke="#555555" points="424.5,-63.79 421,-53.79 417.5,-63.79 424.5,-63.79"/>
</g>
</g>
</svg>
