<?xml version="1.0" encoding="UTF-8" standalone="no"?>
<!DOCTYPE svg PUBLIC "-//W3C//DTD SVG 1.1//EN"
 "http://www.w3.org/Graphics/SVG/1.1/DTD/svg11.dtd">
<!-- Generated by graphviz version 15.0.0 (20260523.1842)
 -->
<!-- Title: sched_risk Pages: 1 -->
<svg width="396pt" height="324pt"
 viewBox="0.00 0.00 396.00 324.00" xmlns="http://www.w3.org/2000/svg" xmlns:xlink="http://www.w3.org/1999/xlink">
<g id="graph0" class="graph" transform="scale(1 1) rotate(0) translate(4 319.5)">
<title>sched_risk</title>
<polygon fill="white" stroke="none" points="-4,4 -4,-319.5 392.25,-319.5 392.25,4 -4,4"/>
<text xml:space="preserve" text-anchor="middle" x="194.12" y="-297.25" font-family="Helvetica,sans-Serif" font-size="15.00">Scheduling Strategy 2/3: Risk&#45;Weighted Critical Path</text>
<!-- ex -->
<g id="node1" class="node">
<title>ex</title>
<path fill="#f7f9fc" stroke="black" d="M117.38,-233.5C117.38,-233.5 274.38,-233.5 274.38,-233.5 280.38,-233.5 286.38,-239.5 286.38,-245.5 286.38,-245.5 286.38,-279.25 286.38,-279.25 286.38,-285.25 280.38,-291.25 274.38,-291.25 274.38,-291.25 117.38,-291.25 117.38,-291.25 111.38,-291.25 105.38,-285.25 105.38,-279.25 105.38,-279.25 105.38,-245.5 105.38,-245.5 105.38,-239.5 111.38,-233.5 117.38,-233.5"/>
<text xml:space="preserve" text-anchor="middle" x="195.88" y="-277.75" font-family="Helvetica,sans-Serif" font-size="10.00">shared example task</text>
<polyline fill="none" stroke="black" points="105.38,-272 286.38,-272"/>
<text xml:space="preserve" text-anchor="middle" x="195.88" y="-258.5" font-family="Helvetica,sans-Serif" font-size="10.00">min=2 likely=4 max=12 risk=0.5</text>
<polyline fill="none" stroke="black" points="105.38,-252.75 286.38,-252.75"/>
<text xml:space="preserve" text-anchor="middle" x="195.88" y="-239.25" font-family="Helvetica,sans-Serif" font-size="10.00">pert_expected = (2 + 4*4 + 12) / 6 = 5</text>
</g>
<!-- F -->
<g id="node2" class="node">
<title>F</title>
<path fill="#ffe9cc" stroke="black" d="M258.62,-197C258.62,-197 133.12,-197 133.12,-197 127.12,-197 121.12,-191 121.12,-185 121.12,-185 121.12,-173 121.12,-173 121.12,-167 127.12,-161 133.12,-161 133.12,-161 258.62,-161 258.62,-161 264.62,-161 270.62,-167 270.62,-173 270.62,-173 270.62,-185 270.62,-185 270.62,-191 264.62,-197 258.62,-197"/>
<text xml:space="preserve" text-anchor="middle" x="195.88" y="-180.75" font-family="Helvetica,sans-Serif" font-size="10.00">effective_duration(t, s) =</text>
<text xml:space="preserve" text-anchor="middle" x="195.88" y="-169.5" font-family="Helvetica,sans-Serif" font-size="10.00">pert_expected * (1 + risk * 0.5)</text>
</g>
<!-- ex&#45;&gt;F -->
<g id="edge1" class="edge">
<title>ex&#45;&gt;F</title>
<path fill="none" stroke="#555555" d="M195.88,-233.37C195.88,-225.43 195.88,-216.78 195.88,-208.8"/>
<polygon fill="#555555" stroke="#555555" points="199.38,-208.89 195.88,-198.89 192.38,-208.89 199.38,-208.89"/>
</g>
<!-- calc -->
<g id="node3" class="node">
<title>calc</title>
<path fill="#d8f5d8" stroke="black" d="M173.12,-116.5C173.12,-116.5 20.62,-116.5 20.62,-116.5 14.62,-116.5 8.62,-110.5 8.62,-104.5 8.62,-104.5 8.62,-92.5 8.62,-92.5 8.62,-86.5 14.62,-80.5 20.62,-80.5 20.62,-80.5 173.12,-80.5 173.12,-80.5 179.12,-80.5 185.12,-86.5 185.12,-92.5 185.12,-92.5 185.12,-104.5 185.12,-104.5 185.12,-110.5 179.12,-116.5 173.12,-116.5"/>
<text xml:space="preserve" text-anchor="middle" x="96.88" y="-100.25" font-family="Helvetica,sans-Serif" font-size="10.00">= 5 * (1 + 0.5 * 0.5) = 5 * 1.25 = 6.25</text>
<text xml:space="preserve" text-anchor="middle" x="96.88" y="-89" font-family="Helvetica,sans-Serif" font-size="10.00">&#45;&gt; 6 days</text>
</g>
<!-- F&#45;&gt;calc -->
<g id="edge2" class="edge">
<title>F&#45;&gt;calc</title>
<path fill="none" stroke="#555555" d="M173.9,-160.58C160.32,-149.81 142.67,-135.82 127.7,-123.94"/>
<polygon fill="#555555" stroke="#555555" points="129.98,-121.28 119.97,-117.81 125.63,-126.77 129.98,-121.28"/>
</g>
<!-- use -->
<g id="node4" class="node">
<title>use</title>
<polygon fill="#fffbe6" stroke="black" points="382.25,-125 203.5,-125 203.5,-72 388.25,-72 388.25,-119 382.25,-125"/>
<polyline fill="none" stroke="black" points="382.25,-125 382.25,-119"/>
<polyline fill="none" stroke="black" points="388.25,-119 382.25,-119"/>
<text xml:space="preserve" text-anchor="middle" x="295.88" y="-111.5" font-family="Helvetica,sans-Serif" font-size="10.00">Use: hedge. Risky tasks are stretched</text>
<text xml:space="preserve" text-anchor="middle" x="295.88" y="-100.25" font-family="Helvetica,sans-Serif" font-size="10.00">in proportion to their risk, so they are</text>
<text xml:space="preserve" text-anchor="middle" x="295.88" y="-89" font-family="Helvetica,sans-Serif" font-size="10.00">more likely to land on the critical path</text>
<text xml:space="preserve" text-anchor="middle" x="295.88" y="-77.75" font-family="Helvetica,sans-Serif" font-size="10.00">and get protected slack.</text>
</g>
<!-- F&#45;&gt;use -->
<g id="edge3" class="edge">
<title>F&#45;&gt;use</title>
<path fill="none" stroke="#555555" stroke-dasharray="5,2" d="M218.07,-160.58C231.3,-150.19 248.35,-136.81 263.11,-125.22"/>
</g>
<!-- cmp -->
<g id="node5" class="node">
<title>cmp</title>
<polygon fill="#eef4ff" stroke="black" points="187.75,-36 0,-36 0,0 193.75,0 193.75,-30 187.75,-36"/>
<polyline fill="none" stroke="black" points="187.75,-36 187.75,-30"/>
<polyline fill="none" stroke="black" points="193.75,-30 187.75,-30"/>
<text xml:space="preserve" text-anchor="middle" x="96.88" y="-14.12" font-family="Helvetica,sans-Serif" font-size="10.00">vs earliest&#45;deadline 5 d, pessimistic 12 d</text>
</g>
<!-- calc&#45;&gt;cmp -->
<g id="edge4" class="edge">
<title>calc&#45;&gt;cmp</title>
<path fill="none" stroke="#555555" stroke-dasharray="5,2" d="M96.88,-80.08C96.88,-67.07 96.88,-49.37 96.88,-36.37"/>
</g>
</g>
</svg>
