<?xml version="1.0" encoding="UTF-8" standalone="no"?>
<!DOCTYPE svg PUBLIC "-//W3C//DTD SVG 1.1//EN"
 "http://www.w3.org/Graphics/SVG/1.1/DTD/svg11.dtd">
<!-- Generated by graphviz version 15.0.0 (20260523.1842)
 -->
<!-- Title: sched_earliest Pages: 1 -->
<svg width="371pt" height="312pt"
 viewBox="0.00 0.00 371.00 312.00" xmlns="http://www.w3.org/2000/svg" xmlns:xlink="http://www.w3.org/1999/xlink">
<g id="graph0" class="graph" transform="scale(1 1) rotate(0) translate(4 308.25)">
<title>sched_earliest</title>
<polygon fill="white" stroke="none" points="-4,4 -4,-308.25 367.25,-308.25 367.25,4 -4,4"/>
<text xml:space="preserve" text-anchor="middle" x="181.62" y="-286" font-family="Helvetica,sans-Serif" font-size="15.00">Scheduling Strategy 1/3: Earliest&#45;Deadline (nominal)</text>
<!-- ex -->
<g id="node1" class="node">
<title>ex</title>
<path fill="#f7f9fc" stroke="black" d="M97,-222.25C97,-222.25 254,-222.25 254,-222.25 260,-222.25 266,-228.25 266,-234.25 266,-234.25 266,-268 266,-268 266,-274 260,-280 254,-280 254,-280 97,-280 97,-280 91,-280 85,-274 85,-268 85,-268 85,-234.25 85,-234.25 85,-228.25 91,-222.25 97,-222.25"/>
<text xml:space="preserve" text-anchor="middle" x="175.5" y="-266.5" font-family="Helvetica,sans-Serif" font-size="10.00">shared example task</text>
<polyline fill="none" stroke="black" points="85,-260.75 266,-260.75"/>
<text xml:space="preserve" text-anchor="middle" x="175.5" y="-247.25" font-family="Helvetica,sans-Serif" font-size="10.00">min=2 likely=4 max=12 risk=0.5</text>
<polyline fill="none" stroke="black" points="85,-241.5 266,-241.5"/>
<text xml:space="preserve" text-anchor="middle" x="175.5" y="-228" font-family="Helvetica,sans-Serif" font-size="10.00">pert_expected = (2 + 4*4 + 12) / 6 = 5</text>
</g>
<!-- F -->
<g id="node2" class="node">
<title>F</title>
<path fill="#ffe9cc" stroke="black" d="M256.62,-185.75C256.62,-185.75 94.38,-185.75 94.38,-185.75 88.38,-185.75 82.38,-179.75 82.38,-173.75 82.38,-173.75 82.38,-161.75 82.38,-161.75 82.38,-155.75 88.38,-149.75 94.38,-149.75 94.38,-149.75 256.62,-149.75 256.62,-149.75 262.62,-149.75 268.62,-155.75 268.62,-161.75 268.62,-161.75 268.62,-173.75 268.62,-173.75 268.62,-179.75 262.62,-185.75 256.62,-185.75"/>
<text xml:space="preserve" text-anchor="middle" x="175.5" y="-163.88" font-family="Helvetica,sans-Serif" font-size="10.00">effective_duration(t, s) = pert_expected</text>
</g>
<!-- ex&#45;&gt;F -->
<g id="edge1" class="edge">
<title>ex&#45;&gt;F</title>
<path fill="none" stroke="#555555" d="M175.5,-222.12C175.5,-214.18 175.5,-205.53 175.5,-197.55"/>
<polygon fill="#555555" stroke="#555555" points="179,-197.64 175.5,-187.64 172,-197.64 179,-197.64"/>
</g>
<!-- calc -->
<g id="node3" class="node">
<title>calc</title>
<path fill="#d8f5d8" stroke="black" d="M117.62,-110.88C117.62,-110.88 87.38,-110.88 87.38,-110.88 81.38,-110.88 75.38,-104.88 75.38,-98.88 75.38,-98.88 75.38,-86.88 75.38,-86.88 75.38,-80.88 81.38,-74.88 87.38,-74.88 87.38,-74.88 117.62,-74.88 117.62,-74.88 123.62,-74.88 129.62,-80.88 129.62,-86.88 129.62,-86.88 129.62,-98.88 129.62,-98.88 129.62,-104.88 123.62,-110.88 117.62,-110.88"/>
<text xml:space="preserve" text-anchor="middle" x="102.5" y="-89" font-family="Helvetica,sans-Serif" font-size="10.00">= 5 days</text>
</g>
<!-- F&#45;&gt;calc -->
<g id="edge2" class="edge">
<title>F&#45;&gt;calc</title>
<path fill="none" stroke="#555555" d="M158.2,-149.48C149.17,-140.47 137.96,-129.27 127.96,-119.3"/>
<polygon fill="#555555" stroke="#555555" points="130.55,-116.93 121,-112.34 125.6,-121.89 130.55,-116.93"/>
</g>
<!-- use -->
<g id="node4" class="node">
<title>use</title>
<polygon fill="#fffbe6" stroke="black" points="345.25,-113.75 147.75,-113.75 147.75,-72 351.25,-72 351.25,-107.75 345.25,-113.75"/>
<polyline fill="none" stroke="black" points="345.25,-113.75 345.25,-107.75"/>
<polyline fill="none" stroke="black" points="351.25,-107.75 345.25,-107.75"/>
<text xml:space="preserve" text-anchor="middle" x="249.5" y="-100.25" font-family="Helvetica,sans-Serif" font-size="10.00">Use: the plain plan. Schedule on the</text>
<text xml:space="preserve" text-anchor="middle" x="249.5" y="-89" font-family="Helvetica,sans-Serif" font-size="10.00">most&#45;likely estimate, ignore risk.</text>
<text xml:space="preserve" text-anchor="middle" x="249.5" y="-77.75" font-family="Helvetica,sans-Serif" font-size="10.00">Shortest of the three &#45;&gt; tightest makespan.</text>
</g>
<!-- F&#45;&gt;use -->
<g id="edge3" class="edge">
<title>F&#45;&gt;use</title>
<path fill="none" stroke="#555555" stroke-dasharray="5,2" d="M193.04,-149.48C203.81,-138.87 217.65,-125.24 228.94,-114.12"/>
</g>
<!-- cmp -->
<g id="node5" class="node">
<title>cmp</title>
<polygon fill="#eef4ff" stroke="black" points="187,-36 12,-36 12,0 193,0 193,-30 187,-36"/>
<polyline fill="none" stroke="black" points="187,-36 187,-30"/>
<polyline fill="none" stroke="black" points="193,-30 187,-30"/>
<text xml:space="preserve" text-anchor="middle" x="102.5" y="-14.12" font-family="Helvetica,sans-Serif" font-size="10.00">vs risk&#45;weighted 6 d, pessimistic 12 d</text>
</g>
<!-- calc&#45;&gt;cmp -->
<g id="edge4" class="edge">
<title>calc&#45;&gt;cmp</title>
<path fill="none" stroke="#555555" stroke-dasharray="5,2" d="M102.5,-74.6C102.5,-63.07 102.5,-47.96 102.5,-36.4"/>
</g>
</g>
</svg>
