<?xml version="1.0" encoding="UTF-8" standalone="no"?>
<!DOCTYPE svg PUBLIC "-//W3C//DTD SVG 1.1//EN"
 "http://www.w3.org/Graphics/SVG/1.1/DTD/svg11.dtd">
<!-- Generated by graphviz version 15.0.0 (20260523.1842)
 -->
<!-- Title: datamodel Pages: 1 -->
<svg width="2508pt" height="360pt"
 viewBox="0.00 0.00 2508.00 360.00" xmlns="http://www.w3.org/2000/svg" xmlns:xlink="http://www.w3.org/1999/xlink">
<g id="graph0" class="graph" transform="scale(1 1) rotate(0) translate(4 355.62)">
<title>datamodel</title>
<polygon fill="white" stroke="none" points="-4,4 -4,-355.62 2504.25,-355.62 2504.25,4 -4,4"/>
<text xml:space="preserve" text-anchor="middle" x="1250.12" y="-332.43" font-family="Helvetica,sans-Serif" font-size="16.00">Project Mayhem Management &#45; Data Model</text>
<!-- Company -->
<g id="node1" class="node">
<title>Company</title>
<polygon fill="#cfe8ff" stroke="black" points="0,-39 0,-125.75 242,-125.75 242,-39 0,-39"/>
<text xml:space="preserve" text-anchor="middle" x="29" y="-78.5" font-family="Helvetica,sans-Serif" font-size="10.00">Company</text>
<polyline fill="none" stroke="black" points="58,-39 58,-125.75"/>
<text xml:space="preserve" text-anchor="start" x="66" y="-112.25" font-family="Helvetica,sans-Serif" font-size="10.00">name, save_dir</text>
<text xml:space="preserve" text-anchor="start" x="66" y="-101" font-family="Helvetica,sans-Serif" font-size="10.00">members : TeamMember** (owns)</text>
<text xml:space="preserve" text-anchor="start" x="66" y="-89.75" font-family="Helvetica,sans-Serif" font-size="10.00">projects : Project** (owns)</text>
<text xml:space="preserve" text-anchor="start" x="66" y="-78.5" font-family="Helvetica,sans-Serif" font-size="10.00">next_member_id</text>
<text xml:space="preserve" text-anchor="start" x="66" y="-67.25" font-family="Helvetica,sans-Serif" font-size="10.00">&#45;&#45;&#45; derived (not persisted) &#45;&#45;&#45;</text>
<text xml:space="preserve" text-anchor="start" x="66" y="-56" font-family="Helvetica,sans-Serif" font-size="10.00">mem_by_id : TeamMember** (id index)</text>
<text xml:space="preserve" text-anchor="start" x="66" y="-44.75" font-family="Helvetica,sans-Serif" font-size="10.00">mem_by_id_dirty</text>
</g>
<!-- Project -->
<g id="node2" class="node">
<title>Project</title>
<polygon fill="#cfe8ff" stroke="black" points="305.75,-135.75 305.75,-245 559.75,-245 559.75,-135.75 305.75,-135.75"/>
<text xml:space="preserve" text-anchor="middle" x="329.12" y="-186.5" font-family="Helvetica,sans-Serif" font-size="10.00">Project</text>
<polyline fill="none" stroke="black" points="352.5,-135.75 352.5,-245"/>
<text xml:space="preserve" text-anchor="start" x="360.5" y="-231.5" font-family="Helvetica,sans-Serif" font-size="10.00">name, save_dir, start_date : Date</text>
<text xml:space="preserve" text-anchor="start" x="360.5" y="-220.25" font-family="Helvetica,sans-Serif" font-size="10.00">start_node, end_node : Task* (sentinels)</text>
<text xml:space="preserve" text-anchor="start" x="360.5" y="-209" font-family="Helvetica,sans-Serif" font-size="10.00">tasks : Task** (owns)</text>
<text xml:space="preserve" text-anchor="start" x="360.5" y="-197.75" font-family="Helvetica,sans-Serif" font-size="10.00">milestones : Milestone** (owns)</text>
<text xml:space="preserve" text-anchor="start" x="360.5" y="-186.5" font-family="Helvetica,sans-Serif" font-size="10.00">member_ids : DynamicIntArray (roster, IDs)</text>
<text xml:space="preserve" text-anchor="start" x="360.5" y="-175.25" font-family="Helvetica,sans-Serif" font-size="10.00">next_task_id, next_milestone_id</text>
<text xml:space="preserve" text-anchor="start" x="360.5" y="-164" font-family="Helvetica,sans-Serif" font-size="10.00">&#45;&#45;&#45; derived (not persisted) &#45;&#45;&#45;</text>
<text xml:space="preserve" text-anchor="start" x="360.5" y="-152.75" font-family="Helvetica,sans-Serif" font-size="10.00">by_id : Task** (id index)</text>
<text xml:space="preserve" text-anchor="start" x="360.5" y="-141.5" font-family="Helvetica,sans-Serif" font-size="10.00">by_id_dirty</text>
</g>
<!-- Company&#45;&gt;Project -->
<g id="edge2" class="edge">
<title>Company&#45;&gt;Project</title>
<path fill="none" stroke="#555555" d="M242.2,-124.29C258.9,-130.11 276.16,-136.12 293.15,-142.05"/>
<polygon fill="#555555" stroke="#555555" points="293.29,-142.1 300.27,-140.3 304.62,-146.05 297.64,-147.85 293.29,-142.1"/>
<text xml:space="preserve" text-anchor="middle" x="273.88" y="-140.81" font-family="Helvetica,sans-Serif" font-size="9.00">owns *</text>
</g>
<!-- TeamMember -->
<g id="node5" class="node">
<title>TeamMember</title>
<polygon fill="#f7f9fc" stroke="black" points="1325,-69.25 1325,-133.5 1546,-133.5 1546,-69.25 1325,-69.25"/>
<text xml:space="preserve" text-anchor="middle" x="1362.62" y="-97.5" font-family="Helvetica,sans-Serif" font-size="10.00">TeamMember</text>
<polyline fill="none" stroke="black" points="1400.25,-69.25 1400.25,-133.5"/>
<text xml:space="preserve" text-anchor="start" x="1408.25" y="-120" font-family="Helvetica,sans-Serif" font-size="10.00">id, name, role (&#45;&gt; roles.cfg)</text>
<text xml:space="preserve" text-anchor="start" x="1408.25" y="-108.75" font-family="Helvetica,sans-Serif" font-size="10.00">skills (bitmask), availability</text>
<text xml:space="preserve" text-anchor="start" x="1408.25" y="-97.5" font-family="Helvetica,sans-Serif" font-size="10.00">&#45;&#45;&#45; derived (not persisted) &#45;&#45;&#45;</text>
<text xml:space="preserve" text-anchor="start" x="1408.25" y="-86.25" font-family="Helvetica,sans-Serif" font-size="10.00">project_ids : DynamicIntArray</text>
<text xml:space="preserve" text-anchor="start" x="1408.25" y="-75" font-family="Helvetica,sans-Serif" font-size="10.00">tasks : TaskRefArray</text>
</g>
<!-- Company&#45;&gt;TeamMember -->
<g id="edge1" class="edge">
<title>Company&#45;&gt;TeamMember</title>
<path fill="none" stroke="#555555" d="M242.38,-56.08C299.47,-45.78 368.82,-36.38 431.75,-36.38 431.75,-36.38 431.75,-36.38 1049,-36.38 1138.05,-36.38 1237.07,-53.45 1312.46,-70.09"/>
<polygon fill="#555555" stroke="#555555" points="1312.23,-70.04 1318.96,-67.45 1323.94,-72.67 1317.21,-75.26 1312.23,-70.04"/>
<text xml:space="preserve" text-anchor="middle" x="717.5" y="-37.58" font-family="Helvetica,sans-Serif" font-size="9.00">owns *</text>
</g>
<!-- Company&#45;&gt;TeamMember -->
<g id="edge12" class="edge">
<title>Company&#45;&gt;TeamMember</title>
<path fill="none" stroke="#3a8a3a" stroke-dasharray="1,5" d="M242.25,-82.38C299.62,-82.38 369.24,-82.38 431.75,-82.38 431.75,-82.38 431.75,-82.38 1049,-82.38 1137.78,-82.38 1237.91,-87.46 1313.87,-92.37"/>
<polygon fill="#3a8a3a" stroke="#3a8a3a" points="1313.18,-95.84 1323.39,-93 1313.64,-88.85 1313.18,-95.84"/>
<text xml:space="preserve" text-anchor="middle" x="717.5" y="-83.58" font-family="Helvetica,sans-Serif" font-size="9.00">mem_by_id (O(1))</text>
</g>
<!-- Task -->
<g id="node3" class="node">
<title>Task</title>
<polygon fill="#f7f9fc" stroke="black" points="930.75,-149.5 930.75,-281.25 1165.25,-281.25 1165.25,-149.5 930.75,-149.5"/>
<text xml:space="preserve" text-anchor="middle" x="949.25" y="-211.5" font-family="Helvetica,sans-Serif" font-size="10.00">Task</text>
<polyline fill="none" stroke="black" points="967.75,-149.5 967.75,-281.25"/>
<text xml:space="preserve" text-anchor="start" x="975.75" y="-267.75" font-family="Helvetica,sans-Serif" font-size="10.00">id, title, description, status</text>
<text xml:space="preserve" text-anchor="start" x="975.75" y="-256.5" font-family="Helvetica,sans-Serif" font-size="10.00">pert_min/likely/max/expected/variance</text>
<text xml:space="preserve" text-anchor="start" x="975.75" y="-245.25" font-family="Helvetica,sans-Serif" font-size="10.00">risk, required_skills (bitmask)</text>
<text xml:space="preserve" text-anchor="start" x="975.75" y="-234" font-family="Helvetica,sans-Serif" font-size="10.00">pre_ids / post_ids / alt_ids / work_pre_ids</text>
<text xml:space="preserve" text-anchor="start" x="975.75" y="-222.75" font-family="Helvetica,sans-Serif" font-size="10.00"> : DynamicIntArray (owns 4)</text>
<text xml:space="preserve" text-anchor="start" x="975.75" y="-211.5" font-family="Helvetica,sans-Serif" font-size="10.00">assignee_id, manually_assigned</text>
<text xml:space="preserve" text-anchor="start" x="975.75" y="-200.25" font-family="Helvetica,sans-Serif" font-size="10.00">fixed_time (immovable: vacation)</text>
<text xml:space="preserve" text-anchor="start" x="975.75" y="-189" font-family="Helvetica,sans-Serif" font-size="10.00">milestone_id</text>
<text xml:space="preserve" text-anchor="start" x="975.75" y="-177.75" font-family="Helvetica,sans-Serif" font-size="10.00">&#45;&#45;&#45; set by scheduler &#45;&#45;&#45;</text>
<text xml:space="preserve" text-anchor="start" x="975.75" y="-166.5" font-family="Helvetica,sans-Serif" font-size="10.00">sched_start/end, latest_start, slack</text>
<text xml:space="preserve" text-anchor="start" x="975.75" y="-155.25" font-family="Helvetica,sans-Serif" font-size="10.00">is_critical, topo_order, min_start</text>
</g>
<!-- Project&#45;&gt;Task -->
<g id="edge3" class="edge">
<title>Project&#45;&gt;Task</title>
<path fill="none" stroke="#555555" d="M560,-232.31C580.99,-237.73 602.7,-242.42 623.5,-245.38 721.72,-259.32 833.72,-250.31 917.86,-238.63"/>
<polygon fill="#555555" stroke="#555555" points="917.82,-238.63 923.2,-233.83 929.7,-236.94 924.33,-241.75 917.82,-238.63"/>
<text xml:space="preserve" text-anchor="middle" x="717.5" y="-253.66" font-family="Helvetica,sans-Serif" font-size="9.00">owns * + 2 sentinels</text>
</g>
<!-- Project&#45;&gt;Task -->
<g id="edge13" class="edge">
<title>Project&#45;&gt;Task</title>
<path fill="none" stroke="#3a8a3a" stroke-dasharray="1,5" d="M560.23,-179.17C581.34,-177.69 603.03,-176.42 623.5,-175.62 706.99,-172.38 728.24,-168.65 811.5,-175.62 846.64,-178.57 884.42,-183.94 919.21,-189.81"/>
<polygon fill="#3a8a3a" stroke="#3a8a3a" points="918.46,-193.23 928.91,-191.47 919.64,-186.33 918.46,-193.23"/>
<text xml:space="preserve" text-anchor="middle" x="717.5" y="-176.82" font-family="Helvetica,sans-Serif" font-size="9.00">by_id (O(1))</text>
</g>
<!-- Milestone -->
<g id="node4" class="node">
<title>Milestone</title>
<polygon fill="#f7f9fc" stroke="black" points="623.5,-194.5 623.5,-236.25 811.5,-236.25 811.5,-194.5 623.5,-194.5"/>
<text xml:space="preserve" text-anchor="middle" x="652.5" y="-211.5" font-family="Helvetica,sans-Serif" font-size="10.00">Milestone</text>
<polyline fill="none" stroke="black" points="681.5,-194.5 681.5,-236.25"/>
<text xml:space="preserve" text-anchor="start" x="689.5" y="-222.75" font-family="Helvetica,sans-Serif" font-size="10.00">id, name</text>
<text xml:space="preserve" text-anchor="start" x="689.5" y="-211.5" font-family="Helvetica,sans-Serif" font-size="10.00">deadline_day, priority</text>
<text xml:space="preserve" text-anchor="start" x="689.5" y="-200.25" font-family="Helvetica,sans-Serif" font-size="10.00">task_ids : int*, task_count</text>
</g>
<!-- Project&#45;&gt;Milestone -->
<g id="edge4" class="edge">
<title>Project&#45;&gt;Milestone</title>
<path fill="none" stroke="#555555" d="M560.24,-201.56C576.95,-203.04 593.93,-204.54 610.25,-205.98"/>
<polygon fill="#555555" stroke="#555555" points="610.33,-205.99 616.66,-202.53 622.28,-207.04 615.96,-210.5 610.33,-205.99"/>
<text xml:space="preserve" text-anchor="middle" x="591.62" y="-206.31" font-family="Helvetica,sans-Serif" font-size="9.00">owns *</text>
</g>
<!-- Project&#45;&gt;TeamMember -->
<g id="edge10" class="edge">
<title>Project&#45;&gt;TeamMember</title>
<path fill="none" stroke="#999999" stroke-dasharray="5,2" d="M560.23,-174.25C581.34,-171.78 603.03,-169.39 623.5,-167.38 868.04,-143.27 1154.7,-121.45 1313.34,-109.94"/>
<polygon fill="#999999" stroke="#999999" points="1313.3,-113.45 1323.02,-109.24 1312.8,-106.47 1313.3,-113.45"/>
<text xml:space="preserve" text-anchor="middle" x="871.12" y="-148.84" font-family="Helvetica,sans-Serif" font-size="9.00">roster by id &#160;(master)</text>
</g>
<!-- DynamicIntArray -->
<g id="node6" class="node">
<title>DynamicIntArray</title>
<polygon fill="#fff4e6" stroke="black" points="1774,-258.5 1774,-300.25 2023.5,-300.25 2023.5,-258.5 1774,-258.5"/>
<text xml:space="preserve" text-anchor="middle" x="1818.75" y="-275.5" font-family="Helvetica,sans-Serif" font-size="10.00">DynamicIntArray</text>
<polyline fill="none" stroke="black" points="1863.5,-258.5 1863.5,-300.25"/>
<text xml:space="preserve" text-anchor="start" x="1871.5" y="-286.75" font-family="Helvetica,sans-Serif" font-size="10.00">data : int*</text>
<text xml:space="preserve" text-anchor="start" x="1871.5" y="-275.5" font-family="Helvetica,sans-Serif" font-size="10.00">count, capacity (doubling growth)</text>
<text xml:space="preserve" text-anchor="start" x="1871.5" y="-264.25" font-family="Helvetica,sans-Serif" font-size="10.00">sort_insert / find_index (bsearch)</text>
</g>
<!-- Project&#45;&gt;DynamicIntArray -->
<g id="edge8" class="edge">
<title>Project&#45;&gt;DynamicIntArray</title>
<path fill="none" stroke="#555555" stroke-dasharray="5,2" d="M509.48,-245.34C564.22,-279.66 641.43,-317.38 716.5,-317.38 716.5,-317.38 716.5,-317.38 1436.5,-317.38 1546.41,-317.38 1670.56,-306.52 1762.35,-296.42"/>
<polygon fill="#555555" stroke="#555555" points="1762.61,-299.91 1772.16,-295.33 1761.84,-292.96 1762.61,-299.91"/>
<text xml:space="preserve" text-anchor="middle" x="1048" y="-318.57" font-family="Helvetica,sans-Serif" font-size="9.00">member_ids (roster)</text>
</g>
<!-- Task&#45;&gt;TeamMember -->
<g id="edge11" class="edge">
<title>Task&#45;&gt;TeamMember</title>
<path fill="none" stroke="#999999" stroke-dasharray="5,2" d="M1165.56,-160.84C1171.5,-158.63 1177.42,-156.54 1183.25,-154.62 1224.96,-140.95 1271.75,-129.91 1313.54,-121.51"/>
<polygon fill="#999999" stroke="#999999" points="1314,-124.99 1323.14,-119.62 1312.65,-118.12 1314,-124.99"/>
<text xml:space="preserve" text-anchor="middle" x="1208.38" y="-155.82" font-family="Helvetica,sans-Serif" font-size="9.00">assignee_id</text>
</g>
<!-- Task&#45;&gt;DynamicIntArray -->
<g id="edge5" class="edge">
<title>Task&#45;&gt;DynamicIntArray</title>
<path fill="none" stroke="#555555" d="M1165.58,-239.53C1193.61,-244.55 1223.53,-249.25 1251.5,-252.38 1426.6,-271.93 1629.82,-277.66 1760.92,-279.16"/>
<polygon fill="#555555" stroke="#555555" points="1760.87,-279.16 1766.91,-275.23 1772.87,-279.29 1766.83,-283.23 1760.87,-279.16"/>
<text xml:space="preserve" text-anchor="middle" x="1435.5" y="-277.16" font-family="Helvetica,sans-Serif" font-size="9.00">4x dep lists</text>
</g>
<!-- TaskStatus -->
<g id="node12" class="node">
<title>TaskStatus</title>
<polygon fill="#eeeeee" stroke="black" points="1301,-206.38 1301,-242.38 1570,-242.38 1570,-206.38 1301,-206.38"/>
<text xml:space="preserve" text-anchor="middle" x="1359.25" y="-220.75" font-family="Helvetica,sans-Serif" font-size="10.00">TaskStatus &lt;&lt;enum&gt;&gt;</text>
<polyline fill="none" stroke="black" points="1417.5,-206.88 1417.5,-242.38"/>
<text xml:space="preserve" text-anchor="start" x="1425.5" y="-226.38" font-family="Helvetica,sans-Serif" font-size="10.00">TODO IN_PROGRESS DONE</text>
<text xml:space="preserve" text-anchor="start" x="1425.5" y="-215.12" font-family="Helvetica,sans-Serif" font-size="10.00">CANCELLED BLOCKED</text>
</g>
<!-- Task&#45;&gt;TaskStatus -->
<g id="edge14" class="edge">
<title>Task&#45;&gt;TaskStatus</title>
<path fill="none" stroke="#888888" stroke-dasharray="5,2" d="M1165.71,-218.1C1204.6,-219.01 1248.41,-220.03 1289.2,-220.98"/>
<polygon fill="#888888" stroke="#888888" points="1289.03,-224.48 1299.1,-221.21 1289.19,-217.48 1289.03,-224.48"/>
</g>
<!-- Skill -->
<g id="node13" class="node">
<title>Skill</title>
<polygon fill="#eeeeee" stroke="black" points="1739.5,-142.38 1739.5,-178.38 2058,-178.38 2058,-142.38 1739.5,-142.38"/>
<text xml:space="preserve" text-anchor="middle" x="1801.12" y="-156.75" font-family="Helvetica,sans-Serif" font-size="10.00">Skill &lt;&lt;enum bitmask&gt;&gt;</text>
<polyline fill="none" stroke="black" points="1862.75,-142.88 1862.75,-178.38"/>
<text xml:space="preserve" text-anchor="start" x="1870.75" y="-162.38" font-family="Helvetica,sans-Serif" font-size="10.00">FRONTEND BACKEND HARDWARE</text>
<text xml:space="preserve" text-anchor="start" x="1870.75" y="-151.12" font-family="Helvetica,sans-Serif" font-size="10.00">EMBEDDED QA DEVOPS DESIGN PM</text>
</g>
<!-- Task&#45;&gt;Skill -->
<g id="edge15" class="edge">
<title>Task&#45;&gt;Skill</title>
<path fill="none" stroke="#888888" stroke-dasharray="5,2" d="M1165.51,-197.5C1193.61,-193.72 1223.58,-190.12 1251.5,-187.62 1340.38,-179.68 1568,-171.1 1727.82,-165.73"/>
<polygon fill="#888888" stroke="#888888" points="1727.82,-169.23 1737.69,-165.4 1727.58,-162.24 1727.82,-169.23"/>
<text xml:space="preserve" text-anchor="middle" x="1435.5" y="-188.82" font-family="Helvetica,sans-Serif" font-size="9.00">required_skills</text>
</g>
<!-- Milestone&#45;&gt;Task -->
<g id="edge17" class="edge">
<title>Milestone&#45;&gt;Task</title>
<path fill="none" stroke="#999999" stroke-dasharray="5,2" d="M811.76,-215.38C845.05,-215.38 883.16,-215.38 918.87,-215.38"/>
<polygon fill="#999999" stroke="#999999" points="918.86,-218.88 928.86,-215.38 918.86,-211.88 918.86,-218.88"/>
<text xml:space="preserve" text-anchor="middle" x="871.12" y="-216.57" font-family="Helvetica,sans-Serif" font-size="9.00">task_ids (IDs)</text>
</g>
<!-- TeamMember&#45;&gt;DynamicIntArray -->
<g id="edge9" class="edge">
<title>TeamMember&#45;&gt;DynamicIntArray</title>
<path fill="none" stroke="#555555" stroke-dasharray="5,2" d="M1546.1,-131.89C1570.45,-139.34 1596.01,-147.69 1619.5,-156.38 1699.08,-185.79 1788.36,-226.73 1843.82,-253.14"/>
<polygon fill="#555555" stroke="#555555" points="1842.21,-256.25 1852.75,-257.4 1845.23,-249.93 1842.21,-256.25"/>
<text xml:space="preserve" text-anchor="middle" x="1679.5" y="-198.22" font-family="Helvetica,sans-Serif" font-size="9.00">project_ids (derived)</text>
</g>
<!-- TaskRefArray -->
<g id="node7" class="node">
<title>TaskRefArray</title>
<polygon fill="#fff4e6" stroke="black" points="1819,-69.38 1819,-105.38 1978.5,-105.38 1978.5,-69.38 1819,-69.38"/>
<text xml:space="preserve" text-anchor="middle" x="1857" y="-83.75" font-family="Helvetica,sans-Serif" font-size="10.00">TaskRefArray</text>
<polyline fill="none" stroke="black" points="1895,-69.88 1895,-105.38"/>
<text xml:space="preserve" text-anchor="start" x="1903" y="-89.38" font-family="Helvetica,sans-Serif" font-size="10.00">data : TaskRef*</text>
<text xml:space="preserve" text-anchor="start" x="1903" y="-78.12" font-family="Helvetica,sans-Serif" font-size="10.00">count, capacity</text>
</g>
<!-- TeamMember&#45;&gt;TaskRefArray -->
<g id="edge6" class="edge">
<title>TeamMember&#45;&gt;TaskRefArray</title>
<path fill="none" stroke="#555555" d="M1546.24,-93.25C1575.85,-91.37 1607.88,-89.63 1637.5,-88.62 1693.25,-86.72 1755.76,-86.37 1805.54,-86.51"/>
<polygon fill="#555555" stroke="#555555" points="1805.67,-86.51 1811.68,-82.53 1817.67,-86.55 1811.65,-90.53 1805.67,-86.51"/>
<text xml:space="preserve" text-anchor="middle" x="1679.5" y="-89.83" font-family="Helvetica,sans-Serif" font-size="9.00">tasks</text>
</g>
<!-- Role -->
<g id="node9" class="node">
<title>Role</title>
<polygon fill="#e6ffe6" stroke="black" points="1751.88,-7.38 1751.88,-43.38 2045.62,-43.38 2045.62,-7.38 1751.88,-7.38"/>
<text xml:space="preserve" text-anchor="middle" x="1820.62" y="-21.75" font-family="Helvetica,sans-Serif" font-size="10.00">Role (parsed from roles.cfg)</text>
<polyline fill="none" stroke="black" points="1889.38,-7.88 1889.38,-43.38"/>
<text xml:space="preserve" text-anchor="start" x="1897.38" y="-27.38" font-family="Helvetica,sans-Serif" font-size="10.00">name</text>
<text xml:space="preserve" text-anchor="start" x="1897.38" y="-16.12" font-family="Helvetica,sans-Serif" font-size="10.00">privs : uint32 (Privilege bitmask)</text>
</g>
<!-- TeamMember&#45;&gt;Role -->
<g id="edge18" class="edge">
<title>TeamMember&#45;&gt;Role</title>
<path fill="none" stroke="#3a8a3a" stroke-dasharray="5,2" d="M1546.39,-83.27C1614.94,-71.97 1703.3,-57.41 1774.26,-45.72"/>
<polygon fill="#3a8a3a" stroke="#3a8a3a" points="1774.7,-49.2 1784,-44.12 1773.56,-42.29 1774.7,-49.2"/>
<text xml:space="preserve" text-anchor="middle" x="1679.5" y="-69.13" font-family="Helvetica,sans-Serif" font-size="9.00">role name</text>
</g>
<!-- TeamMember&#45;&gt;Skill -->
<g id="edge16" class="edge">
<title>TeamMember&#45;&gt;Skill</title>
<path fill="none" stroke="#888888" stroke-dasharray="5,2" d="M1546.18,-105.43C1599.32,-108.35 1663.94,-113.3 1721.5,-121.62 1752.02,-126.04 1785.12,-132.79 1814.31,-139.42"/>
<polygon fill="#888888" stroke="#888888" points="1813.29,-142.78 1823.82,-141.62 1814.86,-135.96 1813.29,-142.78"/>
<text xml:space="preserve" text-anchor="middle" x="1679.5" y="-122.83" font-family="Helvetica,sans-Serif" font-size="9.00">skills</text>
</g>
<!-- TaskRef -->
<g id="node8" class="node">
<title>TaskRef</title>
<polygon fill="#fff4e6" stroke="black" points="2251.5,-69.38 2251.5,-105.38 2362.25,-105.38 2362.25,-69.38 2251.5,-69.38"/>
<text xml:space="preserve" text-anchor="middle" x="2277.88" y="-83.75" font-family="Helvetica,sans-Serif" font-size="10.00">TaskRef</text>
<polyline fill="none" stroke="black" points="2304.25,-69.88 2304.25,-105.38"/>
<text xml:space="preserve" text-anchor="start" x="2312.25" y="-89.38" font-family="Helvetica,sans-Serif" font-size="10.00">project_id</text>
<text xml:space="preserve" text-anchor="start" x="2312.25" y="-78.12" font-family="Helvetica,sans-Serif" font-size="10.00">task_id</text>
</g>
<!-- TaskRefArray&#45;&gt;TaskRef -->
<g id="edge7" class="edge">
<title>TaskRefArray&#45;&gt;TaskRef</title>
<path fill="none" stroke="#555555" d="M1978.54,-87.38C2054,-87.38 2166.66,-87.38 2238.18,-87.38"/>
<polygon fill="#555555" stroke="#555555" points="2238.14,-87.38 2244.14,-83.38 2250.14,-87.38 2244.14,-91.38 2238.14,-87.38"/>
<text xml:space="preserve" text-anchor="middle" x="2085.75" y="-88.58" font-family="Helvetica,sans-Serif" font-size="9.00">*</text>
</g>
<!-- Privilege -->
<g id="node10" class="node">
<title>Privilege</title>
<polygon fill="#e6ffe6" stroke="black" points="2113.5,-4.5 2113.5,-46.25 2500.25,-46.25 2500.25,-4.5 2113.5,-4.5"/>
<text xml:space="preserve" text-anchor="middle" x="2184.5" y="-21.5" font-family="Helvetica,sans-Serif" font-size="10.00">Privilege &lt;&lt;enum bitmask&gt;&gt;</text>
<polyline fill="none" stroke="black" points="2255.5,-4.5 2255.5,-46.25"/>
<text xml:space="preserve" text-anchor="start" x="2263.5" y="-32.75" font-family="Helvetica,sans-Serif" font-size="10.00">VIEW_OWN VIEW_PROJECT VIEW_PORTFOLIO</text>
<text xml:space="preserve" text-anchor="start" x="2263.5" y="-21.5" font-family="Helvetica,sans-Serif" font-size="10.00">EDIT_TASK EDIT_DEPS ASSIGN</text>
<text xml:space="preserve" text-anchor="start" x="2263.5" y="-10.25" font-family="Helvetica,sans-Serif" font-size="10.00">SCHEDULE REPORT ADMIN(=all)</text>
</g>
<!-- Role&#45;&gt;Privilege -->
<g id="edge19" class="edge">
<title>Role&#45;&gt;Privilege</title>
<path fill="none" stroke="#3a8a3a" stroke-dasharray="5,2" d="M2046.08,-25.38C2064.24,-25.38 2083.05,-25.38 2101.88,-25.38"/>
<polygon fill="#3a8a3a" stroke="#3a8a3a" points="2101.76,-28.88 2111.76,-25.38 2101.76,-21.88 2101.76,-28.88"/>
<text xml:space="preserve" text-anchor="middle" x="2085.75" y="-26.57" font-family="Helvetica,sans-Serif" font-size="9.00">privs</text>
</g>
<!-- Session -->
<g id="node11" class="node">
<title>Session</title>
<polygon fill="#e6ffe6" stroke="black" points="1251.5,-0.5 1251.5,-42.25 1619.5,-42.25 1619.5,-0.5 1251.5,-0.5"/>
<text xml:space="preserve" text-anchor="middle" x="1340.5" y="-17.5" font-family="Helvetica,sans-Serif" font-size="10.00">Session role (module state in roles.c)</text>
<polyline fill="none" stroke="black" points="1429.5,-0.5 1429.5,-42.25"/>
<text xml:space="preserve" text-anchor="start" x="1437.5" y="-28.75" font-family="Helvetica,sans-Serif" font-size="10.00">g_privs : uint32</text>
<text xml:space="preserve" text-anchor="start" x="1437.5" y="-17.5" font-family="Helvetica,sans-Serif" font-size="10.00">g_role_name</text>
<text xml:space="preserve" text-anchor="start" x="1437.5" y="-6.25" font-family="Helvetica,sans-Serif" font-size="10.00">priv_has / priv_require gate every action</text>
</g>
<!-- Session&#45;&gt;Role -->
<g id="edge20" class="edge">
<title>Session&#45;&gt;Role</title>
<path fill="none" stroke="#3a8a3a" stroke-dasharray="5,2" d="M1619.71,-21.88C1653.56,-22.05 1688.6,-22.3 1721.5,-22.62 1727.62,-22.69 1733.86,-22.75 1740.16,-22.83"/>
<polygon fill="#3a8a3a" stroke="#3a8a3a" points="1740.01,-26.33 1750.05,-22.95 1740.1,-19.33 1740.01,-26.33"/>
<text xml:space="preserve" text-anchor="middle" x="1679.5" y="-23.82" font-family="Helvetica,sans-Serif" font-size="9.00">current</text>
</g>
</g>
</svg>
