<?xml version="1.0" encoding="UTF-8" standalone="no"?>
<!DOCTYPE svg PUBLIC "-//W3C//DTD SVG 1.1//EN"
 "http://www.w3.org/Graphics/SVG/1.1/DTD/svg11.dtd">
<!-- Generated by graphviz version 15.0.0 (20260523.1842)
 -->
<!-- Title: datamodel Pages: 1 -->
<svg width="1507pt" height="323pt"
 viewBox="0.00 0.00 1507.00 323.00" xmlns="http://www.w3.org/2000/svg" xmlns:xlink="http://www.w3.org/1999/xlink">
<g id="graph0" class="graph" transform="scale(1 1) rotate(0) translate(4 319.23)">
<title>datamodel</title>
<polygon fill="white" stroke="none" points="-4,4 -4,-319.23 1503.25,-319.23 1503.25,4 -4,4"/>
<text xml:space="preserve" text-anchor="middle" x="749.62" y="-296.03" font-family="Helvetica,sans-Serif" font-size="16.00">Project Mayhem Management &#45; Data Model</text>
<!-- Company -->
<g id="node1" class="node">
<title>Company</title>
<polygon fill="#cfe8ff" stroke="black" points="0,-0.5 0,-53.5 189.5,-53.5 189.5,-0.5 0,-0.5"/>
<text xml:space="preserve" text-anchor="middle" x="29" y="-23.12" font-family="Helvetica,sans-Serif" font-size="10.00">Company</text>
<polyline fill="none" stroke="black" points="58,-0.5 58,-53.5"/>
<text xml:space="preserve" text-anchor="start" x="66" y="-40" font-family="Helvetica,sans-Serif" font-size="10.00">name, save_dir</text>
<text xml:space="preserve" text-anchor="start" x="66" y="-28.75" font-family="Helvetica,sans-Serif" font-size="10.00">members : TeamMember**</text>
<text xml:space="preserve" text-anchor="start" x="66" y="-17.5" font-family="Helvetica,sans-Serif" font-size="10.00">projects : Project**</text>
<text xml:space="preserve" text-anchor="start" x="66" y="-6.25" font-family="Helvetica,sans-Serif" font-size="10.00">next_member_id</text>
</g>
<!-- Project -->
<g id="node2" class="node">
<title>Project</title>
<polygon fill="#cfe8ff" stroke="black" points="253.25,-68.25 253.25,-143.75 456.25,-143.75 456.25,-68.25 253.25,-68.25"/>
<text xml:space="preserve" text-anchor="middle" x="276.62" y="-102.12" font-family="Helvetica,sans-Serif" font-size="10.00">Project</text>
<polyline fill="none" stroke="black" points="300,-68.25 300,-143.75"/>
<text xml:space="preserve" text-anchor="start" x="308" y="-130.25" font-family="Helvetica,sans-Serif" font-size="10.00">name, save_dir, start_date</text>
<text xml:space="preserve" text-anchor="start" x="308" y="-119" font-family="Helvetica,sans-Serif" font-size="10.00">start_node, end_node : Task*</text>
<text xml:space="preserve" text-anchor="start" x="308" y="-107.75" font-family="Helvetica,sans-Serif" font-size="10.00">tasks : Task**</text>
<text xml:space="preserve" text-anchor="start" x="308" y="-96.5" font-family="Helvetica,sans-Serif" font-size="10.00">milestones : Milestone**</text>
<text xml:space="preserve" text-anchor="start" x="308" y="-85.25" font-family="Helvetica,sans-Serif" font-size="10.00">member_ids : DynamicIntArray</text>
<text xml:space="preserve" text-anchor="start" x="308" y="-74" font-family="Helvetica,sans-Serif" font-size="10.00">next_task_id, next_milestone_id</text>
</g>
<!-- Company&#45;&gt;Project -->
<g id="edge2" class="edge">
<title>Company&#45;&gt;Project</title>
<path fill="none" stroke="#555555" d="M183.82,-53.97C202.02,-59.54 221.43,-65.48 240.39,-71.29"/>
<polygon fill="#555555" stroke="#555555" points="240.43,-71.3 247.34,-69.23 251.9,-74.81 244.99,-76.88 240.43,-71.3"/>
<text xml:space="preserve" text-anchor="middle" x="221.38" y="-70.07" font-family="Helvetica,sans-Serif" font-size="9.00">owns *</text>
</g>
<!-- TeamMember -->
<g id="node5" class="node">
<title>TeamMember</title>
<polygon fill="#f7f9fc" stroke="black" points="834,-65.5 834,-118.5 1095.5,-118.5 1095.5,-65.5 834,-65.5"/>
<text xml:space="preserve" text-anchor="middle" x="871.62" y="-88.12" font-family="Helvetica,sans-Serif" font-size="10.00">TeamMember</text>
<polyline fill="none" stroke="black" points="909.25,-65.5 909.25,-118.5"/>
<text xml:space="preserve" text-anchor="start" x="917.25" y="-105" font-family="Helvetica,sans-Serif" font-size="10.00">id, name, role</text>
<text xml:space="preserve" text-anchor="start" x="917.25" y="-93.75" font-family="Helvetica,sans-Serif" font-size="10.00">skills (bitmask), availability</text>
<text xml:space="preserve" text-anchor="start" x="917.25" y="-82.5" font-family="Helvetica,sans-Serif" font-size="10.00">project_ids : DynamicIntArray (derived)</text>
<text xml:space="preserve" text-anchor="start" x="917.25" y="-71.25" font-family="Helvetica,sans-Serif" font-size="10.00">tasks : TaskRefArray</text>
</g>
<!-- Company&#45;&gt;TeamMember -->
<g id="edge1" class="edge">
<title>Company&#45;&gt;TeamMember</title>
<path fill="none" stroke="#555555" d="M189.92,-29.94C316.61,-34.19 548.94,-42.99 747,-56 777.72,-58.02 785.53,-57.6 816,-62 818.18,-62.32 820.38,-62.64 822.59,-62.98"/>
<polygon fill="#555555" stroke="#555555" points="822.63,-62.99 829.19,-59.98 834.48,-64.88 827.93,-67.88 822.63,-62.99"/>
<text xml:space="preserve" text-anchor="middle" x="488.12" y="-43.51" font-family="Helvetica,sans-Serif" font-size="9.00">owns *</text>
</g>
<!-- Task -->
<g id="node3" class="node">
<title>Task</title>
<polygon fill="#f7f9fc" stroke="black" points="520,-145.62 520,-232.38 747,-232.38 747,-145.62 520,-145.62"/>
<text xml:space="preserve" text-anchor="middle" x="538.5" y="-185.12" font-family="Helvetica,sans-Serif" font-size="10.00">Task</text>
<polyline fill="none" stroke="black" points="557,-145.62 557,-232.38"/>
<text xml:space="preserve" text-anchor="start" x="565" y="-218.88" font-family="Helvetica,sans-Serif" font-size="10.00">id, title, status</text>
<text xml:space="preserve" text-anchor="start" x="565" y="-207.62" font-family="Helvetica,sans-Serif" font-size="10.00">pert_min/likely/max/exp/var</text>
<text xml:space="preserve" text-anchor="start" x="565" y="-196.38" font-family="Helvetica,sans-Serif" font-size="10.00">risk, required_skills</text>
<text xml:space="preserve" text-anchor="start" x="565" y="-185.12" font-family="Helvetica,sans-Serif" font-size="10.00">pre/post/alt/work_pre : DynamicIntArray</text>
<text xml:space="preserve" text-anchor="start" x="565" y="-173.88" font-family="Helvetica,sans-Serif" font-size="10.00">assignee_id, manually_assigned</text>
<text xml:space="preserve" text-anchor="start" x="565" y="-162.62" font-family="Helvetica,sans-Serif" font-size="10.00">sched_start/end, latest_start, slack</text>
<text xml:space="preserve" text-anchor="start" x="565" y="-151.38" font-family="Helvetica,sans-Serif" font-size="10.00">is_critical, topo_order</text>
</g>
<!-- Project&#45;&gt;Task -->
<g id="edge3" class="edge">
<title>Project&#45;&gt;Task</title>
<path fill="none" stroke="#555555" d="M456.45,-136.2C472.99,-141.16 490.3,-146.35 507.35,-151.47"/>
<polygon fill="#555555" stroke="#555555" points="507.35,-151.46 514.24,-149.36 518.84,-154.91 511.94,-157.02 507.35,-151.46"/>
<text xml:space="preserve" text-anchor="middle" x="488.12" y="-148.7" font-family="Helvetica,sans-Serif" font-size="9.00">owns *</text>
</g>
<!-- Milestone -->
<g id="node4" class="node">
<title>Milestone</title>
<polygon fill="#f7f9fc" stroke="black" points="539.5,-85.12 539.5,-126.88 727.5,-126.88 727.5,-85.12 539.5,-85.12"/>
<text xml:space="preserve" text-anchor="middle" x="568.5" y="-102.12" font-family="Helvetica,sans-Serif" font-size="10.00">Milestone</text>
<polyline fill="none" stroke="black" points="597.5,-85.12 597.5,-126.88"/>
<text xml:space="preserve" text-anchor="start" x="605.5" y="-113.38" font-family="Helvetica,sans-Serif" font-size="10.00">id, name</text>
<text xml:space="preserve" text-anchor="start" x="605.5" y="-102.12" font-family="Helvetica,sans-Serif" font-size="10.00">deadline_day, priority</text>
<text xml:space="preserve" text-anchor="start" x="605.5" y="-90.88" font-family="Helvetica,sans-Serif" font-size="10.00">task_ids : int*, task_count</text>
</g>
<!-- Project&#45;&gt;Milestone -->
<g id="edge4" class="edge">
<title>Project&#45;&gt;Milestone</title>
<path fill="none" stroke="#555555" d="M456.45,-106C479.16,-106 503.34,-106 526.28,-106"/>
<polygon fill="#555555" stroke="#555555" points="526.34,-106 532.34,-102 538.34,-106 532.34,-110 526.34,-106"/>
<text xml:space="preserve" text-anchor="middle" x="488.12" y="-107.2" font-family="Helvetica,sans-Serif" font-size="9.00">owns *</text>
</g>
<!-- Project&#45;&gt;TeamMember -->
<g id="edge10" class="edge">
<title>Project&#45;&gt;TeamMember</title>
<path fill="none" stroke="#999999" stroke-dasharray="5,2" d="M456.7,-77.59C477.47,-72.87 499.32,-68.72 520,-66.25 620.75,-54.23 735.07,-61.35 822.44,-71.12"/>
<polygon fill="#999999" stroke="#999999" points="821.94,-74.59 832.27,-72.25 822.73,-67.63 821.94,-74.59"/>
<text xml:space="preserve" text-anchor="middle" x="633.5" y="-67.45" font-family="Helvetica,sans-Serif" font-size="9.00">roster (by id)</text>
</g>
<!-- DynamicIntArray -->
<g id="node6" class="node">
<title>DynamicIntArray</title>
<polygon fill="#fff4e6" stroke="black" points="1176.5,-171 1176.5,-207 1348.75,-207 1348.75,-171 1176.5,-171"/>
<text xml:space="preserve" text-anchor="middle" x="1221.25" y="-185.38" font-family="Helvetica,sans-Serif" font-size="10.00">DynamicIntArray</text>
<polyline fill="none" stroke="black" points="1266,-171.5 1266,-207"/>
<text xml:space="preserve" text-anchor="start" x="1274" y="-191" font-family="Helvetica,sans-Serif" font-size="10.00">data : int*</text>
<text xml:space="preserve" text-anchor="start" x="1274" y="-179.75" font-family="Helvetica,sans-Serif" font-size="10.00">count, capacity</text>
</g>
<!-- Project&#45;&gt;DynamicIntArray -->
<g id="edge8" class="edge">
<title>Project&#45;&gt;DynamicIntArray</title>
<path fill="none" stroke="#555555" stroke-dasharray="5,2" d="M387.36,-144.04C417.5,-177.09 466.19,-222.61 520,-242 757.42,-327.54 1064.74,-251.52 1196.73,-210.81"/>
<polygon fill="#555555" stroke="#555555" points="1197.49,-214.24 1205.99,-207.92 1195.41,-207.56 1197.49,-214.24"/>
<text xml:space="preserve" text-anchor="middle" x="790.5" y="-282.18" font-family="Helvetica,sans-Serif" font-size="9.00">member_ids</text>
</g>
<!-- Task&#45;&gt;TeamMember -->
<g id="edge11" class="edge">
<title>Task&#45;&gt;TeamMember</title>
<path fill="none" stroke="#999999" stroke-dasharray="5,2" d="M747.35,-155.75C784.45,-144.82 825.47,-132.74 861.72,-122.06"/>
<polygon fill="#999999" stroke="#999999" points="862.25,-125.55 870.86,-119.37 860.27,-118.84 862.25,-125.55"/>
<text xml:space="preserve" text-anchor="middle" x="790.5" y="-150.39" font-family="Helvetica,sans-Serif" font-size="9.00">assignee_id</text>
</g>
<!-- Task&#45;&gt;DynamicIntArray -->
<g id="edge5" class="edge">
<title>Task&#45;&gt;DynamicIntArray</title>
<path fill="none" stroke="#555555" d="M747.34,-189C865.9,-189 1050.49,-189 1163.29,-189"/>
<polygon fill="#555555" stroke="#555555" points="1163.44,-189 1169.44,-185 1175.44,-189 1169.44,-193 1163.44,-189"/>
<text xml:space="preserve" text-anchor="middle" x="964.75" y="-190.2" font-family="Helvetica,sans-Serif" font-size="9.00">4x dep lists</text>
</g>
<!-- TeamMember&#45;&gt;DynamicIntArray -->
<g id="edge9" class="edge">
<title>TeamMember&#45;&gt;DynamicIntArray</title>
<path fill="none" stroke="#555555" stroke-dasharray="5,2" d="M1047.77,-118.89C1093.97,-134.04 1150.94,-152.71 1194.46,-166.98"/>
<polygon fill="#555555" stroke="#555555" points="1193.19,-170.25 1203.78,-170.04 1195.37,-163.6 1193.19,-170.25"/>
<text xml:space="preserve" text-anchor="middle" x="1136" y="-156.06" font-family="Helvetica,sans-Serif" font-size="9.00">project_ids</text>
</g>
<!-- TaskRefArray -->
<g id="node7" class="node">
<title>TaskRefArray</title>
<polygon fill="#fff4e6" stroke="black" points="1182.88,-74 1182.88,-110 1342.38,-110 1342.38,-74 1182.88,-74"/>
<text xml:space="preserve" text-anchor="middle" x="1220.88" y="-88.38" font-family="Helvetica,sans-Serif" font-size="10.00">TaskRefArray</text>
<polyline fill="none" stroke="black" points="1258.88,-74.5 1258.88,-110"/>
<text xml:space="preserve" text-anchor="start" x="1266.88" y="-94" font-family="Helvetica,sans-Serif" font-size="10.00">data : TaskRef*</text>
<text xml:space="preserve" text-anchor="start" x="1266.88" y="-82.75" font-family="Helvetica,sans-Serif" font-size="10.00">count, capacity</text>
</g>
<!-- TeamMember&#45;&gt;TaskRefArray -->
<g id="edge6" class="edge">
<title>TeamMember&#45;&gt;TaskRefArray</title>
<path fill="none" stroke="#555555" d="M1095.96,-92C1120.81,-92 1146.34,-92 1169.69,-92"/>
<polygon fill="#555555" stroke="#555555" points="1169.52,-92 1175.52,-88 1181.52,-92 1175.52,-96 1169.52,-92"/>
<text xml:space="preserve" text-anchor="middle" x="1136" y="-93.2" font-family="Helvetica,sans-Serif" font-size="9.00">tasks</text>
</g>
<!-- TaskRef -->
<g id="node8" class="node">
<title>TaskRef</title>
<polygon fill="#fff4e6" stroke="black" points="1388.5,-74 1388.5,-110 1499.25,-110 1499.25,-74 1388.5,-74"/>
<text xml:space="preserve" text-anchor="middle" x="1414.88" y="-88.38" font-family="Helvetica,sans-Serif" font-size="10.00">TaskRef</text>
<polyline fill="none" stroke="black" points="1441.25,-74.5 1441.25,-110"/>
<text xml:space="preserve" text-anchor="start" x="1449.25" y="-94" font-family="Helvetica,sans-Serif" font-size="10.00">project_id</text>
<text xml:space="preserve" text-anchor="start" x="1449.25" y="-82.75" font-family="Helvetica,sans-Serif" font-size="10.00">task_id</text>
</g>
<!-- TaskRefArray&#45;&gt;TaskRef -->
<g id="edge7" class="edge">
<title>TaskRefArray&#45;&gt;TaskRef</title>
<path fill="none" stroke="#555555" d="M1342.77,-92C1353.64,-92 1364.71,-92 1375.35,-92"/>
<polygon fill="#555555" stroke="#555555" points="1375.15,-92 1381.15,-88 1387.15,-92 1381.15,-96 1375.15,-92"/>
<text xml:space="preserve" text-anchor="middle" x="1368.62" y="-93.2" font-family="Helvetica,sans-Serif" font-size="9.00">*</text>
</g>
</g>
</svg>
