<?xml version="1.0" encoding="UTF-8" standalone="no"?>
<!DOCTYPE svg PUBLIC "-//W3C//DTD SVG 1.1//EN"
 "http://www.w3.org/Graphics/SVG/1.1/DTD/svg11.dtd">
<!-- Generated by graphviz version 15.0.0 (20260523.1842)
 -->
<!-- Title: gui Pages: 1 -->
<svg width="681pt" height="615pt"
 viewBox="0.00 0.00 681.00 615.00" xmlns="http://www.w3.org/2000/svg" xmlns:xlink="http://www.w3.org/1999/xlink">
<g id="graph0" class="graph" transform="scale(1 1) rotate(0) translate(4 610.5)">
<title>gui</title>
<polygon fill="white" stroke="none" points="-4,4 -4,-610.5 677,-610.5 677,4 -4,4"/>
<text xml:space="preserve" text-anchor="middle" x="336.5" y="-587.3" font-family="Helvetica,sans-Serif" font-size="16.00">Project Mayhem Management &#45; GUI Flow</text>
<!-- main -->
<g id="node1" class="node">
<title>main</title>
<ellipse fill="none" stroke="black" cx="301.62" cy="-564" rx="27" ry="18"/>
<text xml:space="preserve" text-anchor="middle" x="301.62" y="-560.12" font-family="Helvetica,sans-Serif" font-size="10.00">main()</text>
</g>
<!-- m0 -->
<g id="node2" class="node">
<title>m0</title>
<polygon fill="none" stroke="black" points="301.62,-509 224.22,-491 301.62,-473 379.03,-491 301.62,-509"/>
<text xml:space="preserve" text-anchor="middle" x="301.62" y="-487.12" font-family="Helvetica,sans-Serif" font-size="10.00">New / Load / Exit</text>
</g>
<!-- main&#45;&gt;m0 -->
<g id="edge1" class="edge">
<title>main&#45;&gt;m0</title>
<path fill="none" stroke="#555555" d="M301.62,-545.81C301.62,-538.23 301.62,-529.1 301.62,-520.54"/>
<polygon fill="#555555" stroke="#555555" points="305.13,-520.54 301.63,-510.54 298.13,-520.54 305.13,-520.54"/>
</g>
<!-- newc -->
<g id="node3" class="node">
<title>newc</title>
<polygon fill="none" stroke="black" points="219.25,-427.25 90,-427.25 90,-391.25 219.25,-391.25 219.25,-427.25"/>
<text xml:space="preserve" text-anchor="middle" x="154.62" y="-411" font-family="Helvetica,sans-Serif" font-size="10.00">company_new_interactive</text>
<text xml:space="preserve" text-anchor="middle" x="154.62" y="-399.75" font-family="Helvetica,sans-Serif" font-size="10.00">(name + dir_browser)</text>
</g>
<!-- m0&#45;&gt;newc -->
<g id="edge2" class="edge">
<title>m0&#45;&gt;newc</title>
<path fill="none" stroke="#555555" d="M279.3,-477.89C257.43,-466.03 223.58,-447.66 196.66,-433.05"/>
<polygon fill="#555555" stroke="#555555" points="198.51,-430.08 188.05,-428.38 195.17,-436.23 198.51,-430.08"/>
<text xml:space="preserve" text-anchor="middle" x="246.3" y="-446.45" font-family="Helvetica,sans-Serif" font-size="9.00">New</text>
</g>
<!-- loadc -->
<g id="node4" class="node">
<title>loadc</title>
<polygon fill="none" stroke="black" points="366.25,-427.25 237,-427.25 237,-391.25 366.25,-391.25 366.25,-427.25"/>
<text xml:space="preserve" text-anchor="middle" x="301.62" y="-411" font-family="Helvetica,sans-Serif" font-size="10.00">company_load_interactive</text>
<text xml:space="preserve" text-anchor="middle" x="301.62" y="-399.75" font-family="Helvetica,sans-Serif" font-size="10.00">(dir_browser)</text>
</g>
<!-- m0&#45;&gt;loadc -->
<g id="edge3" class="edge">
<title>m0&#45;&gt;loadc</title>
<path fill="none" stroke="#555555" d="M301.62,-472.7C301.62,-462.77 301.62,-450.06 301.62,-438.7"/>
<polygon fill="#555555" stroke="#555555" points="305.13,-439.03 301.63,-429.03 298.13,-439.03 305.13,-439.03"/>
<text xml:space="preserve" text-anchor="middle" x="312.12" y="-446.45" font-family="Helvetica,sans-Serif" font-size="9.00">Load</text>
</g>
<!-- exit0 -->
<g id="node5" class="node">
<title>exit0</title>
<ellipse fill="none" stroke="black" cx="431.62" cy="-409.25" rx="47.63" ry="18"/>
<text xml:space="preserve" text-anchor="middle" x="431.62" y="-405.38" font-family="Helvetica,sans-Serif" font-size="10.00">goodbye + quit</text>
</g>
<!-- m0&#45;&gt;exit0 -->
<g id="edge4" class="edge">
<title>m0&#45;&gt;exit0</title>
<path fill="none" stroke="#555555" d="M322.22,-477.36C342.52,-464.91 373.88,-445.67 397.83,-430.98"/>
<polygon fill="#555555" stroke="#555555" points="399.61,-434 406.3,-425.79 395.94,-428.03 399.61,-434"/>
<text xml:space="preserve" text-anchor="middle" x="381.91" y="-446.45" font-family="Helvetica,sans-Serif" font-size="9.00">Exit</text>
</g>
<!-- menu_company -->
<g id="node6" class="node">
<title>menu_company</title>
<polygon fill="#cfe8ff" stroke="black" points="298.62,-354.25 156.62,-354.25 156.62,-318.25 298.62,-318.25 298.62,-354.25"/>
<text xml:space="preserve" text-anchor="middle" x="227.62" y="-338" font-family="Helvetica,sans-Serif" font-size="10.00">menu_company</text>
<text xml:space="preserve" text-anchor="middle" x="227.62" y="-326.75" font-family="Helvetica,sans-Serif" font-size="10.00">Projects / Team / Save / Exit</text>
</g>
<!-- newc&#45;&gt;menu_company -->
<g id="edge5" class="edge">
<title>newc&#45;&gt;menu_company</title>
<path fill="none" stroke="#555555" d="M172.3,-391.06C181.11,-382.49 191.94,-371.96 201.67,-362.49"/>
<polygon fill="#555555" stroke="#555555" points="204.05,-365.06 208.78,-355.58 199.17,-360.04 204.05,-365.06"/>
</g>
<!-- loadc&#45;&gt;menu_company -->
<g id="edge6" class="edge">
<title>loadc&#45;&gt;menu_company</title>
<path fill="none" stroke="#555555" d="M283.71,-391.06C274.78,-382.49 263.8,-371.96 253.94,-362.49"/>
<polygon fill="#555555" stroke="#555555" points="256.36,-359.97 246.72,-355.57 251.51,-365.02 256.36,-359.97"/>
</g>
<!-- rules -->
<g id="node7" class="node">
<title>rules</title>
<polygon fill="#ffe0e0" stroke="black" points="147.25,-281.25 0,-281.25 0,-245.25 147.25,-245.25 147.25,-281.25"/>
<text xml:space="preserve" text-anchor="middle" x="73.62" y="-265" font-family="Helvetica,sans-Serif" font-size="10.00">1999 &#45;&gt; Project Mayhem rules</text>
<text xml:space="preserve" text-anchor="middle" x="73.62" y="-253.75" font-family="Helvetica,sans-Serif" font-size="10.00">(hidden)</text>
</g>
<!-- menu_company&#45;&gt;rules -->
<g id="edge9" class="edge">
<title>menu_company&#45;&gt;rules</title>
<path fill="none" stroke="#555555" stroke-dasharray="5,2" d="M189.95,-317.88C169.44,-308.43 143.85,-296.63 121.89,-286.5"/>
<polygon fill="#555555" stroke="#555555" points="123.36,-283.33 112.82,-282.32 120.43,-289.68 123.36,-283.33"/>
</g>
<!-- projmenu -->
<g id="node8" class="node">
<title>projmenu</title>
<polygon fill="none" stroke="black" points="290,-281.25 165.25,-281.25 165.25,-245.25 290,-245.25 290,-281.25"/>
<text xml:space="preserve" text-anchor="middle" x="227.62" y="-265" font-family="Helvetica,sans-Serif" font-size="10.00">menu_company_projects</text>
<text xml:space="preserve" text-anchor="middle" x="227.62" y="-253.75" font-family="Helvetica,sans-Serif" font-size="10.00">New / Open</text>
</g>
<!-- menu_company&#45;&gt;projmenu -->
<g id="edge7" class="edge">
<title>menu_company&#45;&gt;projmenu</title>
<path fill="none" stroke="#555555" d="M227.62,-318.06C227.62,-310.48 227.62,-301.35 227.62,-292.79"/>
<polygon fill="#555555" stroke="#555555" points="231.13,-292.79 227.63,-282.79 224.13,-292.79 231.13,-292.79"/>
</g>
<!-- teammenu -->
<g id="node9" class="node">
<title>teammenu</title>
<polygon fill="none" stroke="black" points="419.62,-281.25 307.62,-281.25 307.62,-245.25 419.62,-245.25 419.62,-281.25"/>
<text xml:space="preserve" text-anchor="middle" x="363.62" y="-265" font-family="Helvetica,sans-Serif" font-size="10.00">menu_company_team</text>
<text xml:space="preserve" text-anchor="middle" x="363.62" y="-253.75" font-family="Helvetica,sans-Serif" font-size="10.00">Add / Remove</text>
</g>
<!-- menu_company&#45;&gt;teammenu -->
<g id="edge8" class="edge">
<title>menu_company&#45;&gt;teammenu</title>
<path fill="none" stroke="#555555" d="M260.89,-317.88C278.76,-308.56 300.99,-296.95 320.21,-286.92"/>
<polygon fill="#555555" stroke="#555555" points="321.64,-290.12 328.89,-282.39 318.4,-283.91 321.64,-290.12"/>
</g>
<!-- create -->
<g id="node10" class="node">
<title>create</title>
<polygon fill="none" stroke="black" points="215.38,-199.5 137.88,-199.5 137.88,-163.5 215.38,-163.5 215.38,-199.5"/>
<text xml:space="preserve" text-anchor="middle" x="176.62" y="-177.62" font-family="Helvetica,sans-Serif" font-size="10.00">create_project</text>
</g>
<!-- projmenu&#45;&gt;create -->
<g id="edge10" class="edge">
<title>projmenu&#45;&gt;create</title>
<path fill="none" stroke="#555555" d="M216.56,-244.95C209.88,-234.49 201.22,-220.96 193.68,-209.16"/>
<polygon fill="#555555" stroke="#555555" points="196.82,-207.58 188.49,-201.05 190.92,-211.36 196.82,-207.58"/>
<text xml:space="preserve" text-anchor="middle" x="214.55" y="-218.7" font-family="Helvetica,sans-Serif" font-size="9.00">New</text>
</g>
<!-- open -->
<g id="node11" class="node">
<title>open</title>
<polygon fill="#cfe8ff" stroke="black" points="439.5,-199.5 233.75,-199.5 233.75,-163.5 439.5,-163.5 439.5,-199.5"/>
<text xml:space="preserve" text-anchor="middle" x="336.62" y="-183.25" font-family="Helvetica,sans-Serif" font-size="10.00">open_project</text>
<text xml:space="preserve" text-anchor="middle" x="336.62" y="-172" font-family="Helvetica,sans-Serif" font-size="10.00">Tasks/Deps/Milestones/Schedule/Members</text>
</g>
<!-- projmenu&#45;&gt;open -->
<g id="edge11" class="edge">
<title>projmenu&#45;&gt;open</title>
<path fill="none" stroke="#555555" d="M251.28,-244.95C266.7,-233.66 287.05,-218.77 304,-206.37"/>
<polygon fill="#555555" stroke="#555555" points="305.79,-209.39 311.8,-200.66 301.66,-203.74 305.79,-209.39"/>
<text xml:space="preserve" text-anchor="middle" x="299.9" y="-218.7" font-family="Helvetica,sans-Serif" font-size="9.00">Open</text>
</g>
<!-- tasks -->
<g id="node12" class="node">
<title>tasks</title>
<polygon fill="none" stroke="black" points="234.5,-117.75 10.75,-117.75 10.75,-81.75 234.5,-81.75 234.5,-117.75"/>
<text xml:space="preserve" text-anchor="middle" x="122.62" y="-101.5" font-family="Helvetica,sans-Serif" font-size="10.00">menu_tasks</text>
<text xml:space="preserve" text-anchor="middle" x="122.62" y="-90.25" font-family="Helvetica,sans-Serif" font-size="10.00">List/Add/Remove/Edit/Status/Link/Deps/Assign</text>
</g>
<!-- open&#45;&gt;tasks -->
<g id="edge12" class="edge">
<title>open&#45;&gt;tasks</title>
<path fill="none" stroke="#555555" d="M289.93,-163.1C257.49,-151.01 214.09,-134.83 179.61,-121.99"/>
<polygon fill="#555555" stroke="#555555" points="181.24,-118.86 170.64,-118.64 178.79,-125.42 181.24,-118.86"/>
</g>
<!-- deps -->
<g id="node13" class="node">
<title>deps</title>
<polygon fill="none" stroke="black" points="261.75,-36 195.5,-36 195.5,0 261.75,0 261.75,-36"/>
<text xml:space="preserve" text-anchor="middle" x="228.62" y="-19.75" font-family="Helvetica,sans-Serif" font-size="10.00">menu_deps</text>
<text xml:space="preserve" text-anchor="middle" x="228.62" y="-8.5" font-family="Helvetica,sans-Serif" font-size="10.00">link + view</text>
</g>
<!-- open&#45;&gt;deps -->
<g id="edge13" class="edge">
<title>open&#45;&gt;deps</title>
<path fill="none" stroke="#555555" d="M319.35,-163C307.89,-150.89 292.93,-134.06 281.62,-117.75 265.84,-94.98 251.22,-66.98 241.35,-46.62"/>
<polygon fill="#555555" stroke="#555555" points="244.62,-45.35 237.16,-37.83 238.3,-48.36 244.62,-45.35"/>
</g>
<!-- mile -->
<g id="node14" class="node">
<title>mile</title>
<polygon fill="none" stroke="black" points="382.88,-117.75 290.38,-117.75 290.38,-81.75 382.88,-81.75 382.88,-117.75"/>
<text xml:space="preserve" text-anchor="middle" x="336.62" y="-101.5" font-family="Helvetica,sans-Serif" font-size="10.00">menu_milestones</text>
<text xml:space="preserve" text-anchor="middle" x="336.62" y="-90.25" font-family="Helvetica,sans-Serif" font-size="10.00">List / Add</text>
</g>
<!-- open&#45;&gt;mile -->
<g id="edge14" class="edge">
<title>open&#45;&gt;mile</title>
<path fill="none" stroke="#555555" d="M336.62,-163.2C336.62,-153.27 336.62,-140.56 336.62,-129.2"/>
<polygon fill="#555555" stroke="#555555" points="340.13,-129.53 336.63,-119.53 333.13,-129.53 340.13,-129.53"/>
</g>
<!-- sched -->
<g id="node15" class="node">
<title>sched</title>
<polygon fill="#cfe8ff" stroke="black" points="572.25,-117.75 401,-117.75 401,-81.75 572.25,-81.75 572.25,-117.75"/>
<text xml:space="preserve" text-anchor="middle" x="486.62" y="-101.5" font-family="Helvetica,sans-Serif" font-size="10.00">menu_schedule</text>
<text xml:space="preserve" text-anchor="middle" x="486.62" y="-90.25" font-family="Helvetica,sans-Serif" font-size="10.00">Generate/Report/Gantt/DAG/Export</text>
</g>
<!-- open&#45;&gt;sched -->
<g id="edge15" class="edge">
<title>open&#45;&gt;sched</title>
<path fill="none" stroke="#555555" d="M369.17,-163.2C391.01,-151.58 420.02,-136.16 443.74,-123.55"/>
<polygon fill="#555555" stroke="#555555" points="445.36,-126.65 452.55,-118.87 442.07,-120.47 445.36,-126.65"/>
</g>
<!-- roster -->
<g id="node16" class="node">
<title>roster</title>
<polygon fill="none" stroke="black" points="673,-117.75 590.25,-117.75 590.25,-81.75 673,-81.75 673,-117.75"/>
<text xml:space="preserve" text-anchor="middle" x="631.62" y="-101.5" font-family="Helvetica,sans-Serif" font-size="10.00">roster checklist</text>
<text xml:space="preserve" text-anchor="middle" x="631.62" y="-90.25" font-family="Helvetica,sans-Serif" font-size="10.00">(run_checklist)</text>
</g>
<!-- open&#45;&gt;roster -->
<g id="edge16" class="edge">
<title>open&#45;&gt;roster</title>
<path fill="none" stroke="#555555" d="M411.01,-163.03C457.12,-151.83 517.75,-136.45 579.28,-118.35"/>
<polygon fill="#555555" stroke="#555555" points="579.92,-121.81 588.51,-115.61 577.93,-115.1 579.92,-121.81"/>
<text xml:space="preserve" text-anchor="middle" x="533.9" y="-136.95" font-family="Helvetica,sans-Serif" font-size="9.00">Members</text>
</g>
<!-- tasks&#45;&gt;deps -->
<g id="edge18" class="edge">
<title>tasks&#45;&gt;deps</title>
<path fill="none" stroke="#555555" d="M145.63,-81.45C160.63,-70.16 180.41,-55.27 196.9,-42.87"/>
<polygon fill="#555555" stroke="#555555" points="198.57,-45.99 204.46,-37.18 194.36,-40.4 198.57,-45.99"/>
<text xml:space="preserve" text-anchor="middle" x="192.85" y="-55.2" font-family="Helvetica,sans-Serif" font-size="9.00">Deps</text>
</g>
<!-- pin -->
<g id="node17" class="node">
<title>pin</title>
<polygon fill="none" stroke="black" points="173,-36 72.25,-36 72.25,0 173,0 173,-36"/>
<text xml:space="preserve" text-anchor="middle" x="122.62" y="-19.75" font-family="Helvetica,sans-Serif" font-size="10.00">manual_assign</text>
<text xml:space="preserve" text-anchor="middle" x="122.62" y="-8.5" font-family="Helvetica,sans-Serif" font-size="10.00">pin member &#45;&gt; task</text>
</g>
<!-- tasks&#45;&gt;pin -->
<g id="edge17" class="edge">
<title>tasks&#45;&gt;pin</title>
<path fill="none" stroke="#555555" d="M122.62,-81.45C122.62,-71.52 122.62,-58.81 122.62,-47.45"/>
<polygon fill="#555555" stroke="#555555" points="126.13,-47.78 122.63,-37.78 119.13,-47.78 126.13,-47.78"/>
<text xml:space="preserve" text-anchor="middle" x="136.5" y="-55.2" font-family="Helvetica,sans-Serif" font-size="9.00">Assign</text>
</g>
<!-- gen -->
<g id="node18" class="node">
<title>gen</title>
<polygon fill="#d8f5d8" stroke="black" points="616.75,-36 496.5,-36 496.5,0 616.75,0 616.75,-36"/>
<text xml:space="preserve" text-anchor="middle" x="556.62" y="-19.75" font-family="Helvetica,sans-Serif" font-size="10.00">scheduler pipeline</text>
<text xml:space="preserve" text-anchor="middle" x="556.62" y="-8.5" font-family="Helvetica,sans-Serif" font-size="10.00">(see scheduler diagram)</text>
</g>
<!-- sched&#45;&gt;gen -->
<g id="edge19" class="edge">
<title>sched&#45;&gt;gen</title>
<path fill="none" stroke="#555555" d="M501.81,-81.45C511.26,-70.68 523.58,-56.65 534.15,-44.61"/>
<polygon fill="#555555" stroke="#555555" points="536.5,-47.23 540.47,-37.41 531.24,-42.62 536.5,-47.23"/>
<text xml:space="preserve" text-anchor="middle" x="544.94" y="-55.2" font-family="Helvetica,sans-Serif" font-size="9.00">Generate</text>
</g>
<!-- report -->
<g id="node19" class="node">
<title>report</title>
<polygon fill="none" stroke="black" points="478.75,-36 352.5,-36 352.5,0 478.75,0 478.75,-36"/>
<text xml:space="preserve" text-anchor="middle" x="415.62" y="-19.75" font-family="Helvetica,sans-Serif" font-size="10.00">export_report_html</text>
<text xml:space="preserve" text-anchor="middle" x="415.62" y="-8.5" font-family="Helvetica,sans-Serif" font-size="10.00">HTML + inline&#45;SVG DAG</text>
</g>
<!-- sched&#45;&gt;report -->
<g id="edge20" class="edge">
<title>sched&#45;&gt;report</title>
<path fill="none" stroke="#555555" d="M471.22,-81.45C461.64,-70.68 449.14,-56.65 438.42,-44.61"/>
<polygon fill="#555555" stroke="#555555" points="441.27,-42.54 432.01,-37.4 436.04,-47.2 441.27,-42.54"/>
<text xml:space="preserve" text-anchor="middle" x="481.63" y="-55.2" font-family="Helvetica,sans-Serif" font-size="9.00">Export report</text>
</g>
</g>
</svg>
