<?xml version="1.0" encoding="UTF-8" standalone="no"?>
<!DOCTYPE svg PUBLIC "-//W3C//DTD SVG 1.1//EN"
 "http://www.w3.org/Graphics/SVG/1.1/DTD/svg11.dtd">
<!-- Generated by graphviz version 15.0.0 (20260523.1842)
 -->
<!-- Title: scheduler Pages: 1 -->
<svg width="769pt" height="1131pt"
 viewBox="0.00 0.00 769.00 1131.00" xmlns="http://www.w3.org/2000/svg" xmlns:xlink="http://www.w3.org/1999/xlink">
<g id="graph0" class="graph" transform="scale(1 1) rotate(0) translate(4 1127.25)">
<title>scheduler</title>
<polygon fill="white" stroke="none" points="-4,4 -4,-1127.25 765,-1127.25 765,4 -4,4"/>
<text xml:space="preserve" text-anchor="middle" x="380.5" y="-1104.05" font-family="Helvetica,sans-Serif" font-size="16.00">Project Mayhem Management &#45; Scheduler / Assignment / Gantt</text>
<g id="clust1" class="cluster">
<title>cluster_assign</title>
<polygon fill="#eef4ff" stroke="#eef4ff" points="227,-365 227,-937.75 541,-937.75 541,-365 227,-365"/>
<text xml:space="preserve" text-anchor="middle" x="384" y="-918.55" font-family="Helvetica,sans-Serif" font-size="16.00">assign_members_greedy(c, idx, strategy)</text>
</g>
<g id="clust2" class="cluster">
<title>cluster_sp</title>
<polygon fill="#fff4e6" stroke="#fff4e6" points="549,-446.75 549,-760.5 753,-760.5 753,-446.75 549,-446.75"/>
<text xml:space="preserve" text-anchor="middle" x="651" y="-741.3" font-family="Helvetica,sans-Serif" font-size="16.00">schedule_project (CPM)</text>
</g>
<g id="clust3" class="cluster">
<title>cluster_res</title>
<polygon fill="#f3e8ff" stroke="#f3e8ff" points="8,-8 8,-337.25 286,-337.25 286,-8 8,-8"/>
<text xml:space="preserve" text-anchor="middle" x="147" y="-318.05" font-family="Helvetica,sans-Serif" font-size="16.00">resolve_resource_overlaps (fixpoint)</text>
</g>
<!-- A -->
<g id="node1" class="node">
<title>A</title>
<polygon fill="none" stroke="black" points="512,-1098.75 382,-1098.75 382,-1062.75 512,-1062.75 512,-1098.75"/>
<text xml:space="preserve" text-anchor="middle" x="447" y="-1076.88" font-family="Helvetica,sans-Serif" font-size="10.00">menu_schedule: Generate</text>
</g>
<!-- B -->
<g id="node2" class="node">
<title>B</title>
<polygon fill="none" stroke="black" points="447,-1025.75 316.25,-995.25 447,-964.75 577.75,-995.25 447,-1025.75"/>
<text xml:space="preserve" text-anchor="middle" x="447" y="-997" font-family="Helvetica,sans-Serif" font-size="10.00">pick strategy</text>
<text xml:space="preserve" text-anchor="middle" x="447" y="-985.75" font-family="Helvetica,sans-Serif" font-size="10.00">earliest / risk / pessimistic</text>
</g>
<!-- A&#45;&gt;B -->
<g id="edge1" class="edge">
<title>A&#45;&gt;B</title>
<path fill="none" stroke="#555555" d="M447,-1062.45C447,-1055.14 447,-1046.29 447,-1037.47"/>
<polygon fill="#555555" stroke="#555555" points="450.5,-1037.54 447,-1027.54 443.5,-1037.54 450.5,-1037.54"/>
</g>
<!-- C1 -->
<g id="node3" class="node">
<title>C1</title>
<polygon fill="none" stroke="black" points="509,-905.25 385,-905.25 385,-869.25 509,-869.25 509,-905.25"/>
<text xml:space="preserve" text-anchor="middle" x="447" y="-889" font-family="Helvetica,sans-Serif" font-size="10.00">clear_work_assignments</text>
<text xml:space="preserve" text-anchor="middle" x="447" y="-877.75" font-family="Helvetica,sans-Serif" font-size="10.00">(keep pinned)</text>
</g>
<!-- B&#45;&gt;C1 -->
<g id="edge10" class="edge">
<title>B&#45;&gt;C1</title>
<path fill="none" stroke="#555555" d="M447,-964.44C447,-949.61 447,-931.76 447,-917.07"/>
<polygon fill="#555555" stroke="#555555" points="450.5,-917.12 447,-907.12 443.5,-917.12 450.5,-917.12"/>
</g>
<!-- C2 -->
<g id="node4" class="node">
<title>C2</title>
<polygon fill="none" stroke="black" points="512.38,-832.25 381.62,-832.25 381.62,-796.25 512.38,-796.25 512.38,-832.25"/>
<text xml:space="preserve" text-anchor="middle" x="447" y="-810.38" font-family="Helvetica,sans-Serif" font-size="10.00">schedule_project(strategy)</text>
</g>
<!-- C1&#45;&gt;C2 -->
<g id="edge2" class="edge">
<title>C1&#45;&gt;C2</title>
<path fill="none" stroke="#555555" d="M447,-869.06C447,-861.48 447,-852.35 447,-843.79"/>
<polygon fill="#555555" stroke="#555555" points="450.5,-843.79 447,-833.79 443.5,-843.79 450.5,-843.79"/>
</g>
<!-- C3 -->
<g id="node5" class="node">
<title>C3</title>
<polygon fill="none" stroke="black" points="386,-740.5 238.75,-710 386,-679.5 533.25,-710 386,-740.5"/>
<text xml:space="preserve" text-anchor="middle" x="386" y="-711.75" font-family="Helvetica,sans-Serif" font-size="10.00">pass loop</text>
<text xml:space="preserve" text-anchor="middle" x="386" y="-700.5" font-family="Helvetica,sans-Serif" font-size="10.00">(&lt;= MAX_ASSIGN_PASSES)</text>
</g>
<!-- C2&#45;&gt;C3 -->
<g id="edge3" class="edge">
<title>C2&#45;&gt;C3</title>
<path fill="none" stroke="#555555" d="M436.65,-795.9C428.7,-782.57 417.43,-763.68 407.54,-747.11"/>
<polygon fill="#555555" stroke="#555555" points="410.82,-745.77 402.69,-738.97 404.81,-749.35 410.82,-745.77"/>
</g>
<!-- S1 -->
<g id="node11" class="node">
<title>S1</title>
<polygon fill="none" stroke="black" points="690.88,-728 575.12,-728 575.12,-692 690.88,-692 690.88,-728"/>
<text xml:space="preserve" text-anchor="middle" x="633" y="-711.75" font-family="Helvetica,sans-Serif" font-size="10.00">topo_sort</text>
<text xml:space="preserve" text-anchor="middle" x="633" y="-700.5" font-family="Helvetica,sans-Serif" font-size="10.00">(Kahn: pre + work_pre)</text>
</g>
<!-- C2&#45;&gt;S1 -->
<g id="edge14" class="edge">
<title>C2&#45;&gt;S1</title>
<path fill="none" stroke="#555555" stroke-dasharray="1,5" d="M479.75,-795.82C498.83,-785.61 523.33,-772.42 545,-760.5 560.6,-751.92 577.67,-742.35 592.59,-733.94"/>
<polygon fill="#555555" stroke="#555555" points="594.23,-737.03 601.22,-729.07 590.79,-730.94 594.23,-737.03"/>
<text xml:space="preserve" text-anchor="middle" x="538.4" y="-769.7" font-family="Helvetica,sans-Serif" font-size="9.00">calls</text>
</g>
<!-- C4 -->
<g id="node6" class="node">
<title>C4</title>
<polygon fill="none" stroke="black" points="435.5,-642.5 308.5,-642.5 308.5,-606.5 435.5,-606.5 435.5,-642.5"/>
<text xml:space="preserve" text-anchor="middle" x="372" y="-620.62" font-family="Helvetica,sans-Serif" font-size="10.00">sort tasks by sched_start</text>
</g>
<!-- C3&#45;&gt;C4 -->
<g id="edge4" class="edge">
<title>C3&#45;&gt;C4</title>
<path fill="none" stroke="#555555" d="M381.18,-680.26C379.76,-671.8 378.21,-662.54 376.79,-654.09"/>
<polygon fill="#555555" stroke="#555555" points="380.26,-653.61 375.16,-644.33 373.36,-654.77 380.26,-653.61"/>
</g>
<!-- C5 -->
<g id="node7" class="node">
<title>C5</title>
<polygon fill="none" stroke="black" points="440.38,-569.5 279.62,-569.5 279.62,-527.75 440.38,-527.75 440.38,-569.5"/>
<text xml:space="preserve" text-anchor="middle" x="360" y="-556" font-family="Helvetica,sans-Serif" font-size="10.00">assignment_pass:</text>
<text xml:space="preserve" text-anchor="middle" x="360" y="-544.75" font-family="Helvetica,sans-Serif" font-size="10.00">find_best_member per task,</text>
<text xml:space="preserve" text-anchor="middle" x="360" y="-533.5" font-family="Helvetica,sans-Serif" font-size="10.00">add work_pre on member conflict</text>
</g>
<!-- C4&#45;&gt;C5 -->
<g id="edge5" class="edge">
<title>C4&#45;&gt;C5</title>
<path fill="none" stroke="#555555" d="M369.22,-606.37C368,-598.86 366.53,-589.82 365.12,-581.17"/>
<polygon fill="#555555" stroke="#555555" points="368.58,-580.62 363.52,-571.31 361.67,-581.74 368.58,-580.62"/>
</g>
<!-- C6 -->
<g id="node8" class="node">
<title>C6</title>
<polygon fill="none" stroke="black" points="360,-490.75 298.91,-472.75 360,-454.75 421.09,-472.75 360,-490.75"/>
<text xml:space="preserve" text-anchor="middle" x="360" y="-468.88" font-family="Helvetica,sans-Serif" font-size="10.00">all assigned?</text>
</g>
<!-- C5&#45;&gt;C6 -->
<g id="edge6" class="edge">
<title>C5&#45;&gt;C6</title>
<path fill="none" stroke="#555555" d="M360,-527.44C360,-519.66 360,-510.62 360,-502.2"/>
<polygon fill="#555555" stroke="#555555" points="363.5,-502.42 360,-492.42 356.5,-502.42 363.5,-502.42"/>
</g>
<!-- C7 -->
<g id="node9" class="node">
<title>C7</title>
<polygon fill="none" stroke="black" points="524.38,-409 393.62,-409 393.62,-373 524.38,-373 524.38,-409"/>
<text xml:space="preserve" text-anchor="middle" x="459" y="-387.12" font-family="Helvetica,sans-Serif" font-size="10.00">schedule_project(strategy)</text>
</g>
<!-- C6&#45;&gt;C7 -->
<g id="edge7" class="edge">
<title>C6&#45;&gt;C7</title>
<path fill="none" stroke="#555555" d="M370.64,-457.37C378.01,-448.02 388.41,-435.95 399.25,-427 404.24,-422.88 409.77,-418.95 415.39,-415.3"/>
<polygon fill="#555555" stroke="#555555" points="416.91,-418.48 423.58,-410.25 413.23,-412.52 416.91,-418.48"/>
<text xml:space="preserve" text-anchor="middle" x="426.62" y="-428.2" font-family="Helvetica,sans-Serif" font-size="9.00">no (progress)</text>
</g>
<!-- C8 -->
<g id="node10" class="node">
<title>C8</title>
<polygon fill="none" stroke="black" points="375.12,-409 242.88,-409 242.88,-373 375.12,-373 375.12,-409"/>
<text xml:space="preserve" text-anchor="middle" x="309" y="-387.12" font-family="Helvetica,sans-Serif" font-size="10.00">resolve_resource_overlaps</text>
</g>
<!-- C6&#45;&gt;C8 -->
<g id="edge9" class="edge">
<title>C6&#45;&gt;C8</title>
<path fill="none" stroke="#555555" d="M342.87,-459.41C335.51,-453.33 327.38,-445.44 322,-436.75 318.88,-431.72 316.49,-425.91 314.65,-420.18"/>
<polygon fill="#555555" stroke="#555555" points="318.15,-419.69 312.17,-410.94 311.39,-421.51 318.15,-419.69"/>
<text xml:space="preserve" text-anchor="middle" x="343" y="-428.2" font-family="Helvetica,sans-Serif" font-size="9.00">yes / stuck</text>
</g>
<!-- C7&#45;&gt;C3 -->
<g id="edge8" class="edge">
<title>C7&#45;&gt;C3</title>
<path fill="none" stroke="#555555" d="M459,-409.42C459,-425.58 459,-450.29 459,-471.75 459,-625.5 459,-625.5 459,-625.5 459,-646.62 445.6,-664.97 430.28,-679.05"/>
<polygon fill="#555555" stroke="#555555" points="428.13,-676.28 422.8,-685.44 432.67,-681.61 428.13,-676.28"/>
</g>
<!-- R1 -->
<g id="node15" class="node">
<title>R1</title>
<polygon fill="none" stroke="black" points="277.75,-304.75 188.25,-304.75 188.25,-268.75 277.75,-268.75 277.75,-304.75"/>
<text xml:space="preserve" text-anchor="middle" x="233" y="-282.88" font-family="Helvetica,sans-Serif" font-size="10.00">schedule_project</text>
</g>
<!-- C8&#45;&gt;R1 -->
<g id="edge20" class="edge">
<title>C8&#45;&gt;R1</title>
<path fill="none" stroke="#555555" stroke-dasharray="1,5" d="M296.11,-372.65C284.21,-356.64 266.36,-332.63 252.68,-314.22"/>
<polygon fill="#555555" stroke="#555555" points="255.63,-312.33 246.86,-306.4 250.01,-316.51 255.63,-312.33"/>
<text xml:space="preserve" text-anchor="middle" x="291.62" y="-346.45" font-family="Helvetica,sans-Serif" font-size="9.00">calls</text>
</g>
<!-- D -->
<g id="node20" class="node">
<title>D</title>
<polygon fill="none" stroke="black" points="435.38,-304.75 304.62,-304.75 304.62,-268.75 435.38,-268.75 435.38,-304.75"/>
<text xml:space="preserve" text-anchor="middle" x="370" y="-282.88" font-family="Helvetica,sans-Serif" font-size="10.00">schedule_project(strategy)</text>
</g>
<!-- C8&#45;&gt;D -->
<g id="edge21" class="edge">
<title>C8&#45;&gt;D</title>
<path fill="none" stroke="#555555" d="M319.35,-372.65C328.77,-356.86 342.83,-333.29 353.75,-314.99"/>
<polygon fill="#555555" stroke="#555555" points="356.71,-316.86 358.83,-306.48 350.7,-313.27 356.71,-316.86"/>
</g>
<!-- S2 -->
<g id="node12" class="node">
<title>S2</title>
<polygon fill="none" stroke="black" points="744.5,-642.5 557.5,-642.5 557.5,-606.5 744.5,-606.5 744.5,-642.5"/>
<text xml:space="preserve" text-anchor="middle" x="651" y="-626.25" font-family="Helvetica,sans-Serif" font-size="10.00">forward_pass</text>
<text xml:space="preserve" text-anchor="middle" x="651" y="-615" font-family="Helvetica,sans-Serif" font-size="10.00">sched_start = max(pre, work_pre ends)</text>
</g>
<!-- S1&#45;&gt;S2 -->
<g id="edge11" class="edge">
<title>S1&#45;&gt;S2</title>
<path fill="none" stroke="#555555" d="M636.73,-691.7C639.09,-680.73 642.21,-666.28 644.93,-653.68"/>
<polygon fill="#555555" stroke="#555555" points="648.27,-654.77 646.96,-644.26 641.43,-653.3 648.27,-654.77"/>
</g>
<!-- S3 -->
<g id="node13" class="node">
<title>S3</title>
<polygon fill="none" stroke="black" points="721.62,-566.62 580.38,-566.62 580.38,-530.62 721.62,-530.62 721.62,-566.62"/>
<text xml:space="preserve" text-anchor="middle" x="651" y="-550.38" font-family="Helvetica,sans-Serif" font-size="10.00">backward_pass</text>
<text xml:space="preserve" text-anchor="middle" x="651" y="-539.12" font-family="Helvetica,sans-Serif" font-size="10.00">latest_start, slack, is_critical</text>
</g>
<!-- S2&#45;&gt;S3 -->
<g id="edge12" class="edge">
<title>S2&#45;&gt;S3</title>
<path fill="none" stroke="#555555" d="M651,-606.37C651,-598.03 651,-587.79 651,-578.32"/>
<polygon fill="#555555" stroke="#555555" points="654.5,-578.44 651,-568.44 647.5,-578.44 654.5,-578.44"/>
</g>
<!-- S4 -->
<g id="node14" class="node">
<title>S4</title>
<polygon fill="none" stroke="black" points="696.88,-490.75 605.12,-490.75 605.12,-454.75 696.88,-454.75 696.88,-490.75"/>
<text xml:space="preserve" text-anchor="middle" x="651" y="-468.88" font-family="Helvetica,sans-Serif" font-size="10.00">stamp topo_order</text>
</g>
<!-- S3&#45;&gt;S4 -->
<g id="edge13" class="edge">
<title>S3&#45;&gt;S4</title>
<path fill="none" stroke="#555555" d="M651,-530.49C651,-522.16 651,-511.92 651,-502.44"/>
<polygon fill="#555555" stroke="#555555" points="654.5,-502.56 651,-492.56 647.5,-502.56 654.5,-502.56"/>
</g>
<!-- R2 -->
<g id="node16" class="node">
<title>R2</title>
<polygon fill="none" stroke="black" points="218.25,-231.75 119.75,-231.75 119.75,-195.75 218.25,-195.75 218.25,-231.75"/>
<text xml:space="preserve" text-anchor="middle" x="169" y="-215.5" font-family="Helvetica,sans-Serif" font-size="10.00">group by assignee,</text>
<text xml:space="preserve" text-anchor="middle" x="169" y="-204.25" font-family="Helvetica,sans-Serif" font-size="10.00">sort by start</text>
</g>
<!-- R1&#45;&gt;R2 -->
<g id="edge15" class="edge">
<title>R1&#45;&gt;R2</title>
<path fill="none" stroke="#555555" d="M217.51,-268.56C209.8,-260.02 200.34,-249.52 191.83,-240.07"/>
<polygon fill="#555555" stroke="#555555" points="194.66,-237.99 185.36,-232.9 189.46,-242.67 194.66,-237.99"/>
</g>
<!-- R3 -->
<g id="node17" class="node">
<title>R3</title>
<polygon fill="none" stroke="black" points="134,-158.75 16,-128.25 134,-97.75 252,-128.25 134,-158.75"/>
<text xml:space="preserve" text-anchor="middle" x="134" y="-130" font-family="Helvetica,sans-Serif" font-size="10.00">adjacent same&#45;member</text>
<text xml:space="preserve" text-anchor="middle" x="134" y="-118.75" font-family="Helvetica,sans-Serif" font-size="10.00">overlap?</text>
</g>
<!-- R2&#45;&gt;R3 -->
<g id="edge16" class="edge">
<title>R2&#45;&gt;R3</title>
<path fill="none" stroke="#555555" d="M161.75,-195.45C158.21,-187.01 153.81,-176.52 149.57,-166.39"/>
<polygon fill="#555555" stroke="#555555" points="152.92,-165.33 145.83,-157.46 146.46,-168.04 152.92,-165.33"/>
</g>
<!-- R4 -->
<g id="node18" class="node">
<title>R4</title>
<polygon fill="none" stroke="black" points="278,-52 196,-52 196,-16 278,-16 278,-52"/>
<text xml:space="preserve" text-anchor="middle" x="237" y="-35.75" font-family="Helvetica,sans-Serif" font-size="10.00">add work_pre</text>
<text xml:space="preserve" text-anchor="middle" x="237" y="-24.5" font-family="Helvetica,sans-Serif" font-size="10.00">(earlier &#45;&gt; later)</text>
</g>
<!-- R3&#45;&gt;R4 -->
<g id="edge17" class="edge">
<title>R3&#45;&gt;R4</title>
<path fill="none" stroke="#555555" d="M159.99,-103.97C174.94,-90.59 193.72,-73.77 208.99,-60.09"/>
<polygon fill="#555555" stroke="#555555" points="211.28,-62.74 216.39,-53.46 206.61,-57.52 211.28,-62.74"/>
<text xml:space="preserve" text-anchor="middle" x="204.88" y="-71.2" font-family="Helvetica,sans-Serif" font-size="9.00">yes</text>
</g>
<!-- R5 -->
<g id="node19" class="node">
<title>R5</title>
<polygon fill="none" stroke="black" points="177.62,-52 84.38,-52 84.38,-16 177.62,-16 177.62,-52"/>
<text xml:space="preserve" text-anchor="middle" x="131" y="-30.12" font-family="Helvetica,sans-Serif" font-size="10.00">done: no overlaps</text>
</g>
<!-- R3&#45;&gt;R5 -->
<g id="edge19" class="edge">
<title>R3&#45;&gt;R5</title>
<path fill="none" stroke="#555555" d="M133.03,-97.55C132.68,-86.69 132.28,-74.42 131.93,-63.64"/>
<polygon fill="#555555" stroke="#555555" points="135.43,-63.66 131.61,-53.78 128.44,-63.89 135.43,-63.66"/>
<text xml:space="preserve" text-anchor="middle" x="157.16" y="-71.2" font-family="Helvetica,sans-Serif" font-size="9.00">none added</text>
</g>
<!-- R4&#45;&gt;R1 -->
<g id="edge18" class="edge">
<title>R4&#45;&gt;R1</title>
<path fill="none" stroke="#555555" d="M245.61,-52.35C251.23,-64.68 258.06,-81.81 261,-97.75 271.41,-154.12 254.8,-220.54 243.05,-257.43"/>
<polygon fill="#555555" stroke="#555555" points="239.74,-256.29 239.92,-266.88 246.39,-258.49 239.74,-256.29"/>
</g>
<!-- E -->
<g id="node21" class="node">
<title>E</title>
<polygon fill="#d8f5d8" stroke="black" points="463,-231.75 297,-231.75 297,-195.75 463,-195.75 463,-231.75"/>
<text xml:space="preserve" text-anchor="middle" x="380" y="-215.5" font-family="Helvetica,sans-Serif" font-size="10.00">render_gantt</text>
<text xml:space="preserve" text-anchor="middle" x="380" y="-204.25" font-family="Helvetica,sans-Serif" font-size="10.00">(rows by start, DAG&#45;order column)</text>
</g>
<!-- D&#45;&gt;E -->
<g id="edge22" class="edge">
<title>D&#45;&gt;E</title>
<path fill="none" stroke="#555555" d="M372.42,-268.56C373.5,-260.89 374.8,-251.64 376.02,-242.99"/>
<polygon fill="#555555" stroke="#555555" points="379.46,-243.67 377.39,-233.28 372.53,-242.69 379.46,-243.67"/>
</g>
<!-- F -->
<g id="node22" class="node">
<title>F</title>
<polygon fill="none" stroke="black" points="472.38,-146.25 293.62,-146.25 293.62,-110.25 472.38,-110.25 472.38,-146.25"/>
<text xml:space="preserve" text-anchor="middle" x="383" y="-130" font-family="Helvetica,sans-Serif" font-size="10.00">resolve_unassigned</text>
<text xml:space="preserve" text-anchor="middle" x="383" y="-118.75" font-family="Helvetica,sans-Serif" font-size="10.00">(cascade: suggest off&#45;roster member)</text>
</g>
<!-- E&#45;&gt;F -->
<g id="edge23" class="edge">
<title>E&#45;&gt;F</title>
<path fill="none" stroke="#555555" d="M380.62,-195.45C381.01,-184.59 381.52,-170.32 381.97,-157.81"/>
<polygon fill="#555555" stroke="#555555" points="385.46,-158.16 382.32,-148.04 378.47,-157.91 385.46,-158.16"/>
</g>
<!-- G -->
<g id="node23" class="node">
<title>G</title>
<polygon fill="none" stroke="black" points="424,-52 342,-52 342,-16 424,-16 424,-52"/>
<text xml:space="preserve" text-anchor="middle" x="383" y="-30.12" font-family="Helvetica,sans-Serif" font-size="10.00">company_save</text>
</g>
<!-- F&#45;&gt;G -->
<g id="edge24" class="edge">
<title>F&#45;&gt;G</title>
<path fill="none" stroke="#555555" d="M383,-109.9C383,-96.88 383,-78.78 383,-63.63"/>
<polygon fill="#555555" stroke="#555555" points="386.5,-63.79 383,-53.79 379.5,-63.79 386.5,-63.79"/>
</g>
</g>
</svg>
