<?xml version="1.0" encoding="UTF-8" standalone="no"?>
<!DOCTYPE svg PUBLIC "-//W3C//DTD SVG 1.1//EN"
 "http://www.w3.org/Graphics/SVG/1.1/DTD/svg11.dtd">
<!-- Generated by graphviz version 15.0.0 (20260523.1842)
 -->
<!-- Title: proj_1 Pages: 1 -->
<svg width="1938pt" height="547pt"
 viewBox="0.00 0.00 1938.00 547.00" xmlns="http://www.w3.org/2000/svg" xmlns:xlink="http://www.w3.org/1999/xlink">
<g id="graph0" class="graph" transform="scale(1 1) rotate(0) translate(4 542.85)">
<title>proj_1</title>
<polygon fill="white" stroke="none" points="-4,4 -4,-542.85 1933.63,-542.85 1933.63,4 -4,4"/>
<!-- 0 -->
<g id="node1" class="node">
<title>0</title>
<ellipse fill="#4caf50" stroke="black" cx="52" cy="-98.73" rx="30.82" ry="30.82"/>
<text xml:space="preserve" text-anchor="middle" x="52" y="-94.28" font-family="Helvetica,sans-Serif" font-size="11.00" fill="white">START</text>
</g>
<!-- 1 -->
<g id="node3" class="node">
<title>1</title>
<ellipse fill="#f44336" stroke="black" cx="219.73" cy="-130.73" rx="79.73" ry="31.11"/>
<text xml:space="preserve" text-anchor="middle" x="219.73" y="-138.28" font-family="Helvetica,sans-Serif" font-size="11.00" fill="white">[1] Project Kickoff</text>
<text xml:space="preserve" text-anchor="middle" x="219.73" y="-126.28" font-family="Helvetica,sans-Serif" font-size="11.00" fill="white">exp: 1.1d | risk: 1/10</text>
<text xml:space="preserve" text-anchor="middle" x="219.73" y="-114.28" font-family="Helvetica,sans-Serif" font-size="11.00" fill="white">day 0&#45;1 | slack: 0</text>
</g>
<!-- 0&#45;&gt;1 -->
<g id="edge1" class="edge">
<title>0&#45;&gt;1</title>
<path fill="none" stroke="#555555" d="M82.63,-104.45C97.88,-107.4 117.29,-111.15 136.65,-114.89"/>
<polygon fill="#555555" stroke="#555555" points="135.73,-118.27 146.21,-116.73 137.05,-111.4 135.73,-118.27"/>
</g>
<!-- 19 -->
<g id="node22" class="node">
<title>19</title>
<ellipse fill="none" stroke="black" cx="440.63" cy="-65.73" rx="27" ry="18"/>
<text xml:space="preserve" text-anchor="middle" x="440.63" y="-61.28" font-family="Helvetica,sans-Serif" font-size="11.00">19</text>
</g>
<!-- 0&#45;&gt;19 -->
<g id="edge2" class="edge">
<title>0&#45;&gt;19</title>
<path fill="none" stroke="#555555" d="M82.79,-95.93C99.59,-94.37 120.96,-92.4 140,-90.73 234.43,-82.45 345.65,-73.34 402.33,-68.74"/>
<polygon fill="#555555" stroke="#555555" points="402.38,-72.25 412.07,-67.96 401.82,-65.27 402.38,-72.25"/>
</g>
<!-- end -->
<g id="node2" class="node">
<title>end</title>
<ellipse fill="#607d8b" stroke="black" cx="1905.57" cy="-69.73" rx="24.05" ry="24.05"/>
<text xml:space="preserve" text-anchor="middle" x="1905.57" y="-65.28" font-family="Helvetica,sans-Serif" font-size="11.00" fill="white">END</text>
</g>
<!-- 2 -->
<g id="node4" class="node">
<title>2</title>
<ellipse fill="#f44336" stroke="black" cx="440.63" cy="-159.73" rx="105.18" ry="31.11"/>
<text xml:space="preserve" text-anchor="middle" x="440.63" y="-167.28" font-family="Helvetica,sans-Serif" font-size="11.00" fill="white">[2] Requirements Gathering</text>
<text xml:space="preserve" text-anchor="middle" x="440.63" y="-155.28" font-family="Helvetica,sans-Serif" font-size="11.00" fill="white">exp: 4.3d | risk: 3/10</text>
<text xml:space="preserve" text-anchor="middle" x="440.63" y="-143.28" font-family="Helvetica,sans-Serif" font-size="11.00" fill="white">day 1&#45;6 | slack: 0</text>
</g>
<!-- 1&#45;&gt;2 -->
<g id="edge3" class="edge">
<title>1&#45;&gt;2</title>
<path fill="none" stroke="#555555" d="M295.76,-140.67C307.82,-142.27 320.5,-143.95 333.13,-145.62"/>
<polygon fill="#555555" stroke="#555555" points="332.33,-149.05 342.7,-146.89 333.24,-142.11 332.33,-149.05"/>
</g>
<!-- 3 -->
<g id="node5" class="node">
<title>3</title>
<ellipse fill="#f44336" stroke="black" cx="697.61" cy="-306.73" rx="115.79" ry="31.11"/>
<text xml:space="preserve" text-anchor="middle" x="697.61" y="-314.28" font-family="Helvetica,sans-Serif" font-size="11.00" fill="white">[3] System Architecture Design</text>
<text xml:space="preserve" text-anchor="middle" x="697.61" y="-302.28" font-family="Helvetica,sans-Serif" font-size="11.00" fill="white">exp: 3.2d | risk: 2/10</text>
<text xml:space="preserve" text-anchor="middle" x="697.61" y="-290.28" font-family="Helvetica,sans-Serif" font-size="11.00" fill="white">day 6&#45;9 | slack: 0</text>
</g>
<!-- 2&#45;&gt;3 -->
<g id="edge4" class="edge">
<title>2&#45;&gt;3</title>
<path fill="none" stroke="#555555" d="M489.89,-187.56C531.77,-211.7 592.54,-246.74 637.36,-272.58"/>
<polygon fill="#555555" stroke="#555555" points="635.52,-275.55 645.93,-277.52 639.02,-269.49 635.52,-275.55"/>
</g>
<!-- 4 -->
<g id="node6" class="node">
<title>4</title>
<ellipse fill="#f44336" stroke="black" cx="697.61" cy="-159.73" rx="84.5" ry="31.11"/>
<text xml:space="preserve" text-anchor="middle" x="697.61" y="-167.28" font-family="Helvetica,sans-Serif" font-size="11.00" fill="white">[4] UI/UX Wireframes</text>
<text xml:space="preserve" text-anchor="middle" x="697.61" y="-155.28" font-family="Helvetica,sans-Serif" font-size="11.00" fill="white">exp: 5.2d | risk: 2/10</text>
<text xml:space="preserve" text-anchor="middle" x="697.61" y="-143.28" font-family="Helvetica,sans-Serif" font-size="11.00" fill="white">day 6&#45;12 | slack: 0</text>
</g>
<!-- 2&#45;&gt;4 -->
<g id="edge5" class="edge">
<title>2&#45;&gt;4</title>
<path fill="none" stroke="#555555" d="M546.08,-159.73C564.44,-159.73 583.46,-159.73 601.55,-159.73"/>
<polygon fill="#555555" stroke="#555555" points="601.47,-163.23 611.47,-159.73 601.47,-156.23 601.47,-163.23"/>
</g>
<!-- 5 -->
<g id="node7" class="node">
<title>5</title>
<ellipse fill="#f44336" stroke="black" cx="963.06" cy="-427.73" rx="111.02" ry="31.11"/>
<text xml:space="preserve" text-anchor="middle" x="963.06" y="-435.28" font-family="Helvetica,sans-Serif" font-size="11.00" fill="white">[5] Database Schema Design</text>
<text xml:space="preserve" text-anchor="middle" x="963.06" y="-423.28" font-family="Helvetica,sans-Serif" font-size="11.00" fill="white">exp: 2.2d | risk: 2/10</text>
<text xml:space="preserve" text-anchor="middle" x="963.06" y="-411.28" font-family="Helvetica,sans-Serif" font-size="11.00" fill="white">day 9&#45;11 | slack: 0</text>
</g>
<!-- 3&#45;&gt;5 -->
<g id="edge6" class="edge">
<title>3&#45;&gt;5</title>
<path fill="none" stroke="#555555" d="M747.24,-335.29C776.33,-351.76 814.35,-372.21 849.39,-387.73 858.97,-391.98 869.15,-396.1 879.33,-399.99"/>
<polygon fill="#555555" stroke="#555555" points="877.89,-403.19 888.48,-403.42 880.34,-396.63 877.89,-403.19"/>
</g>
<!-- 6 -->
<g id="node8" class="node">
<title>6</title>
<ellipse fill="#f44336" stroke="black" cx="963.06" cy="-347.73" rx="79.73" ry="31.11"/>
<text xml:space="preserve" text-anchor="middle" x="963.06" y="-355.28" font-family="Helvetica,sans-Serif" font-size="11.00" fill="white">[6] API Design</text>
<text xml:space="preserve" text-anchor="middle" x="963.06" y="-343.28" font-family="Helvetica,sans-Serif" font-size="11.00" fill="white">exp: 2.0d | risk: 1/10</text>
<text xml:space="preserve" text-anchor="middle" x="963.06" y="-331.28" font-family="Helvetica,sans-Serif" font-size="11.00" fill="white">day 9&#45;11 | slack: 0</text>
</g>
<!-- 3&#45;&gt;6 -->
<g id="edge7" class="edge">
<title>3&#45;&gt;6</title>
<path fill="none" stroke="#555555" d="M798.58,-322.29C824.46,-326.32 852.08,-330.62 877.1,-334.51"/>
<polygon fill="#555555" stroke="#555555" points="876.49,-337.96 886.91,-336.04 877.57,-331.04 876.49,-337.96"/>
</g>
<!-- 14 -->
<g id="node16" class="node">
<title>14</title>
<ellipse fill="#2196f3" stroke="black" cx="963.06" cy="-136.73" rx="79.73" ry="31.11"/>
<text xml:space="preserve" text-anchor="middle" x="963.06" y="-144.28" font-family="Helvetica,sans-Serif" font-size="11.00" fill="white">[14] CI/CD Pipeline</text>
<text xml:space="preserve" text-anchor="middle" x="963.06" y="-132.28" font-family="Helvetica,sans-Serif" font-size="11.00" fill="white">exp: 3.2d | risk: 2/10</text>
<text xml:space="preserve" text-anchor="middle" x="963.06" y="-120.28" font-family="Helvetica,sans-Serif" font-size="11.00" fill="white">day 9&#45;12 | slack: 15</text>
</g>
<!-- 3&#45;&gt;14 -->
<g id="edge8" class="edge">
<title>3&#45;&gt;14</title>
<path fill="none" stroke="#555555" d="M727.22,-276.23C755.8,-247.26 802.17,-204.17 849.39,-176.73 861.03,-169.97 874,-164.07 886.88,-159.02"/>
<polygon fill="#555555" stroke="#555555" points="888.1,-162.31 896.24,-155.52 885.64,-155.75 888.1,-162.31"/>
</g>
<!-- 10 -->
<g id="node12" class="node">
<title>10</title>
<ellipse fill="#f44336" stroke="black" cx="963.06" cy="-216.73" rx="113.67" ry="31.11"/>
<text xml:space="preserve" text-anchor="middle" x="963.06" y="-224.28" font-family="Helvetica,sans-Serif" font-size="11.00" fill="white">[10] Component Library Setup</text>
<text xml:space="preserve" text-anchor="middle" x="963.06" y="-212.28" font-family="Helvetica,sans-Serif" font-size="11.00" fill="white">exp: 3.2d | risk: 2/10</text>
<text xml:space="preserve" text-anchor="middle" x="963.06" y="-200.28" font-family="Helvetica,sans-Serif" font-size="11.00" fill="white">day 12&#45;15 | slack: 0</text>
</g>
<!-- 4&#45;&gt;10 -->
<g id="edge9" class="edge">
<title>4&#45;&gt;10</title>
<path fill="none" stroke="#555555" d="M771.29,-175.46C799.37,-181.53 831.96,-188.59 862.18,-195.12"/>
<polygon fill="#555555" stroke="#555555" points="861.2,-198.49 871.71,-197.19 862.68,-191.65 861.2,-198.49"/>
</g>
<!-- 11 -->
<g id="node13" class="node">
<title>11</title>
<ellipse fill="#2196f3" stroke="black" cx="1221.62" cy="-107.73" rx="106.77" ry="31.11"/>
<text xml:space="preserve" text-anchor="middle" x="1221.62" y="-115.28" font-family="Helvetica,sans-Serif" font-size="11.00" fill="white">[11] Login and Auth Screens</text>
<text xml:space="preserve" text-anchor="middle" x="1221.62" y="-103.28" font-family="Helvetica,sans-Serif" font-size="11.00" fill="white">exp: 2.2d | risk: 2/10</text>
<text xml:space="preserve" text-anchor="middle" x="1221.62" y="-91.28" font-family="Helvetica,sans-Serif" font-size="11.00" fill="white">day 15&#45;17 | slack: 13</text>
</g>
<!-- 4&#45;&gt;11 -->
<g id="edge10" class="edge">
<title>4&#45;&gt;11</title>
<path fill="none" stroke="#555555" d="M746.62,-133.91C775.5,-119.87 813.51,-103.93 849.39,-96.73 937.79,-79.01 1040.37,-83.93 1115.27,-92.04"/>
<polygon fill="#555555" stroke="#555555" points="1114.74,-95.51 1125.07,-93.15 1115.53,-88.55 1114.74,-95.51"/>
</g>
<!-- 7 -->
<g id="node9" class="node">
<title>7</title>
<ellipse fill="#2196f3" stroke="black" cx="1221.62" cy="-427.73" rx="79.73" ry="31.11"/>
<text xml:space="preserve" text-anchor="middle" x="1221.62" y="-435.28" font-family="Helvetica,sans-Serif" font-size="11.00" fill="white">[7] Auth Service</text>
<text xml:space="preserve" text-anchor="middle" x="1221.62" y="-423.28" font-family="Helvetica,sans-Serif" font-size="11.00" fill="white">exp: 4.2d | risk: 3/10</text>
<text xml:space="preserve" text-anchor="middle" x="1221.62" y="-411.28" font-family="Helvetica,sans-Serif" font-size="11.00" fill="white">day 11&#45;16 | slack: 6</text>
</g>
<!-- 5&#45;&gt;7 -->
<g id="edge11" class="edge">
<title>5&#45;&gt;7</title>
<path fill="none" stroke="#555555" d="M1074.36,-427.73C1092.94,-427.73 1112.03,-427.73 1130.04,-427.73"/>
<polygon fill="#555555" stroke="#555555" points="1129.89,-431.23 1139.89,-427.73 1129.89,-424.23 1129.89,-431.23"/>
</g>
<!-- 8 -->
<g id="node10" class="node">
<title>8</title>
<ellipse fill="#f44336" stroke="black" cx="1221.62" cy="-347.73" rx="107.3" ry="31.11"/>
<text xml:space="preserve" text-anchor="middle" x="1221.62" y="-355.28" font-family="Helvetica,sans-Serif" font-size="11.00" fill="white">[8] Core API Implementation</text>
<text xml:space="preserve" text-anchor="middle" x="1221.62" y="-343.28" font-family="Helvetica,sans-Serif" font-size="11.00" fill="white">exp: 8.5d | risk: 4/10</text>
<text xml:space="preserve" text-anchor="middle" x="1221.62" y="-331.28" font-family="Helvetica,sans-Serif" font-size="11.00" fill="white">day 11&#45;21 | slack: 0</text>
</g>
<!-- 5&#45;&gt;8 -->
<g id="edge12" class="edge">
<title>5&#45;&gt;8</title>
<path fill="none" stroke="#555555" d="M1038.61,-404.49C1069.45,-394.87 1105.35,-383.68 1137.07,-373.79"/>
<polygon fill="#555555" stroke="#555555" points="1137.71,-377.25 1146.21,-370.94 1135.62,-370.57 1137.71,-377.25"/>
</g>
<!-- 9 -->
<g id="node11" class="node">
<title>9</title>
<ellipse fill="#2196f3" stroke="black" cx="1221.62" cy="-507.73" rx="108.89" ry="31.11"/>
<text xml:space="preserve" text-anchor="middle" x="1221.62" y="-515.28" font-family="Helvetica,sans-Serif" font-size="11.00" fill="white">[9] Database Implementation</text>
<text xml:space="preserve" text-anchor="middle" x="1221.62" y="-503.28" font-family="Helvetica,sans-Serif" font-size="11.00" fill="white">exp: 3.2d | risk: 2/10</text>
<text xml:space="preserve" text-anchor="middle" x="1221.62" y="-491.28" font-family="Helvetica,sans-Serif" font-size="11.00" fill="white">day 11&#45;14 | slack: 8</text>
</g>
<!-- 5&#45;&gt;9 -->
<g id="edge13" class="edge">
<title>5&#45;&gt;9</title>
<path fill="none" stroke="#555555" d="M1038.61,-450.98C1069.05,-460.47 1104.42,-471.5 1135.84,-481.3"/>
<polygon fill="#555555" stroke="#555555" points="1134.74,-484.62 1145.33,-484.25 1136.82,-477.94 1134.74,-484.62"/>
</g>
<!-- 6&#45;&gt;7 -->
<g id="edge14" class="edge">
<title>6&#45;&gt;7</title>
<path fill="none" stroke="#555555" d="M1026.17,-367.1C1062.9,-378.55 1109.61,-393.12 1148.04,-405.1"/>
<polygon fill="#555555" stroke="#555555" points="1146.61,-408.32 1157.2,-407.96 1148.7,-401.64 1146.61,-408.32"/>
</g>
<!-- 6&#45;&gt;8 -->
<g id="edge15" class="edge">
<title>6&#45;&gt;8</title>
<path fill="none" stroke="#555555" d="M1043.13,-347.73C1061.93,-347.73 1082.38,-347.73 1102.51,-347.73"/>
<polygon fill="#555555" stroke="#555555" points="1102.45,-351.23 1112.45,-347.73 1102.45,-344.23 1102.45,-351.23"/>
</g>
<!-- 17 -->
<g id="node19" class="node">
<title>17</title>
<ellipse fill="#2196f3" stroke="black" cx="1472.23" cy="-387.73" rx="79.73" ry="31.11"/>
<text xml:space="preserve" text-anchor="middle" x="1472.23" y="-395.28" font-family="Helvetica,sans-Serif" font-size="11.00" fill="white">[17] Unit Tests</text>
<text xml:space="preserve" text-anchor="middle" x="1472.23" y="-383.28" font-family="Helvetica,sans-Serif" font-size="11.00" fill="white">exp: 4.2d | risk: 2/10</text>
<text xml:space="preserve" text-anchor="middle" x="1472.23" y="-371.28" font-family="Helvetica,sans-Serif" font-size="11.00" fill="white">day 21&#45;26 | slack: 1</text>
</g>
<!-- 7&#45;&gt;17 -->
<g id="edge16" class="edge">
<title>7&#45;&gt;17</title>
<path fill="none" stroke="#555555" d="M1295.87,-415.95C1324.44,-411.35 1357.38,-406.05 1386.93,-401.3"/>
<polygon fill="#555555" stroke="#555555" points="1387.27,-404.79 1396.58,-399.74 1386.16,-397.88 1387.27,-404.79"/>
</g>
<!-- 16 -->
<g id="node18" class="node">
<title>16</title>
<ellipse fill="#f44336" stroke="black" cx="1472.23" cy="-267.73" rx="79.73" ry="31.11"/>
<text xml:space="preserve" text-anchor="middle" x="1472.23" y="-275.28" font-family="Helvetica,sans-Serif" font-size="11.00" fill="white">[16] API Integration</text>
<text xml:space="preserve" text-anchor="middle" x="1472.23" y="-263.28" font-family="Helvetica,sans-Serif" font-size="11.00" fill="white">exp: 5.3d | risk: 4/10</text>
<text xml:space="preserve" text-anchor="middle" x="1472.23" y="-251.28" font-family="Helvetica,sans-Serif" font-size="11.00" fill="white">day 21&#45;27 | slack: 0</text>
</g>
<!-- 8&#45;&gt;16 -->
<g id="edge17" class="edge">
<title>8&#45;&gt;16</title>
<path fill="none" stroke="#555555" d="M1294.53,-324.59C1327.39,-314.02 1366.22,-301.53 1399.1,-290.95"/>
<polygon fill="#555555" stroke="#555555" points="1400.12,-294.29 1408.56,-287.9 1397.97,-287.63 1400.12,-294.29"/>
</g>
<!-- 8&#45;&gt;17 -->
<g id="edge18" class="edge">
<title>8&#45;&gt;17</title>
<path fill="none" stroke="#555555" d="M1316.26,-362.8C1339.34,-366.51 1363.92,-370.47 1386.55,-374.11"/>
<polygon fill="#555555" stroke="#555555" points="1385.91,-377.55 1396.34,-375.68 1387.02,-370.64 1385.91,-377.55"/>
</g>
<!-- 9&#45;&gt;17 -->
<g id="edge19" class="edge">
<title>9&#45;&gt;17</title>
<path fill="none" stroke="#555555" d="M1292.38,-483.76C1305.21,-478.82 1318.39,-473.39 1330.52,-467.73 1360.67,-453.69 1393.03,-435.52 1419.1,-420.06"/>
<polygon fill="#555555" stroke="#555555" points="1420.68,-423.19 1427.47,-415.05 1417.09,-417.18 1420.68,-423.19"/>
</g>
<!-- 10&#45;&gt;11 -->
<g id="edge20" class="edge">
<title>10&#45;&gt;11</title>
<path fill="none" stroke="#555555" d="M1040.45,-193.57C1052.89,-188.69 1065.4,-183.06 1076.73,-176.73 1094.66,-166.71 1094.86,-157.88 1112.73,-147.73 1120.78,-143.16 1129.46,-138.93 1138.26,-135.07"/>
<polygon fill="#555555" stroke="#555555" points="1139.38,-138.4 1147.24,-131.3 1136.66,-131.95 1139.38,-138.4"/>
</g>
<!-- 12 -->
<g id="node14" class="node">
<title>12</title>
<ellipse fill="#f44336" stroke="black" cx="1221.62" cy="-267.73" rx="82.38" ry="31.11"/>
<text xml:space="preserve" text-anchor="middle" x="1221.62" y="-275.28" font-family="Helvetica,sans-Serif" font-size="11.00" fill="white">[12] Main Dashboard</text>
<text xml:space="preserve" text-anchor="middle" x="1221.62" y="-263.28" font-family="Helvetica,sans-Serif" font-size="11.00" fill="white">exp: 5.3d | risk: 3/10</text>
<text xml:space="preserve" text-anchor="middle" x="1221.62" y="-251.28" font-family="Helvetica,sans-Serif" font-size="11.00" fill="white">day 15&#45;21 | slack: 0</text>
</g>
<!-- 10&#45;&gt;12 -->
<g id="edge21" class="edge">
<title>10&#45;&gt;12</title>
<path fill="none" stroke="#555555" d="M1055.96,-235C1082.51,-240.28 1111.32,-246.01 1137.31,-251.17"/>
<polygon fill="#555555" stroke="#555555" points="1136.29,-254.54 1146.78,-253.05 1137.65,-247.67 1136.29,-254.54"/>
</g>
<!-- 13 -->
<g id="node15" class="node">
<title>13</title>
<ellipse fill="#2196f3" stroke="black" cx="1221.62" cy="-187.73" rx="79.73" ry="31.11"/>
<text xml:space="preserve" text-anchor="middle" x="1221.62" y="-195.28" font-family="Helvetica,sans-Serif" font-size="11.00" fill="white">[13] Data Views</text>
<text xml:space="preserve" text-anchor="middle" x="1221.62" y="-183.28" font-family="Helvetica,sans-Serif" font-size="11.00" fill="white">exp: 4.2d | risk: 3/10</text>
<text xml:space="preserve" text-anchor="middle" x="1221.62" y="-171.28" font-family="Helvetica,sans-Serif" font-size="11.00" fill="white">day 15&#45;20 | slack: 1</text>
</g>
<!-- 10&#45;&gt;13 -->
<g id="edge22" class="edge">
<title>10&#45;&gt;13</title>
<path fill="none" stroke="#555555" d="M1068.79,-204.9C1090.18,-202.48 1112.48,-199.96 1133.19,-197.62"/>
<polygon fill="#555555" stroke="#555555" points="1133.47,-201.11 1143.02,-196.51 1132.69,-194.15 1133.47,-201.11"/>
</g>
<!-- 20 -->
<g id="node21" class="node">
<title>20</title>
<ellipse fill="#2196f3" stroke="black" cx="1472.23" cy="-107.73" rx="105.71" ry="31.11"/>
<text xml:space="preserve" text-anchor="middle" x="1472.23" y="-115.28" font-family="Helvetica,sans-Serif" font-size="11.00" fill="white">[20] Production Deployment</text>
<text xml:space="preserve" text-anchor="middle" x="1472.23" y="-103.28" font-family="Helvetica,sans-Serif" font-size="11.00" fill="white">exp: 2.0d | risk: 4/10</text>
<text xml:space="preserve" text-anchor="middle" x="1472.23" y="-91.28" font-family="Helvetica,sans-Serif" font-size="11.00" fill="white">day 17&#45;19 | slack: 13</text>
</g>
<!-- 11&#45;&gt;20 -->
<g id="edge23" class="edge">
<title>11&#45;&gt;20</title>
<path fill="none" stroke="#555555" d="M1328.78,-107.73C1337.4,-107.73 1346.15,-107.73 1354.84,-107.73"/>
<polygon fill="#555555" stroke="#555555" points="1354.71,-111.23 1364.71,-107.73 1354.71,-104.23 1354.71,-111.23"/>
</g>
<!-- 12&#45;&gt;16 -->
<g id="edge24" class="edge">
<title>12&#45;&gt;16</title>
<path fill="none" stroke="#555555" d="M1304.37,-267.73C1328.92,-267.73 1355.98,-267.73 1381.04,-267.73"/>
<polygon fill="#555555" stroke="#555555" points="1380.88,-271.23 1390.88,-267.73 1380.88,-264.23 1380.88,-271.23"/>
</g>
<!-- 13&#45;&gt;16 -->
<g id="edge25" class="edge">
<title>13&#45;&gt;16</title>
<path fill="none" stroke="#555555" d="M1284.08,-207.51C1319.02,-218.75 1362.95,-232.89 1399.47,-244.64"/>
<polygon fill="#555555" stroke="#555555" points="1398.02,-247.85 1408.61,-247.58 1400.17,-241.19 1398.02,-247.85"/>
</g>
<!-- 15 -->
<g id="node17" class="node">
<title>15</title>
<ellipse fill="#2196f3" stroke="black" cx="1729.73" cy="-69.73" rx="115.79" ry="31.11"/>
<text xml:space="preserve" text-anchor="middle" x="1729.73" y="-77.28" font-family="Helvetica,sans-Serif" font-size="11.00" fill="white">[15] Cloud Infrastructure Setup</text>
<text xml:space="preserve" text-anchor="middle" x="1729.73" y="-65.28" font-family="Helvetica,sans-Serif" font-size="11.00" fill="white">exp: 4.2d | risk: 3/10</text>
<text xml:space="preserve" text-anchor="middle" x="1729.73" y="-53.28" font-family="Helvetica,sans-Serif" font-size="11.00" fill="white">day 12&#45;17 | slack: 15</text>
</g>
<!-- 14&#45;&gt;15 -->
<g id="edge26" class="edge">
<title>14&#45;&gt;15</title>
<path fill="none" stroke="#555555" d="M1007.48,-110.43C1036.22,-94.61 1075.36,-75.98 1112.73,-67.73 1284.43,-29.83 1489.67,-41.44 1614.54,-54.59"/>
<polygon fill="#555555" stroke="#555555" points="1613.8,-58.04 1624.12,-55.63 1614.55,-51.08 1613.8,-58.04"/>
</g>
<!-- 15&#45;&gt;end -->
<g id="edge29" class="edge">
<title>15&#45;&gt;end</title>
<path fill="none" stroke="#555555" d="M1845.72,-69.73C1854.32,-69.73 1862.5,-69.73 1869.89,-69.73"/>
<polygon fill="#555555" stroke="#555555" points="1869.63,-73.23 1879.63,-69.73 1869.63,-66.23 1869.63,-73.23"/>
</g>
<!-- 18 -->
<g id="node20" class="node">
<title>18</title>
<ellipse fill="#f44336" stroke="black" cx="1729.73" cy="-267.73" rx="81.85" ry="31.11"/>
<text xml:space="preserve" text-anchor="middle" x="1729.73" y="-275.28" font-family="Helvetica,sans-Serif" font-size="11.00" fill="white">[18] Integration Tests</text>
<text xml:space="preserve" text-anchor="middle" x="1729.73" y="-263.28" font-family="Helvetica,sans-Serif" font-size="11.00" fill="white">exp: 4.2d | risk: 3/10</text>
<text xml:space="preserve" text-anchor="middle" x="1729.73" y="-251.28" font-family="Helvetica,sans-Serif" font-size="11.00" fill="white">day 27&#45;32 | slack: 0</text>
</g>
<!-- 16&#45;&gt;18 -->
<g id="edge27" class="edge">
<title>16&#45;&gt;18</title>
<path fill="none" stroke="#555555" d="M1552.32,-267.73C1578.99,-267.73 1608.98,-267.73 1636.56,-267.73"/>
<polygon fill="#555555" stroke="#555555" points="1636.3,-271.23 1646.3,-267.73 1636.3,-264.23 1636.3,-271.23"/>
</g>
<!-- 17&#45;&gt;18 -->
<g id="edge28" class="edge">
<title>17&#45;&gt;18</title>
<path fill="none" stroke="#555555" d="M1524.32,-363.74C1565.44,-344.43 1623.38,-317.22 1667.07,-296.69"/>
<polygon fill="#555555" stroke="#555555" points="1668.36,-299.96 1675.92,-292.54 1665.38,-293.62 1668.36,-299.96"/>
</g>
<!-- 18&#45;&gt;end -->
<g id="edge31" class="edge">
<title>18&#45;&gt;end</title>
<path fill="none" stroke="#555555" d="M1756.76,-238.09C1790.69,-199.44 1849.52,-132.44 1881.78,-95.7"/>
<polygon fill="#555555" stroke="#555555" points="1884.03,-98.43 1888,-88.61 1878.77,-93.82 1884.03,-98.43"/>
</g>
<!-- 19&#45;&gt;end -->
<g id="edge30" class="edge">
<title>19&#45;&gt;end</title>
<path fill="none" stroke="#555555" d="M466.99,-61.14C542.21,-47.92 770.81,-10.73 962.06,-10.73 962.06,-10.73 962.06,-10.73 1473.23,-10.73 1638.91,-10.73 1688.42,22.88 1845.52,-29.73 1856.97,-33.57 1868.26,-40.28 1877.86,-47.13"/>
<polygon fill="#555555" stroke="#555555" points="1875.54,-49.76 1885.63,-53 1879.76,-44.18 1875.54,-49.76"/>
</g>
<!-- m1 -->
<g id="node23" class="node">
<title>m1</title>
<polygon fill="#ffc107" stroke="black" points="52,-211.73 0,-179.73 52,-147.73 104,-179.73 52,-211.73"/>
<text xml:space="preserve" text-anchor="middle" x="52" y="-181.28" font-family="Helvetica,sans-Serif" font-size="11.00">M: M1_</text>
<text xml:space="preserve" text-anchor="middle" x="52" y="-169.28" font-family="Helvetica,sans-Serif" font-size="11.00">day 10</text>
</g>
</g>
</svg>
